<?xml version="1.0" encoding="utf-8"?>
<!-- Generator: Adobe Illustrator 24.2.3, SVG Export Plug-In . SVG Version: 6.00 Build 0)  -->
<svg version="1.1" id="Layer_1" xmlns="http://www.w3.org/2000/svg" xmlns:xlink="http://www.w3.org/1999/xlink" x="0px" y="0px"
	 viewBox="0 0 512 512" style="enable-background:new 0 0 512 512;" xml:space="preserve">
<style type="text/css">
	.st0{fill:#ECECEC;}
	.st1{opacity:0.43;fill:#ECECEC;}
	.st2{fill:#E1E1E1;}
	.st3{fill:#F0F0F0;}
	.st4{fill:#F5F5F5;}
	.st5{fill:#0A1F9B;}
	.st6{fill:#1A2E35;}
	.st7{fill:#007CFF;}
	.st8{opacity:0.3;fill:#007CFF;}
	.st9{opacity:0.1;}
	.st10{fill:url(#SVGID_1_);}
	.st11{fill:#730D99;}
	.st12{fill:#FFFFFF;}
	.st13{fill:#91BEE2;}
	.st14{fill:#2E3192;}
	.st15{fill:#231F20;}
	.st16{fill:#FFFFFF;stroke:#231F20;stroke-width:0.75;stroke-miterlimit:10;}
	.st17{fill:#FFFFFF;stroke:#231F20;stroke-width:0.25;stroke-miterlimit:10;}
</style>
<g>
	<g>
		<rect x="6" y="373.6" class="st0" width="500" height="0.3"/>
		<rect x="434.2" y="389.7" class="st0" width="21.7" height="0.3"/>
		<rect x="316.6" y="384.5" class="st0" width="34.1" height="0.3"/>
		<rect x="402.6" y="380.4" class="st0" width="44.5" height="0.3"/>
		<rect x="167.9" y="385.5" class="st0" width="11.1" height="0.3"/>
		<rect x="120.6" y="385.5" class="st0" width="38.4" height="0.3"/>
		<rect x="72.3" y="381.2" class="st0" width="27.7" height="0.3"/>
	</g>
	<g>
		<g>
			<path class="st0" d="M231.1,303.7l0.5-13.1l-8.1-2.6c-0.3-4.5-1.1-8.9-2.2-13.2l6.8-5l-4.6-12.3l-8.5,0.7c-2-4-4.4-7.8-7-11.3
				l4.4-7.3l-9-9.6l-7.6,3.9c-3.4-2.9-7-5.5-10.8-7.8l1.2-8.4l-12-5.4l-5.5,6.4c-4.2-1.4-8.5-2.4-13-3l-2-8.2l-13.2-0.5l-2.6,8.1
				c-4.5,0.4-8.9,1.1-13.2,2.2l-5.1-6.8l-12.3,4.6l0.7,8.5c-4,2-7.8,4.4-11.4,7.1l-7.3-4.4l-9.6,9l3.9,7.6c-2.9,3.4-5.5,7-7.8,10.8
				l-8.4-1.3l-5.5,12l6.5,5.5c-1.4,4.2-2.4,8.6-3,13l-8.3,2.1l-0.5,13.1l8.1,2.6c0.3,4.5,1.1,8.9,2.2,13.2l-6.8,5l4.6,12.3l8.5-0.7
				c2,4,4.4,7.8,7,11.4l-4.4,7.3l9,9.6l7.6-3.9c3.4,2.9,7,5.5,10.8,7.8l-1.3,8.4l12,5.4l5.5-6.4c4.2,1.4,8.5,2.4,13,3l2,8.2
				l13.2,0.5l2.6-8.1c4.5-0.4,8.9-1.1,13.2-2.2l5,6.8l12.3-4.6l-0.6-8.5c4-2,7.8-4.4,11.4-7.1l7.3,4.4l9.6-9l-3.9-7.6
				c2.9-3.4,5.5-7,7.8-10.8l8.4,1.3l5.5-12l-6.5-5.5c1.4-4.2,2.4-8.5,3-13L231.1,303.7z M142.3,346.3c-28.8-1-51.3-25.1-50.3-53.9
				c1-28.8,25.1-51.3,53.9-50.4c28.8,1,51.3,25.1,50.3,53.9C195.2,324.7,171.1,347.2,142.3,346.3z"/>
		</g>
		<g>
			<path class="st0" d="M456,260.2l3.3-3.1l-1.3-2.6c1-1.2,1.9-2.4,2.7-3.7l2.9,0.4l1.9-4.1l-2.2-1.9c0.5-1.5,0.8-3,1.1-4.5l2.9-0.7
				l0.1-4.5l-2.8-0.9c-0.1-1.5-0.4-3.1-0.7-4.6l2.3-1.7l-1.6-4.3l-2.9,0.2c-0.7-1.4-1.5-2.7-2.4-3.9l1.5-2.5l-3.1-3.3l-2.6,1.3
				c-1.2-1-2.4-1.9-3.7-2.7l0.4-2.9l-4.1-1.9l-1.9,2.2c-1.5-0.5-3-0.8-4.5-1l-0.7-2.8l-4.5-0.2l-0.9,2.8c-1.5,0.1-3.1,0.4-4.5,0.7
				l-1.7-2.4l-4.3,1.6l0.2,2.9c-1.4,0.7-2.7,1.5-3.9,2.4l-2.5-1.5l-3.3,3.1l1.3,2.6c-1,1.2-1.9,2.4-2.7,3.7l-2.9-0.4l-1.9,4.1
				l2.2,1.9c-0.5,1.5-0.8,3-1.1,4.5l-2.9,0.7l-0.1,4.5l2.8,0.9c0.1,1.5,0.4,3.1,0.7,4.6l-2.4,1.7l1.6,4.3l2.9-0.2
				c0.7,1.4,1.5,2.7,2.4,3.9l-1.5,2.5l3.1,3.3l2.6-1.3c1.2,1,2.4,1.9,3.7,2.7l-0.4,2.9l4.1,1.9l1.9-2.2c1.5,0.5,3,0.8,4.5,1l0.7,2.8
				l4.5,0.2l0.9-2.8c1.5-0.1,3.1-0.4,4.5-0.7l1.7,2.4l4.3-1.6l-0.2-2.9c1.4-0.7,2.7-1.5,3.9-2.4L456,260.2z M432.4,241.1
				c-2.4-2.6-2.3-6.7,0.3-9.1c2.6-2.4,6.7-2.3,9.1,0.3c2.4,2.6,2.3,6.7-0.3,9.1C438.9,243.8,434.8,243.7,432.4,241.1z"/>
		</g>
		<path class="st1" d="M359,152.1l-10.3-7.1c0,0,0,0,0,0c-1-3.8-2.4-7.4-4.2-10.8l2.6-10.4l-15-16.1l-10.6,1.9
			c-3.3-2-6.8-3.6-10.5-4.9c0,0,0,0,0,0L304.7,94l-22-0.8l-7.1,10.3c0,0,0,0,0,0c-3.8,1-7.4,2.4-10.8,4.2l-10.4-2.6l-16.1,15
			l1.9,10.5c0,0,0,0,0,0c-2,3.3-3.6,6.8-4.9,10.5l-10.8,6.4l-0.8,22l10.4,7.1c1,3.8,2.4,7.4,4.1,10.8c0,0,0,0,0,0l-2.6,10.4l15,16.1
			l10.5-1.9c3.3,2,6.8,3.6,10.5,4.9c0,0,0,0,0,0l6.4,10.8l22,0.8l7.1-10.3c3.8-1,7.4-2.4,10.9-4.2c0,0,0,0,0,0l10.3,2.6l16.1-15
			l-1.9-10.5c2-3.3,3.6-6.8,4.9-10.5c0,0,0,0,0,0l10.8-6.4L359,152.1z M290.6,185.5c-13.7-0.5-24.3-11.9-23.9-25.5
			c0.5-13.7,11.9-24.3,25.5-23.9c13.7,0.5,24.3,11.9,23.9,25.5C315.7,175.3,304.2,186,290.6,185.5z"/>
		<path class="st0" d="M358.6,332.8C358.6,332.8,358.5,332.8,358.6,332.8l-17.4-0.6c-0.7,0-1.4-0.4-1.7-1l-4.7-7.9
			c-2.5-0.9-4.9-2-7.3-3.4l-7.5,1.4c-0.7,0.1-1.4-0.1-1.9-0.6L306.3,308c-0.5-0.5-0.7-1.3-0.5-2l1.9-7.4c-1.1-2.3-2.1-4.9-2.9-7.5
			l-7.5-5.2c-0.6-0.4-0.9-1.1-0.9-1.8l0.6-17.3c0-0.7,0.4-1.4,1-1.7l7.9-4.7c0.9-2.6,2.1-5,3.4-7.2l-1.4-7.5
			c-0.1-0.7,0.1-1.4,0.6-1.9l12.7-11.8c0.5-0.5,1.3-0.7,2-0.5l7.4,1.9c2.4-1.2,4.9-2.1,7.4-2.9l5.2-7.5c0.4-0.6,1.1-1,1.8-0.9
			l17.3,0.6c0.7,0,1.4,0.4,1.7,1l4.7,7.9c2.5,0.9,4.9,2,7.2,3.4l7.6-1.4c0.7-0.1,1.4,0.1,1.9,0.6l11.8,12.7c0.5,0.5,0.7,1.3,0.5,2
			l-1.9,7.4c1.2,2.4,2.1,4.9,2.9,7.4l7.5,5.2c0.6,0.4,0.9,1.1,0.9,1.8l-0.6,17.3c0,0.7-0.4,1.4-1,1.7l-7.9,4.7
			c-0.9,2.6-2.1,5-3.4,7.2l1.4,7.5c0.1,0.7-0.1,1.4-0.6,1.9l-12.7,11.8c-0.5,0.5-1.3,0.7-2,0.5l-7.4-1.9c-2.4,1.2-5,2.1-7.5,2.9
			l-5.2,7.5C359.9,332.4,359.3,332.8,358.6,332.8z M342.5,328l15,0.5l5-7.2c0.3-0.4,0.7-0.7,1.2-0.8c2.8-0.7,5.5-1.8,8.2-3.1
			c0,0,0,0,0,0c0.4-0.2,1-0.3,1.5-0.2l7,1.8l11-10.2l-1.3-7.2c-0.1-0.5,0-1,0.3-1.5c1.4-2.4,2.7-5,3.7-7.8c0.2-0.5,0.5-0.9,0.9-1.2
			l7.5-4.5l0.5-15l-7.2-5c-0.4-0.3-0.7-0.6-0.8-1.1c0-0.1,0-0.1,0-0.2c-0.8-2.8-1.8-5.5-3.1-8.1c-0.2-0.5-0.3-1-0.2-1.5l1.8-7.1
			l-10.3-11l-7.2,1.3c-0.5,0.1-1,0-1.5-0.3c-2.5-1.5-5.1-2.7-7.8-3.7c-0.2-0.1-0.3-0.1-0.4-0.2c-0.3-0.2-0.5-0.4-0.7-0.7l-4.5-7.5
			l-15-0.5l-5,7.2c-0.3,0.4-0.7,0.7-1.2,0.9c-2.8,0.8-5.5,1.8-8.1,3.1c-0.5,0.2-1,0.3-1.5,0.2l-7.1-1.8l-11,10.3l1.3,7.2
			c0.1,0.5,0,0.9-0.2,1.3c0,0.1-0.1,0.1-0.1,0.2c-1.5,2.4-2.7,5.1-3.7,7.9c-0.2,0.5-0.5,0.9-0.9,1.1l-7.5,4.5l-0.5,15l7.2,5
			c0.4,0.3,0.7,0.7,0.8,1.2c0.8,2.9,1.8,5.6,3.1,8.1c0.1,0.1,0.1,0.3,0.2,0.5c0.1,0.3,0.1,0.7,0,1l-1.8,7.1l10.3,11l7.1-1.3
			c0.5-0.1,1,0,1.5,0.3c2.5,1.5,5.2,2.7,7.9,3.7c0.5,0.2,0.9,0.5,1.2,0.9L342.5,328z M367.3,233.2L367.3,233.2L367.3,233.2z
			 M351.8,309c-0.4,0-0.7,0-1.1,0c-17.4-0.6-31.2-15.3-30.6-32.7c0.6-17.4,15.3-31.1,32.7-30.6c17.4,0.6,31.2,15.3,30.6,32.7
			c-0.3,8.4-3.9,16.3-10,22C367.4,306,359.8,309,351.8,309z M351.7,249.9c-14.7,0-26.9,11.7-27.4,26.5
			c-0.5,15.1,11.4,27.8,26.5,28.4c7.3,0.2,14.3-2.4,19.7-7.4c5.4-5,8.4-11.8,8.7-19.1c0.5-15.1-11.4-27.8-26.5-28.4
			C352.4,249.9,352,249.9,351.7,249.9z"/>
		<g>
			<polygon class="st2" points="398.5,208.1 391.3,206.2 389.4,199 392.2,196.2 395.2,202.4 401.3,205.3 			"/>
			<path class="st2" d="M398.9,203.3c1.3-1.3,1.3-3.4,0-4.7c-1.3-1.3-3.4-1.3-4.7,0l3.6-5.4l4.8,2.4l1,5L398.9,203.3z"/>
			<path class="st3" d="M391.6,196.8l5.3-5.3l7.2,1.9l1.9,7.2l-5.3,5.3l-7.2-1.9L391.6,196.8z M401.2,201.1c1.3-1.3,1.3-3.4,0-4.7
				c-1.3-1.3-3.4-1.3-4.7,0c-1.3,1.3-1.3,3.4,0,4.7C397.7,202.4,399.9,202.4,401.2,201.1z"/>
		</g>
		<g>
			<polygon class="st2" points="105.3,399.5 109.1,398.5 110.1,394.6 108.6,393.1 107,396.4 103.8,398 			"/>
			<path class="st2" d="M105,396.9c-0.7-0.7-0.7-1.8,0-2.5c0.7-0.7,1.8-0.7,2.5,0l-1.9-2.9l-2.6,1.3l-0.6,2.7L105,396.9z"/>
			<path class="st3" d="M108.9,393.4l-2.8-2.8l-3.8,1l-1,3.8l2.8,2.8l3.8-1L108.9,393.4z M103.8,395.7c-0.7-0.7-0.7-1.8,0-2.5
				c0.7-0.7,1.8-0.7,2.5,0s0.7,1.8,0,2.5C105.7,396.4,104.5,396.4,103.8,395.7z"/>
		</g>
		<g>
			<path class="st3" d="M91.4,188.5l3.2,3.2c0.8,0.8,2.2,0.8,3,0l0,0c0.8-0.8,0.8-2.2,0-3l-3.2-3.2c-0.8-0.8-2.2-0.8-3,0l0,0
				C90.6,186.3,90.6,187.6,91.4,188.5z"/>
			<path class="st2" d="M89.2,180.5c2.5-0.9,5.1,0.3,6,2.6c0.8,2.3-0.5,4.9-3,5.8c-2.5,0.9-5.1-0.3-6-2.6
				C85.4,184,86.7,181.4,89.2,180.5z"/>
			
				<rect x="90" y="179.6" transform="matrix(-0.338 -0.9411 0.9411 -0.338 -52.5205 332.4448)" class="st3" width="1.4" height="10.1"/>
		</g>
	</g>
	<ellipse id="_x3C_Path_x3E__373_" class="st4" cx="256" cy="407.5" rx="193.9" ry="11.3"/>
	<g>
		<path class="st5" d="M135.7,213.9c-1-4.4-0.6-8.1,1.3-11.1c1.9-3,5-5,9.4-6c4.5-1,8.2-0.6,11.2,1.3c3,1.9,5,5,5.9,9.3
			c0.7,3.2,0.8,5.9,0.2,8.1c-0.6,2.3-1.8,4.2-3.5,5.8c-1.8,1.6-4.1,2.7-7.1,3.4c-3,0.7-5.7,0.8-7.9,0.3c-2.2-0.5-4.2-1.7-5.9-3.5
			C137.6,219.5,136.4,217,135.7,213.9z M144.1,212c0.6,2.7,1.6,4.6,2.9,5.5c1.3,1,2.8,1.2,4.5,0.8c1.8-0.4,3-1.3,3.8-2.7
			c0.7-1.4,0.7-3.6,0-6.6c-0.6-2.5-1.5-4.3-2.8-5.2c-1.3-0.9-2.8-1.2-4.6-0.8c-1.7,0.4-2.9,1.3-3.6,2.7
			C143.5,207.2,143.4,209.3,144.1,212z"/>
		<path class="st5" d="M167.6,210.6c-0.7-3-0.2-5.7,1.3-8.1c1.6-2.4,4.1-4,7.5-4.8c3.9-0.9,7.1-0.4,9.6,1.4c2,1.5,3.3,3.5,3.9,6.2
			c0.7,3,0.2,5.7-1.3,8.1c-1.6,2.4-4.1,4-7.6,4.8c-3.1,0.7-5.9,0.5-8.2-0.7C170.1,216.1,168.3,213.8,167.6,210.6z M175.1,208.8
			c0.4,1.7,1,2.9,1.9,3.6c0.9,0.7,1.9,0.9,2.9,0.6c1.1-0.2,1.9-0.9,2.4-1.8c0.5-1,0.6-2.4,0.1-4.2c-0.4-1.7-1-2.9-1.9-3.5
			c-0.9-0.7-1.8-0.9-2.9-0.7c-1.1,0.2-1.9,0.9-2.4,1.9C174.8,205.8,174.7,207.1,175.1,208.8z"/>
		<path class="st5" d="M197.6,221.8l-6.1-27l7-1.6l0.7,2.9c0.7-1.4,1.4-2.5,2.1-3.1c1-0.8,2.1-1.4,3.4-1.7c2.6-0.6,4.9-0.1,6.7,1.6
			c1.9,1.7,3.2,4,3.8,6.9c0.7,3.3,0.5,5.9-0.6,8c-1.2,2.1-2.9,3.4-5.3,3.9c-1.2,0.3-2.2,0.3-3.3,0.1c-1-0.2-2-0.6-2.9-1.2l2.1,9.3
			L197.6,221.8z M201.2,202.9c0.4,1.5,0.9,2.6,1.8,3.2s1.7,0.8,2.7,0.6c0.9-0.2,1.5-0.7,1.9-1.6c0.4-0.9,0.4-2.1,0.1-3.9
			c-0.4-1.6-0.9-2.7-1.7-3.3c-0.8-0.6-1.6-0.8-2.5-0.6c-1,0.2-1.7,0.8-2.1,1.7C200.9,200,200.8,201.2,201.2,202.9z"/>
		<path class="st5" d="M218.4,203.5l7.3-2.4c0.5,0.8,1.1,1.3,1.7,1.6c0.6,0.3,1.4,0.3,2.3,0.1c1-0.2,1.7-0.6,2.2-1.2
			c0.4-0.4,0.5-0.9,0.4-1.3c-0.1-0.5-0.5-0.9-1.1-1.1c-0.5-0.1-1.6-0.1-3.4,0c-2.7,0.1-4.6,0.1-5.7,0c-1.1-0.2-2.1-0.6-3-1.4
			c-0.9-0.8-1.5-1.7-1.8-2.9c-0.3-1.3-0.2-2.5,0.4-3.6c0.5-1.1,1.4-2,2.6-2.8c1.2-0.8,2.9-1.4,5.1-1.9c2.3-0.5,4.1-0.7,5.3-0.6
			c1.2,0.1,2.2,0.4,3.2,1c0.9,0.6,1.8,1.5,2.5,2.6l-6.9,2.3c-0.3-0.6-0.7-1-1.2-1.2c-0.7-0.3-1.4-0.3-2.3-0.1
			c-0.8,0.2-1.4,0.5-1.7,0.9c-0.3,0.4-0.4,0.8-0.3,1.2c0.1,0.5,0.4,0.8,1,0.9c0.5,0.1,1.7,0.1,3.4-0.1c2.6-0.3,4.5-0.3,5.8-0.1
			c1.3,0.2,2.4,0.7,3.3,1.5c0.9,0.8,1.4,1.7,1.7,2.9c0.3,1.1,0.2,2.3-0.3,3.5c-0.4,1.2-1.3,2.3-2.6,3.3c-1.3,1-3.2,1.7-5.8,2.3
			c-3.6,0.8-6.2,0.9-8,0.2C220.6,206.5,219.3,205.3,218.4,203.5z"/>
		<path class="st5" d="M242.8,178.8l8.2,0l0,6.3l-1.5,12.7l-5.1,0l-1.6-12.7L242.8,178.8z M243.2,199.7l7.7,0l0,6.8l-7.7,0
			L243.2,199.7z"/>
	</g>
	<g>
		<g>
			<path class="st6" d="M134.7,282.8c-0.1,0-0.1,0-0.2,0c-4.5-1.7-7.2-3.4-8.6-5.5c-1,0.2-2.2,0.1-3.2-0.4c-1-0.5-2.1-1.4-2.8-2.6
				c-0.7,0.5-1.5,0.7-2.4,0.4c-1-0.3-2.1-1.2-3-2.4c-0.6,0.4-1.1,0.5-1.6,0.4c-3-0.2-7-6.2-7.3-12.5c0-0.3,0.2-0.5,0.5-0.5
				c0.3,0,0.5,0.2,0.5,0.5c0.3,6,4.1,11.3,6.4,11.5c0.4,0,0.7-0.1,0.9-0.3c-1.4-2.4-2.1-5.8-1-9.4c0.9-3,1.6-4.2,2.5-4
				c1.7,0.4,1.5,7,0.6,11.3c-0.2,1-0.5,1.7-0.8,2.2c0.8,1.2,1.7,1.9,2.5,2.2c0.7,0.2,1.3,0,1.7-0.3c-0.8-1.9-0.9-4.6,0.1-7.9
				c1.4-4.4,2-4.5,2.3-4.6c0.2-0.1,0.5,0,0.6,0.2c0.9,1-0.2,7.9-1.3,11.3c-0.2,0.4-0.3,0.8-0.6,1.2c0.6,1.2,1.5,2,2.5,2.5
				c0.8,0.4,1.6,0.5,2.3,0.4c-0.1-0.2-0.2-0.4-0.2-0.6c-0.8-2.1-0.4-4.6,1.2-7.6c1.1-2,1.9-2.9,2.7-2.9c0,0,0,0,0,0
				c0.2,0,0.7,0.1,1,0.7c0.9,1.6,0.2,6.9-1.5,9.6c-0.4,0.6-1,1.1-1.6,1.4c1.3,1.8,3.9,3.3,7.9,4.9c0.3,0.1,0.4,0.4,0.3,0.6
				C135.1,282.7,134.9,282.8,134.7,282.8z M129,266.3c0,0-0.6,0-1.8,2.3c-1.4,2.7-1.8,4.9-1.1,6.8c0.1,0.2,0.2,0.5,0.3,0.7
				c0.5-0.2,1-0.6,1.3-1.1c1.4-2.1,2.1-6.5,1.5-8.3C129.1,266.4,129,266.3,129,266.3z M121.9,262.1c-0.3,0.5-0.7,1.5-1.3,3.5
				c-0.9,2.7-0.9,4.9-0.4,6.5c0-0.1,0.1-0.2,0.1-0.3C121.4,268.5,122,263.8,121.9,262.1z M115.3,259c-0.2,0.2-0.7,0.8-1.4,3.2
				c-0.9,3.2-0.4,6.1,0.7,8.2c0.2-0.4,0.4-0.9,0.5-1.4C116.1,264.1,115.8,259.7,115.3,259z"/>
			<path class="st6" d="M172.7,335.2c-1.5,0-3.1-0.3-4.6-1.2c-0.2-0.1-0.3-0.4-0.2-0.7c0.1-0.2,0.4-0.3,0.7-0.2
				c3.6,2.1,8.2,0.6,9.1-0.9c0.1-0.2,0.2-0.4,0.1-0.7c-1.4,0.1-3.1-0.2-5.1-1.5c-2.5-1.6-2.7-2.1-2.7-2.4c0-0.2,0.1-0.4,0.3-0.5
				c1-0.5,5.5,1.6,7.4,2.8c0.2,0.2,0.5,0.3,0.6,0.5c0.8-0.2,1.5-0.6,1.9-1.1c0.3-0.4,0.5-0.7,0.6-1.1c-0.1,0-0.1,0-0.2,0
				c-1.6,0.2-3.2-0.5-4.9-2.1c-1.2-1.1-1.6-1.8-1.5-2.4c0-0.2,0.2-0.5,0.7-0.7c1.4-0.3,4.8,1.1,6.2,2.6c0.3,0.3,0.5,0.7,0.6,1.2
				c1.3-0.6,2.7-2,4.3-4.3c0.2-0.2,0.5-0.3,0.7-0.1c0.2,0.2,0.3,0.5,0.1,0.7c-1.9,2.6-3.5,4.1-5,4.7c-0.1,0.7-0.4,1.4-0.9,2
				c-0.5,0.6-1.2,1.1-2.2,1.4c0.1,0.5,0,0.9-0.3,1.4C177.8,334.2,175.4,335.2,172.7,335.2z M171.8,328.3c0.3,0.2,0.8,0.6,1.5,1
				c1.4,0.8,2.6,1.2,3.6,1.3C175.3,329.6,173.1,328.7,171.8,328.3z M175.3,324c0.1,0.2,0.3,0.6,1.2,1.4c1.5,1.4,2.8,2,4.1,1.8
				c0.1,0,0.2,0,0.3,0c-0.1-0.3-0.2-0.6-0.4-0.8C179.1,324.8,176,323.9,175.3,324z"/>
			<path class="st7" d="M185.9,333.8l-15.6,2.8l-14.1-77.2l-30.1,5.5l-49,87l5.3,28.7l62.8-11.4l4.3,23.5l30.1-5.5l-4.3-23.5
				l15.6-2.8L185.9,333.8z M107.1,348.2l26-45.6l7.2,39.5L107.1,348.2z"/>
		</g>
		<g>
			<g>
				<path class="st8" d="M293.1,324.1l0.3-2.6l-1.5-0.6c0-0.9-0.1-1.7-0.2-2.6l1.4-0.9l-0.7-2.5l-1.7,0c-0.3-0.8-0.7-1.6-1.2-2.3
					l0.9-1.4l-1.6-2l-1.5,0.6c-0.6-0.6-1.3-1.2-2-1.7l0.4-1.6l-2.3-1.2l-1.2,1.2c-0.8-0.3-1.6-0.6-2.5-0.8l-0.3-1.6l-2.6-0.3
					l-0.6,1.5c-0.9,0-1.7,0.1-2.6,0.2l-0.9-1.4l-2.5,0.7l0,1.7c-0.8,0.3-1.6,0.7-2.3,1.2l-1.4-1l-2,1.6l0.6,1.5
					c-0.6,0.6-1.2,1.3-1.7,2l-1.6-0.4l-1.2,2.3l1.2,1.2c-0.3,0.8-0.6,1.6-0.8,2.5l-1.6,0.3l-0.3,2.6l1.5,0.6c0,0.9,0.1,1.7,0.2,2.6
					l-1.4,0.9l0.7,2.5l1.7,0c0.3,0.8,0.7,1.6,1.2,2.3l-1,1.4l1.6,2l1.5-0.6c0.6,0.6,1.3,1.2,2,1.7l-0.4,1.6l2.3,1.2l1.2-1.2
					c0.8,0.3,1.6,0.6,2.5,0.8l0.3,1.6l2.6,0.3l0.6-1.5c0.9,0,1.7-0.1,2.6-0.2l0.9,1.4l2.5-0.7l0-1.7c0.8-0.3,1.6-0.7,2.3-1.2l1.3,1
					l2-1.6l-0.6-1.5c0.6-0.6,1.2-1.3,1.7-2l1.6,0.4l1.2-2.3l-1.2-1.2c0.3-0.8,0.6-1.6,0.8-2.5L293.1,324.1z M280.2,323.1
					c-1.2,2.2-3.9,3-6.1,1.8c-2.2-1.2-2.9-3.9-1.8-6.1c1.2-2.2,3.9-2.9,6.1-1.8C280.6,318.2,281.4,320.9,280.2,323.1z"/>
			</g>
			<path class="st5" d="M329,230.3l0.5-1.3c0,0,0,0,0,0c0.4-0.2,0.7-0.4,1-0.7l1.2,0l1.4-2l-0.4-1.1c0.1-0.4,0.2-0.8,0.3-1.2
				c0,0,0,0,0,0l1-0.9l-0.4-2.3l-1.3-0.5c0,0,0,0,0,0c-0.2-0.4-0.4-0.7-0.7-1l0-1.2l-2-1.4l-1.1,0.4c0,0,0,0,0,0
				c-0.4-0.1-0.8-0.2-1.2-0.3l-0.9-1l-2.3,0.4l-0.5,1.3c-0.4,0.2-0.7,0.4-1.1,0.7c0,0,0,0,0,0l-1.2,0l-1.4,2l0.4,1.1
				c-0.1,0.4-0.2,0.8-0.3,1.2c0,0,0,0,0,0l-1,0.9l0.4,2.3l1.3,0.5c0.2,0.4,0.4,0.7,0.7,1.1c0,0,0,0,0,0l0,1.2l2,1.4l1.1-0.4
				c0.4,0.1,0.8,0.2,1.2,0.3c0,0,0,0,0,0l0.9,1L329,230.3z M324,223.9c-0.3-1.5,0.7-2.8,2.2-3.1c1.5-0.3,2.8,0.7,3.1,2.2
				s-0.7,2.8-2.2,3.1C325.6,226.3,324.2,225.3,324,223.9z"/>
			<path class="st7" d="M301.6,223.7l-0.8-0.6c1.3-1.6,3.2-3.6,6-5l0.5,0.9C304.3,220.5,302.4,222.7,301.6,223.7z"/>
			<path class="st7" d="M309.6,218l-0.4-0.9c3.8-1.6,7.7-2.3,11.7-1.9l-0.1,1C317,215.9,313.2,216.5,309.6,218z"/>
			<path class="st7" d="M307.7,224.9l-0.8-0.6c2.1-3,6.1-5.6,9.9-6.4l0.2,1C313.4,219.7,309.6,222.1,307.7,224.9z"/>
		</g>
		<g>
			<path class="st7" d="M431.8,342.9l-15.7-2.1l10.4-77.8l-30.3-4.1l-73.5,67.6l-3.9,28.9l63.3,8.5l-3.2,23.7l30.3,4.1l3.2-23.7
				l15.7,2.1L431.8,342.9z M352.4,332.2l38.8-35.3l-5.3,39.8L352.4,332.2z"/>
			<path class="st6" d="M400.1,391C400.1,391,400.1,391,400.1,391c-0.4-0.1-0.5-0.3-0.5-0.6L423,262.4c0-0.3,0.3-0.4,0.6-0.4
				c0.3,0,0.5,0.3,0.4,0.6l-23.3,127.9C400.6,390.8,400.4,391,400.1,391z"/>
			<g>
				<path class="st6" d="M420.8,264.6c0,0.5-0.4,0.8-0.8,0.8s-0.8-0.4-0.8-0.8s0.4-0.8,0.8-0.8C420.5,263.8,420.8,264.1,420.8,264.6
					z"/>
				<path class="st6" d="M417.5,281.9c0,0.5-0.4,0.8-0.8,0.8s-0.8-0.4-0.8-0.8s0.4-0.8,0.8-0.8C417.2,281.1,417.5,281.4,417.5,281.9
					z"/>
				<path class="st6" d="M414.2,299.2c0,0.5-0.4,0.8-0.8,0.8s-0.8-0.4-0.8-0.8s0.4-0.8,0.8-0.8C413.8,298.4,414.2,298.7,414.2,299.2
					z"/>
				<path class="st6" d="M407.6,317.2c0,0.5-0.4,0.8-0.8,0.8s-0.8-0.4-0.8-0.8s0.4-0.8,0.8-0.8S407.6,316.7,407.6,317.2z"/>
				<path class="st6" d="M407.5,333.8c0,0.5-0.4,0.8-0.8,0.8c-0.5,0-0.8-0.4-0.8-0.8s0.4-0.8,0.8-0.8S407.5,333.3,407.5,333.8z"/>
				<path class="st6" d="M404.2,351.1c0,0.5-0.4,0.8-0.8,0.8s-0.8-0.4-0.8-0.8c0-0.5,0.4-0.8,0.8-0.8S404.2,350.6,404.2,351.1z"/>
				<path class="st6" d="M400.8,368.4c0,0.5-0.4,0.8-0.8,0.8s-0.8-0.4-0.8-0.8c0-0.5,0.4-0.8,0.8-0.8S400.9,367.9,400.8,368.4z"/>
				<path class="st6" d="M397.5,385.7c0,0.5-0.4,0.8-0.8,0.8c-0.5,0-0.8-0.4-0.8-0.8s0.4-0.8,0.8-0.8
					C397.2,384.9,397.5,385.2,397.5,385.7z"/>
			</g>
			<path class="st6" d="M406.8,317.7c-0.2,0-0.4-0.2-0.5-0.4c-0.1-0.3,0.1-0.5,0.4-0.6l2.5-0.5c0.3-0.1,0.5,0.1,0.6,0.4
				c0.1,0.3-0.1,0.5-0.4,0.6l-2.5,0.5C406.9,317.7,406.8,317.7,406.8,317.7z"/>
			<g>
				<path class="st6" d="M415.1,308.5c0,0-2.2,5.8-3,9.4c-0.8,3.5-0.8,11.4-0.8,11.4"/>
				<path class="st6" d="M411.3,329.7C411.3,329.7,411.3,329.7,411.3,329.7c-0.3,0-0.5-0.2-0.5-0.5c0-0.3,0.1-8,0.8-11.5
					c0.8-3.5,2.9-9.2,3-9.4c0.1-0.3,0.4-0.4,0.6-0.3c0.3,0.1,0.4,0.4,0.3,0.6c0,0.1-2.2,5.8-3,9.3c-0.7,3.4-0.8,11.2-0.8,11.3
					C411.8,329.5,411.6,329.7,411.3,329.7z"/>
			</g>
		</g>
	</g>
	<g>
		<path class="st6" d="M88.5,407.6c-2.4,0-5.6-1.4-7.3-3.9c-0.2-0.2-0.1-0.5,0.1-0.7c0.2-0.2,0.5-0.1,0.7,0.1c1.9,2.7,6,4.1,7.8,3.3
			c0.2-0.1,0.3-0.2,0.5-0.3c-1.6-0.8-3.1-2.2-3.5-4.5c-0.2-1.3-0.4-3,0.6-3.2c1.4-0.3,3.3,3.1,4,5.8c0.1,0.5,0.2,0.9,0.1,1.3
			c0.6,0.2,1.3,0.2,1.8,0.1c0.4-0.1,1-0.2,1.4-0.7c-1.2-0.8-2-2.3-2.3-4.2c-0.4-2.7-0.1-3.2,0.2-3.4c0.2-0.2,0.4-0.2,0.7-0.1
			c1.1,0.5,2.4,4.3,2.6,6.5c0,0.2,0,0.5,0,0.7c0.4,0.2,0.9,0.3,1.3,0.3c0.9,0,1.7-0.2,2.4-0.6c-0.1-0.1-0.3-0.2-0.4-0.3
			c-1-0.9-1.5-2.3-1.3-4.3c0.1-1.6,0.5-2.4,1.1-2.7c0.2-0.1,0.7-0.2,1.2,0.2c1.1,0.9,2.1,3.6,1.7,5.6c-0.1,0.4-0.3,0.8-0.5,1.2
			c1.8,0.3,4.4-0.2,6.6-0.7c0.3-0.1,0.5,0.1,0.6,0.4c0.1,0.3-0.1,0.5-0.4,0.6c-2.7,0.7-5.6,1.2-7.7,0.6c-0.9,0.7-2.2,1.2-3.5,1.2
			c-0.6,0-1.1-0.1-1.6-0.3c-0.4,0.7-1.1,1.1-2.1,1.3c-0.7,0.1-1.4,0-2.2-0.2c-0.2,0.4-0.6,0.7-1,0.9
			C89.7,407.5,89.2,407.6,88.5,407.6z M87.6,399.4c-0.1,0.2-0.2,0.7,0.1,2c0.3,1.8,1.5,3.1,2.8,3.7c0-0.2,0-0.4-0.1-0.7
			C89.7,401.5,88.2,399.6,87.6,399.4z M93.2,398.5c0,0.4,0,1,0.2,2.1c0.2,1.4,0.7,2.5,1.5,3.2C94.7,401.8,93.8,399.4,93.2,398.5z
			 M99.5,397.6C99.5,397.6,99.5,397.6,99.5,397.6c0,0-0.4,0.2-0.5,1.9c-0.1,1.7,0.2,2.8,0.9,3.5c0.2,0.2,0.4,0.3,0.6,0.4
			c0.3-0.3,0.5-0.7,0.5-1c0.3-1.4-0.4-3.6-1.2-4.4C99.7,397.7,99.5,397.6,99.5,397.6z"/>
		<g>
			<polygon class="st6" points="234.9,415.2 237.6,410.5 234.9,405.8 232,405.8 233.6,410.5 232,415.2 			"/>
			<path class="st6" d="M232.2,412.9c-1.3,0-2.4-1.1-2.4-2.5c0-1.3,1.1-2.4,2.4-2.4l-4.6-0.9l-1.2,3.7l2.1,3.1L232.2,412.9z"/>
			<path class="st7" d="M232.6,405.8h-5.4l-2.7,4.7l2.7,4.7h5.4l2.7-4.7L232.6,405.8z M229.8,412.9c-1.3,0-2.4-1.1-2.4-2.5
				c0-1.3,1.1-2.4,2.4-2.4c1.4,0,2.4,1.1,2.4,2.4C232.3,411.8,231.2,412.9,229.8,412.9z"/>
		</g>
		<g>
			<polygon class="st7" points="423.9,405.5 421.9,402 423.9,398.5 426,398.5 424.8,402 426,405.5 			"/>
			<path class="st7" d="M425.9,403.8c1,0,1.8-0.8,1.8-1.8c0-1-0.8-1.8-1.8-1.8l3.4-0.7l0.9,2.8l-1.5,2.3L425.9,403.8z"/>
			<path class="st6" d="M425.6,398.5h4l2,3.5l-2,3.5h-4l-2-3.5L425.6,398.5z M427.6,403.8c1,0,1.8-0.8,1.8-1.8c0-1-0.8-1.8-1.8-1.8
				c-1,0-1.8,0.8-1.8,1.8C425.8,403,426.6,403.8,427.6,403.8z"/>
		</g>
		<g>
			<path class="st6" d="M415.1,381.5h2.3l1.2,2l-1.2,2h-2.3l-1.2-2L415.1,381.5z M416.2,384.6c0.6,0,1.1-0.5,1.1-1.1
				c0-0.6-0.5-1.1-1.1-1.1c-0.6,0-1.1,0.5-1.1,1.1C415.2,384.1,415.6,384.6,416.2,384.6z"/>
			<polygon class="st7" points="414,385.6 412.9,383.5 414,381.5 415.3,381.5 414.6,383.5 415.3,385.6 			"/>
			<path class="st7" d="M415.2,384.6c0.6,0,1.1-0.5,1.1-1.1c0-0.6-0.5-1.1-1.1-1.1l2-0.4l0.5,1.6l-0.9,1.4L415.2,384.6z"/>
		</g>
		<g>
			<path class="st6" d="M348.9,410.1h4.5c1.2,0,2.1-1,2.1-2.1l0,0c0-1.2-1-2.1-2.1-2.1h-4.5c-1.2,0-2.1,1-2.1,2.1l0,0
				C346.8,409.2,347.8,410.1,348.9,410.1z"/>
			<path class="st7" d="M341.7,406.1c1.1-2.4,3.8-3.4,6-2.4c2.2,1,3.1,3.8,2,6.2c-1.1,2.4-3.8,3.4-6,2.4
				C341.5,411.2,340.6,408.4,341.7,406.1z"/>
			
				<rect x="345.1" y="402.9" transform="matrix(-0.9045 -0.4265 0.4265 -0.9045 484.5044 924.4456)" class="st6" width="1.4" height="10.1"/>
		</g>
	</g>
	<g>
		<path class="st7" d="M247,397.3c-1.1,0-2.1-0.6-2.7-1.6c-2.7-5.2-6.1-11.4-12.2-18c-0.7-0.8-1-1.9-0.7-2.9
			c2.3-7.9,5.8-18.7,5.9-18.8c0.5-1.6,2.2-2.4,3.8-1.9c1.6,0.5,2.4,2.2,1.9,3.8c0,0.1-3.1,9.4-5.3,16.9c5.6,6.4,9.1,12.4,12,18
			c0.8,1.5,0.2,3.3-1.3,4.1C248,397.2,247.5,397.3,247,397.3z"/>
		<polygon class="st6" points="252.1,399.7 228.6,399.7 241,392.7 251.5,393.1 		"/>
		
			<ellipse transform="matrix(0.9545 -0.2983 0.2983 0.9545 -95.585 88.4088)" class="st5" cx="241.8" cy="357.3" rx="20.2" ry="16.8"/>
		<ellipse class="st7" cx="266.1" cy="359.4" rx="39.5" ry="15.8"/>
		<path class="st5" d="M195.8,340.3c-0.9,0-1.8-0.7-2.2-1.9c-0.5-1.5,0.1-3.3,1.3-3.9c1.4-0.7,1.6-2.5,1.6-2.5
			c0.1-1.4,0.9-2.5,1.9-2.7c0.6-0.1,1.1-0.3,1.7-0.6c3.2-1.2,7.2-2.7,19.7,1.8c12.3-8.8,12.5-25.3,12.5-26c0-1.7,1.1-3,2.4-3
			c0,0,0,0,0,0c1.3,0,2.4,1.3,2.4,3c0,0.9-0.1,21.6-15.8,32c-0.5,0.4-1.2,0.4-1.7,0.2c-11.9-4.4-15.3-3.1-17.9-2.1
			c-0.2,0.1-0.5,0.2-0.7,0.3c-0.6,1.9-1.8,4.1-4,5.3C196.4,340.2,196.1,340.3,195.8,340.3z"/>
		<path class="st7" d="M222.8,321.7c-5.7-22.8-21-81.5,27.9-85.1c43.9-3.2,55.9,55.2,58.9,75.5c1.7,11.8,2.3,22.5,2.4,30.9
			c0.1,10.8-7.4,20.1-18,22.2c-23.9,4.9-46.6,5.5-61.8-0.5c-4.1-1.6-6.6-5.8-6.2-10.2C226.6,347.8,226.6,336.6,222.8,321.7z"/>
		<path class="st9" d="M309.6,312c-2.8-19.1-13.6-72.1-51.6-75.4c-4.4-0.4-8.8,1.8-10.8,5.7c-1.7,3.3-1.6,7.3,0.9,11.2
			c8.4,13,28.4,57.9,25.3,82.4c-1.4,11.1-6.9,26-0.8,38.5c7.3-0.6,15.2-2.4,23-4c10.6-2.1,16.6-16.8,16.4-27.6
			C311.9,334.5,311.3,323.8,309.6,312z"/>
		<path class="st6" d="M303.1,343.2c-0.2,0-0.3-0.1-0.3-0.3c-0.1-10.4-0.9-20.8-2.4-30.8c-7.3-50.3-26.9-75.7-56.6-73.5
			c-0.2,0-0.3-0.1-0.3-0.3c0-0.2,0.1-0.3,0.3-0.3c30.1-2.2,50,23.4,57.3,74c1.5,10.1,2.3,20.5,2.4,30.9
			C303.4,343,303.2,343.2,303.1,343.2C303.1,343.2,303.1,343.2,303.1,343.2z"/>
		
			<ellipse transform="matrix(0.9545 -0.2983 0.2983 0.9545 -92.7214 104.3966)" class="st5" cx="295.6" cy="355.9" rx="20.2" ry="16.8"/>
		<path class="st7" d="M300.5,396c-1.1,0-2.1-0.6-2.7-1.6c-2.7-5.2-6.1-11.4-12.2-18c-0.7-0.8-1-1.9-0.7-2.9
			c2.3-7.9,5.8-18.7,5.9-18.8c0.5-1.6,2.2-2.4,3.8-1.9c1.6,0.5,2.4,2.2,1.9,3.8c0,0.1-3.1,9.4-5.3,16.9c5.6,6.4,9.1,12.4,12,18
			c0.8,1.5,0.2,3.3-1.3,4.1C301.4,395.9,300.9,396,300.5,396z"/>
		<path class="st5" d="M298.1,304.2c-1.1,0-2.1-0.6-2.7-1.6c-0.8-1.5-0.2-3.3,1.3-4.1l0,0c0.6-0.3,13.7-7.5,17.4-24.8
			c-8.8-3.7-24.5-11.9-28-16.1c-0.3-0.4-0.6-0.9-0.6-1.4c-0.1-0.5-0.6-4,0.7-7.4l-1.6-3.1c-0.8-1.5-0.2-3.3,1.3-4.1
			c1.5-0.8,3.3-0.2,4.1,1.3l2.3,4.4c0.5,0.9,0.4,2.1-0.1,3c-0.7,1.2-0.8,2.9-0.8,4c3.9,3.5,19.6,11.8,27.2,14.7
			c1.3,0.5,2.2,1.9,1.9,3.3c-3.4,22.1-20.3,31.2-21,31.5C299.1,304.1,298.6,304.2,298.1,304.2z"/>
		<path class="st5" d="M288.5,257.2c-0.3,0-0.6-0.1-0.8-0.2c-0.7-0.5-0.9-1.4-0.4-2.1c0.1-0.2,2.6-3.9,6.4-4.9
			c0.8-0.2,1.6,0.3,1.9,1.1c0.2,0.8-0.3,1.6-1.1,1.8c-2.7,0.7-4.6,3.6-4.7,3.7C289.4,257,289,257.2,288.5,257.2z"/>
		<polygon class="st6" points="305.5,398.4 282.1,398.4 294.5,391.4 304.9,391.8 		"/>
		<g>
			<linearGradient id="SVGID_1_" gradientUnits="userSpaceOnUse" x1="254.2186" y1="297.0108" x2="279.4054" y2="281.6714">
				<stop  offset="0" style="stop-color:#FFFFFF"/>
				<stop  offset="1" style="stop-color:#F40A00"/>
			</linearGradient>
			<path class="st10" d="M275.2,292.6c0.7,8-5.9,15.1-14.8,15.9s-16.6-5-17.3-13c-0.7-8,5.9-15.1,14.8-15.9S274.5,284.6,275.2,292.6
				z"/>
			<ellipse transform="matrix(0.9617 -0.274 0.274 0.9617 -71.188 81.2443)" class="st5" cx="255.2" cy="295.4" rx="4.4" ry="8.1"/>
			<path class="st11" d="M240.8,296.7c10.2-1.3,30.3-7,33.6-9.4c-2.6-7.7-14.8-14.2-25.7-10.5C238.9,280.2,240.8,296.7,240.8,296.7z
				"/>
			<path class="st11" d="M242.8,301.7c12.6-2.4,29-6.4,33.7-9c-0.3,8.2-2.7,16.6-15.6,19.4C250.4,314.3,242.8,301.7,242.8,301.7z"/>
		</g>
		<g>
			
				<ellipse transform="matrix(0.834 -0.5518 0.5518 0.834 -127.6118 174.0744)" class="st12" cx="225.5" cy="299.1" rx="9.9" ry="12.5"/>
			<path class="st5" d="M225.7,299.3c0.8,3.6,0.1,6.6-1.5,6.7c-1.6,0.1-3.5-2.7-4.3-6.3c-0.8-3.6-0.1-6.6,1.5-6.7
				C223,292.9,224.9,295.7,225.7,299.3z"/>
			<path class="st5" d="M213.2,297.9c6.8,0.8,20.4-0.1,22.6-1.3c-1.7-6.5-9.7-13.9-17.1-13C212.1,284.5,213.2,297.9,213.2,297.9z"/>
			<path class="st5" d="M214.4,302.2c8.5,0.4,19.5,0.2,22.7-1c-0.3,6.5-2,12.6-10.7,12.5C219.4,313.6,214.4,302.2,214.4,302.2z"/>
		</g>
		<path class="st5" d="M260.5,271.5c-11.1,0-18.5-5.5-18.9-5.8c-1.2-0.9-1.4-2.5-0.5-3.7c0.9-1.2,2.5-1.4,3.7-0.5
			c0.1,0.1,8.9,6.5,21.1,4.2c1.4-0.3,2.8,0.7,3.1,2.1c0.3,1.4-0.7,2.8-2.1,3.1C264.6,271.3,262.5,271.5,260.5,271.5z"/>
		<path class="st5" d="M210.5,270.7c-0.3,0-0.7-0.1-1-0.2c-1.6-0.6-2.4-2.3-1.8-3.9c1.6-4.5,4.3-7.4,7.9-8.6
			c6.6-2.3,13.7,2.1,14,2.3c1.4,0.9,1.8,2.8,0.9,4.2c-0.9,1.4-2.8,1.8-4.2,0.9c-1.4-0.9-5.6-2.8-8.8-1.7c-1.8,0.6-3.2,2.2-4.2,4.9
			C212.9,269.9,211.8,270.7,210.5,270.7z"/>
		<path class="st5" d="M233,318.6c-0.1,0-0.2,0-0.3,0c-0.5-0.1-0.8-0.6-0.6-1.1c0-0.1,0.6-2,3.1-3.3c3.5-1.8,8.7-1.4,15.7,1.1
			c0.5,0.2,0.7,0.7,0.5,1.2c-0.2,0.5-0.7,0.7-1.2,0.5c-8-2.9-12.1-2.3-14.2-1.2c-1.8,0.9-2.2,2.2-2.2,2.2
			C233.8,318.3,233.4,318.6,233,318.6z"/>
		<g>
			<path class="st13" d="M216.2,351l-10.9,0.6c-1.7,0.1-3.5-1.1-4-2.8l-9.6-29.1c-0.5-1.6,0.4-3,2.1-3.1l10.9-0.6
				c1.7-0.1,3.5,1.1,4,2.8l9.6,29.1C218.8,349.6,217.8,350.9,216.2,351z"/>
			<path class="st14" d="M205.6,336.1c-1.3,0.1-2.6-0.9-3-2.1c-0.4-1.2,0.3-2.3,1.6-2.3c0.4,0,0.8,0.1,1.2,0.2c0,0.1,0,0.2,0,0.2
				c0,1,0.8,1.5,1.7,1.2c0.1,0.1,0.1,0.3,0.2,0.4C207.6,335,206.9,336.1,205.6,336.1z"/>
			<g>
				<path class="st14" d="M199.8,326.1l-4.2,0.2c-0.3,0-0.7-0.2-0.8-0.6l-2.1-6.4c-0.1-0.3,0.1-0.6,0.4-0.6l4.2-0.2
					c0.3,0,0.7,0.2,0.8,0.6l2.1,6.4C200.3,325.8,200.1,326,199.8,326.1z M193.2,319c-0.2,0-0.3,0.1-0.2,0.3l2.1,6.4
					c0.1,0.2,0.2,0.3,0.4,0.3l4.2-0.2c0.2,0,0.3-0.1,0.2-0.3l-2.1-6.4c-0.1-0.2-0.2-0.3-0.4-0.3L193.2,319z"/>
			</g>
			
				<ellipse transform="matrix(0.5788 -0.8155 0.8155 0.5788 -182.0773 296.3052)" class="st15" cx="195.8" cy="324.4" rx="0.8" ry="1.1"/>
			
				<ellipse transform="matrix(0.5788 -0.8155 0.8155 0.5788 -180.9117 298.3011)" class="st12" cx="198.3" cy="324.3" rx="0.8" ry="1.1"/>
			
				<ellipse transform="matrix(0.5788 -0.8155 0.8155 0.5788 -179.2686 295.0158)" class="st16" cx="196" cy="321" rx="1.2" ry="1.6"/>
			
				<ellipse transform="matrix(0.5788 -0.8155 0.8155 0.5788 -182.0773 296.3052)" class="st17" cx="195.8" cy="324.4" rx="0.3" ry="0.4"/>
		</g>
		<path class="st5" d="M196.5,340.3c-1,0-2-0.5-2.5-1.4c-2.2-3.4-0.8-8.5-0.5-9.5c0.5-1.6,2.2-2.5,3.8-2c1.6,0.5,2.5,2.2,2,3.8
			c-0.5,1.7-0.6,3.9-0.2,4.4c0.9,1.4,0.5,3.3-0.9,4.2C197.6,340.1,197.1,340.3,196.5,340.3z"/>
	</g>
</g>
</svg>
