<svg enable-background="new 0 0 512 512" viewBox="0 0 512 512" xmlns="http://www.w3.org/2000/svg" xmlns:xlink="http://www.w3.org/1999/xlink"><clipPath id="a"><path d="m323.6 125.09h23.66v111.58h-23.66z"/></clipPath><clipPath id="b"><path d="m263.92 185.23h40.98v19.08h-40.98z"/></clipPath><clipPath id="c"><path d="m135.95 125.09h-26.26l-30.22 37.93-9.31 13.13v-51.06h-23.66v111.58h23.66v-39.84l10-7.18 29.23 47.02h26.86l-39.23-62.2z"/></clipPath><clipPath id="d"><path d="m150.29 125.09h23.66v111.58h-23.66z"/></clipPath><clipPath id="e"><path d="m275.38 125.09h-84.26v19.69h30.3v91.89h23.66v-91.89h30.3z"/></clipPath><clipPath id="f"><path d="m441.49 124.26v59.23c0 1.79.05 3.7.15 5.72s.28 4.11.53 6.26l-52.59-67.22c-.71-.87-1.34-1.56-1.9-2.07s-1.14-.91-1.75-1.19-1.29-.47-2.05-.58c-.76-.1-1.7-.15-2.81-.15h-13.51v111.94h22.61v-60c0-1.64-.04-3.39-.11-5.26-.08-1.87-.22-3.8-.42-5.8l52.13 66.76c1.31 1.59 2.64 2.7 3.98 3.34s3 .96 4.97.96h13.36v-111.94z"/></clipPath><path d="m325.85 236.67v-111.58h23.66v111.58z" fill="#010101"/><path d="m266.17 204.31v-19.08h40.98v19.08z" fill="#010101"/><path d="m138.5 236.67h-26.86l-29.23-47.01-10 7.17v39.84h-23.66v-111.58h23.66v51.06l9.31-13.13 30.22-37.93h26.25l-38.92 49.38z" fill="#010101"/><path d="m152.54 236.67v-111.58h23.66v111.58z" fill="#010101"/><path d="m247.33 236.67h-23.66v-91.89h-30.3v-19.69h84.25v19.69h-30.3v91.89z" fill="#010101"/><path d="m466.36 124.26v111.94h-13.36c-1.97 0-3.63-.32-4.97-.96s-2.67-1.75-3.98-3.34l-52.13-66.76c.2 2 .34 3.93.42 5.8s.11 3.62.11 5.26v60h-22.61v-111.94h13.51c1.11 0 2.05.05 2.81.15s1.44.3 2.05.58 1.19.68 1.75 1.19 1.19 1.2 1.9 2.07l52.59 67.22c-.25-2.15-.43-4.24-.53-6.26s-.15-3.93-.15-5.72v-59.24h22.59z" fill="#010101"/><path clip-path="url(#a)" d="m323.78 125.09-.18 8.81v-8.81z" fill="#6d499d"/><path clip-path="url(#a)" d="m325.23 125.09-1.63 81.67v-72.86l.18-8.81z" fill="#6e499d"/><path clip-path="url(#a)" d="m326.68 125.09-2.22 111.58h-.86v-29.91l1.63-81.67z" fill="#6e499d"/><path clip-path="url(#a)" d="m328.13 125.09-2.22 111.58h-1.45l2.22-111.58z" fill="#6e499d"/><path clip-path="url(#a)" d="m329.58 125.09-2.22 111.58h-1.45l2.22-111.58z" fill="#6f489d"/><path clip-path="url(#a)" d="m331.03 125.09-2.22 111.58h-1.45l2.22-111.58z" fill="#71479c"/><path clip-path="url(#a)" d="m332.48 125.09-2.22 111.58h-1.45l2.22-111.58z" fill="#72479c"/><path clip-path="url(#a)" d="m333.93 125.09-2.22 111.58h-1.45l2.22-111.58z" fill="#73469c"/><path clip-path="url(#a)" d="m335.38 125.09-2.22 111.58h-1.45l2.22-111.58z" fill="#73469c"/><path clip-path="url(#a)" d="m336.84 125.09-2.23 111.58h-1.45l2.22-111.58z" fill="#74469b"/><path clip-path="url(#a)" d="m338.29 125.09-2.23 111.58h-1.45l2.23-111.58z" fill="#75469b"/><path clip-path="url(#a)" d="m339.74 125.09-2.22 111.58h-1.46l2.23-111.58z" fill="#76459b"/><path clip-path="url(#a)" d="m341.19 125.09-2.22 111.58h-1.45l2.22-111.58z" fill="#77459b"/><path clip-path="url(#a)" d="m342.64 125.09-2.22 111.58h-1.45l2.22-111.58z" fill="#78449a"/><path clip-path="url(#a)" d="m344.09 125.09-2.22 111.58h-1.45l2.22-111.58z" fill="#79449a"/><path clip-path="url(#a)" d="m345.54 125.09-2.22 111.58h-1.45l2.22-111.58z" fill="#7a439a"/><path clip-path="url(#a)" d="m346.99 125.09-2.22 111.58h-1.45l2.22-111.58z" fill="#7b439a"/><path clip-path="url(#a)" d="m347.26 184.39-1.04 52.28h-1.45l2.22-111.58h.27z" fill="#7c439a"/><path clip-path="url(#a)" d="m346.22 236.67 1.04-52.28v52.28z" fill="#7c4299"/><path clip-path="url(#b)" d="m264.55 185.23-.38 19.08h-.25v-19.08z" fill="#5254a4"/><path clip-path="url(#b)" d="m266 185.23-.38 19.08h-1.45l.38-19.08z" fill="#5254a4"/><path clip-path="url(#b)" d="m267.45 185.23-.38 19.08h-1.45l.38-19.08z" fill="#5353a4"/><path clip-path="url(#b)" d="m268.9 185.23-.38 19.08h-1.45l.38-19.08z" fill="#5453a3"/><path clip-path="url(#b)" d="m270.35 185.23-.38 19.08h-1.45l.38-19.08z" fill="#5553a3"/><path clip-path="url(#b)" d="m271.8 185.23-.38 19.08h-1.45l.38-19.08z" fill="#5553a3"/><path clip-path="url(#b)" d="m273.25 185.23-.38 19.08h-1.45l.38-19.08z" fill="#5652a3"/><path clip-path="url(#b)" d="m274.7 185.23-.38 19.08h-1.45l.38-19.08z" fill="#5752a3"/><path clip-path="url(#b)" d="m276.15 185.23-.38 19.08h-1.45l.38-19.08z" fill="#5752a3"/><path clip-path="url(#b)" d="m277.6 185.23-.37 19.08h-1.46l.38-19.08z" fill="#5752a3"/><path clip-path="url(#b)" d="m279.06 185.23-.38 19.08h-1.45l.37-19.08z" fill="#5752a3"/><path clip-path="url(#b)" d="m280.51 185.23-.38 19.08h-1.45l.38-19.08z" fill="#5852a3"/><path clip-path="url(#b)" d="m281.96 185.23-.38 19.08h-1.45l.38-19.08z" fill="#5951a2"/><path clip-path="url(#b)" d="m283.41 185.23-.38 19.08h-1.45l.38-19.08z" fill="#5a51a2"/><path clip-path="url(#b)" d="m284.86 185.23-.38 19.08h-1.45l.38-19.08z" fill="#5a51a2"/><path clip-path="url(#b)" d="m286.31 185.23-.38 19.08h-1.45l.38-19.08z" fill="#5b50a2"/><path clip-path="url(#b)" d="m287.76 185.23-.38 19.08h-1.45l.38-19.08z" fill="#5b50a2"/><path clip-path="url(#b)" d="m289.21 185.23-.38 19.08h-1.45l.38-19.08z" fill="#5c50a2"/><path clip-path="url(#b)" d="m290.66 185.23-.38 19.08h-1.45l.38-19.08z" fill="#5c50a1"/><path clip-path="url(#b)" d="m292.11 185.23-.38 19.08h-1.45l.38-19.08z" fill="#5d4fa1"/><path clip-path="url(#b)" d="m293.56 185.23-.38 19.08h-1.45l.38-19.08z" fill="#5d4fa1"/><path clip-path="url(#b)" d="m295.01 185.23-.38 19.08h-1.45l.38-19.08z" fill="#5e4fa1"/><path clip-path="url(#b)" d="m296.47 185.23-.38 19.08h-1.46l.38-19.08z" fill="#5f4ea1"/><path clip-path="url(#b)" d="m297.92 185.23-.38 19.08h-1.45l.38-19.08z" fill="#604fa1"/><path clip-path="url(#b)" d="m299.37 185.23-.38 19.08h-1.45l.38-19.08z" fill="#604ea0"/><path clip-path="url(#b)" d="m300.82 185.23-.38 19.08h-1.45l.38-19.08z" fill="#614ea0"/><path clip-path="url(#b)" d="m302.27 185.23-.38 19.08h-1.45l.38-19.08z" fill="#624da0"/><path clip-path="url(#b)" d="m303.72 185.23-.38 19.08h-1.45l.38-19.08z" fill="#624da0"/><path clip-path="url(#b)" d="m304.9 198.6-.11 5.71h-1.45l.38-19.08h1.18z" fill="#634da0"/><path clip-path="url(#b)" d="m304.79 204.31.11-5.71v5.71z" fill="#644da0"/><path clip-path="url(#c)" d="m47.84 125.09-1.34 67.12v-67.12z" fill="#16b5c5"/><path clip-path="url(#c)" d="m49.27 125.09-2.22 111.58h-.55v-44.46l1.34-67.12z" fill="#16b5c5"/><path clip-path="url(#c)" d="m50.7 125.09-2.22 111.58h-1.43l2.22-111.58z" fill="#18b4c6"/><path clip-path="url(#c)" d="m52.13 125.09-2.22 111.58h-1.43l2.22-111.58z" fill="#14b3c6"/><path clip-path="url(#c)" d="m53.56 125.09-2.22 111.58h-1.43l2.22-111.58z" fill="#14b3c7"/><path clip-path="url(#c)" d="m55 125.09-2.23 111.58h-1.43l2.22-111.58z" fill="#16b2c8"/><path clip-path="url(#c)" d="m56.43 125.09-2.22 111.58h-1.44l2.23-111.58z" fill="#11b1c8"/><path clip-path="url(#c)" d="m57.86 125.09-2.22 111.58h-1.43l2.22-111.58z" fill="#14b0c8"/><path clip-path="url(#c)" d="m59.29 125.09-2.22 111.58h-1.43l2.22-111.58z" fill="#17afc9"/><path clip-path="url(#c)" d="m60.72 125.09-2.22 111.58h-1.43l2.22-111.58z" fill="#1aaec9"/><path clip-path="url(#c)" d="m62.15 125.09-2.22 111.58h-1.43l2.22-111.58z" fill="#1cadc8"/><path clip-path="url(#c)" d="m63.58 125.09-2.22 111.58h-1.43l2.22-111.58z" fill="#17acca"/><path clip-path="url(#c)" d="m65.02 125.09-2.23 111.58h-1.43l2.22-111.58z" fill="#14abca"/><path clip-path="url(#c)" d="m66.45 125.09-2.22 111.58h-1.44l2.23-111.58z" fill="#15aacb"/><path clip-path="url(#c)" d="m67.88 125.09-2.22 111.58h-1.43l2.22-111.58z" fill="#0fa9cc"/><path clip-path="url(#c)" d="m69.31 125.09-2.22 111.58h-1.43l2.22-111.58z" fill="#13a8cb"/><path clip-path="url(#c)" d="m70.74 125.09-2.22 111.58h-1.43l2.22-111.58z" fill="#15a7cc"/><path clip-path="url(#c)" d="m72.17 125.09-2.22 111.58h-1.43l2.22-111.58z" fill="#18a6cc"/><path clip-path="url(#c)" d="m73.61 125.09-2.23 111.58h-1.43l2.22-111.58z" fill="#18a5cd"/><path clip-path="url(#c)" d="m75.04 125.09-2.22 111.58h-1.44l2.23-111.58z" fill="#15a4ce"/><path clip-path="url(#c)" d="m76.47 125.09-2.22 111.58h-1.43l2.22-111.58z" fill="#17a3ce"/><path clip-path="url(#c)" d="m77.9 125.09-2.22 111.58h-1.43l2.22-111.58z" fill="#19a2ce"/><path clip-path="url(#c)" d="m79.33 125.09-2.22 111.58h-1.43l2.22-111.58z" fill="#1ba1ce"/><path clip-path="url(#c)" d="m80.76 125.09-2.22 111.58h-1.43l2.22-111.58z" fill="#1aa0ce"/><path clip-path="url(#c)" d="m82.2 125.09-2.23 111.58h-1.43l2.22-111.58z" fill="#1b9fcf"/><path clip-path="url(#c)" d="m83.63 125.09-2.22 111.58h-1.44l2.23-111.58z" fill="#1c9ecf"/><path clip-path="url(#c)" d="m85.06 125.09-2.22 111.58h-1.43l2.22-111.58z" fill="#1c9dd1"/><path clip-path="url(#c)" d="m86.49 125.09-2.22 111.58h-1.43l2.22-111.58z" fill="#1e9cd0"/><path clip-path="url(#c)" d="m87.92 125.09-2.22 111.58h-1.43l2.22-111.58z" fill="#209bd0"/><path clip-path="url(#c)" d="m89.35 125.09-2.22 111.58h-1.43l2.22-111.58z" fill="#1c9ad2"/><path clip-path="url(#c)" d="m90.78 125.09-2.22 111.58h-1.43l2.22-111.58z" fill="#1a99d2"/><path clip-path="url(#c)" d="m92.22 125.09-2.23 111.58h-1.43l2.22-111.58z" fill="#1b98d2"/><path clip-path="url(#c)" d="m93.65 125.09-2.22 111.58h-1.44l2.23-111.58z" fill="#1d97d2"/><path clip-path="url(#c)" d="m95.08 125.09-2.22 111.58h-1.43l2.22-111.58z" fill="#1f96d2"/><path clip-path="url(#c)" d="m96.51 125.09-2.22 111.58h-1.43l2.22-111.58z" fill="#2095d3"/><path clip-path="url(#c)" d="m97.94 125.09-2.22 111.58h-1.43l2.22-111.58z" fill="#2394d2"/><path clip-path="url(#c)" d="m99.37 125.09-2.22 111.58h-1.43l2.22-111.58z" fill="#2593d1"/><path clip-path="url(#c)" d="m100.81 125.09-2.23 111.58h-1.43l2.22-111.58z" fill="#2792d0"/><path clip-path="url(#c)" d="m102.24 125.09-2.22 111.58h-1.44l2.23-111.58z" fill="#2791cf"/><path clip-path="url(#c)" d="m103.67 125.09-2.22 111.58h-1.43l2.22-111.58z" fill="#2990cf"/><path clip-path="url(#c)" d="m105.1 125.09-2.22 111.58h-1.43l2.22-111.58z" fill="#2b8fce"/><path clip-path="url(#c)" d="m106.53 125.09-2.22 111.58h-1.43l2.22-111.58z" fill="#2c8ecd"/><path clip-path="url(#c)" d="m107.96 125.09-2.22 111.58h-1.43l2.22-111.58z" fill="#2f8ccc"/><path clip-path="url(#c)" d="m109.4 125.09-2.23 111.58h-1.43l2.22-111.58z" fill="#2e8bcb"/><path clip-path="url(#c)" d="m110.83 125.09-2.22 111.58h-1.44l2.23-111.58z" fill="#308aca"/><path clip-path="url(#c)" d="m112.26 125.09-2.22 111.58h-1.43l2.22-111.58z" fill="#3288c9"/><path clip-path="url(#c)" d="m113.69 125.09-2.22 111.58h-1.43l2.22-111.58z" fill="#3287c8"/><path clip-path="url(#c)" d="m115.12 125.09-2.22 111.58h-1.43l2.22-111.58z" fill="#3386c7"/><path clip-path="url(#c)" d="m116.55 125.09-2.22 111.58h-1.43l2.22-111.58z" fill="#3585c6"/><path clip-path="url(#c)" d="m117.98 125.09-2.22 111.58h-1.43l2.22-111.58z" fill="#3583c5"/><path clip-path="url(#c)" d="m119.42 125.09-2.23 111.58h-1.43l2.22-111.58z" fill="#3882c4"/><path clip-path="url(#c)" d="m120.85 125.09-2.22 111.58h-1.44l2.23-111.58z" fill="#3981c4"/><path clip-path="url(#c)" d="m122.28 125.09-2.22 111.58h-1.43l2.22-111.58z" fill="#3980c2"/><path clip-path="url(#c)" d="m123.71 125.09-2.22 111.58h-1.43l2.22-111.58z" fill="#3a7fc2"/><path clip-path="url(#c)" d="m125.14 125.09-2.22 111.58h-1.43l2.22-111.58z" fill="#3b7ec1"/><path clip-path="url(#c)" d="m126.57 125.09-2.22 111.58h-1.43l2.22-111.58z" fill="#3c7dc0"/><path clip-path="url(#c)" d="m128.01 125.09-2.23 111.58h-1.43l2.22-111.58z" fill="#3c7cbf"/><path clip-path="url(#c)" d="m129.44 125.09-2.22 111.58h-1.44l2.23-111.58z" fill="#3d7bbe"/><path clip-path="url(#c)" d="m130.87 125.09-2.22 111.58h-1.43l2.22-111.58z" fill="#3e7abe"/><path clip-path="url(#c)" d="m132.3 125.09-2.22 111.58h-1.43l2.22-111.58z" fill="#3d79bd"/><path clip-path="url(#c)" d="m133.73 125.09-2.22 111.58h-1.43l2.22-111.58z" fill="#4078bc"/><path clip-path="url(#c)" d="m135.16 125.09-2.22 111.58h-1.43l2.22-111.58z" fill="#4177bb"/><path clip-path="url(#c)" d="m136.25 142.38-1.88 94.29h-1.43l2.22-111.58h1.09z" fill="#4176bb"/><path clip-path="url(#c)" d="m136.25 214.28-.44 22.39h-1.44l1.88-94.29z" fill="#4075ba"/><path clip-path="url(#c)" d="m135.81 236.67.44-22.39v22.39z" fill="#4174ba"/><path clip-path="url(#d)" d="m150.91 125.09-.62 31.02v-31.02z" fill="#436db5"/><path clip-path="url(#d)" d="m152.34 125.09-2.05 102.92v-71.9l.62-31.02z" fill="#426cb4"/><path clip-path="url(#d)" d="m153.77 125.09-2.22 111.58h-1.26v-8.66l2.05-102.92z" fill="#436cb4"/><path clip-path="url(#d)" d="m155.21 125.09-2.23 111.58h-1.43l2.22-111.58z" fill="#436bb3"/><path clip-path="url(#d)" d="m156.64 125.09-2.22 111.58h-1.44l2.23-111.58z" fill="#446ab3"/><path clip-path="url(#d)" d="m158.07 125.09-2.22 111.58h-1.43l2.22-111.58z" fill="#4469b2"/><path clip-path="url(#d)" d="m159.5 125.09-2.22 111.58h-1.43l2.22-111.58z" fill="#4569b2"/><path clip-path="url(#d)" d="m160.93 125.09-2.22 111.58h-1.43l2.22-111.58z" fill="#4468b1"/><path clip-path="url(#d)" d="m162.36 125.09-2.22 111.58h-1.43l2.22-111.58z" fill="#4468b1"/><path clip-path="url(#d)" d="m163.8 125.09-2.23 111.58h-1.43l2.22-111.58z" fill="#4567b0"/><path clip-path="url(#d)" d="m165.23 125.09-2.22 111.58h-1.44l2.23-111.58z" fill="#4566b0"/><path clip-path="url(#d)" d="m166.66 125.09-2.22 111.58h-1.43l2.22-111.58z" fill="#4666b0"/><path clip-path="url(#d)" d="m168.09 125.09-2.22 111.58h-1.43l2.22-111.58z" fill="#4565af"/><path clip-path="url(#d)" d="m169.52 125.09-2.22 111.58h-1.43l2.22-111.58z" fill="#4565af"/><path clip-path="url(#d)" d="m170.95 125.09-2.22 111.58h-1.43l2.22-111.58z" fill="#4764af"/><path clip-path="url(#d)" d="m172.38 125.09-2.22 111.58h-1.43l2.22-111.58z" fill="#4764ae"/><path clip-path="url(#d)" d="m173.82 125.09-2.23 111.58h-1.43l2.22-111.58z" fill="#4663ae"/><path clip-path="url(#d)" d="m173.95 190.17-.92 46.5h-1.44l2.23-111.58h.13z" fill="#4763ae"/><path clip-path="url(#d)" d="m173.03 236.67.92-46.5v46.5z" fill="#4662ad"/><path clip-path="url(#e)" d="m192.43 125.09-1.31 65.46v-65.46z" fill="#485eab"/><path clip-path="url(#e)" d="m193.86 125.09-2.22 111.58h-.52v-46.12l1.31-65.46z" fill="#485daa"/><path clip-path="url(#e)" d="m195.29 125.09-2.22 111.58h-1.43l2.22-111.58z" fill="#485daa"/><path clip-path="url(#e)" d="m196.72 125.09-2.22 111.58h-1.43l2.22-111.58z" fill="#485daa"/><path clip-path="url(#e)" d="m198.15 125.09-2.22 111.58h-1.43l2.22-111.58z" fill="#485daa"/><path clip-path="url(#e)" d="m199.58 125.09-2.22 111.58h-1.43l2.22-111.58z" fill="#485caa"/><path clip-path="url(#e)" d="m201.02 125.09-2.23 111.58h-1.43l2.22-111.58z" fill="#485caa"/><path clip-path="url(#e)" d="m202.45 125.09-2.22 111.58h-1.44l2.23-111.58z" fill="#495ca9"/><path clip-path="url(#e)" d="m203.88 125.09-2.22 111.58h-1.43l2.22-111.58z" fill="#495ca9"/><path clip-path="url(#e)" d="m205.31 125.09-2.22 111.58h-1.43l2.22-111.58z" fill="#495ba9"/><path clip-path="url(#e)" d="m206.74 125.09-2.22 111.58h-1.43l2.22-111.58z" fill="#495ba9"/><path clip-path="url(#e)" d="m208.17 125.09-2.22 111.58h-1.43l2.22-111.58z" fill="#495ba9"/><path clip-path="url(#e)" d="m209.61 125.09-2.23 111.58h-1.43l2.22-111.58z" fill="#4a5aa8"/><path clip-path="url(#e)" d="m211.04 125.09-2.22 111.58h-1.44l2.23-111.58z" fill="#4a5aa8"/><path clip-path="url(#e)" d="m212.47 125.09-2.22 111.58h-1.43l2.22-111.58z" fill="#4a5aa8"/><path clip-path="url(#e)" d="m213.9 125.09-2.22 111.58h-1.43l2.22-111.58z" fill="#4a5aa8"/><path clip-path="url(#e)" d="m215.33 125.09-2.22 111.58h-1.43l2.22-111.58z" fill="#4a5aa8"/><path clip-path="url(#e)" d="m216.76 125.09-2.22 111.58h-1.43l2.22-111.58z" fill="#4a59a7"/><path clip-path="url(#e)" d="m218.2 125.09-2.23 111.58h-1.43l2.22-111.58z" fill="#4a59a7"/><path clip-path="url(#e)" d="m219.63 125.09-2.22 111.58h-1.44l2.23-111.58z" fill="#4a59a7"/><path clip-path="url(#e)" d="m221.06 125.09-2.22 111.58h-1.43l2.22-111.58z" fill="#4a59a7"/><path clip-path="url(#e)" d="m222.49 125.09-2.22 111.58h-1.43l2.22-111.58z" fill="#4a59a7"/><path clip-path="url(#e)" d="m223.92 125.09-2.22 111.58h-1.43l2.22-111.58z" fill="#4b58a7"/><path clip-path="url(#e)" d="m225.35 125.09-2.22 111.58h-1.43l2.22-111.58z" fill="#4b58a7"/><g fill="#4b57a6"><path clip-path="url(#e)" d="m226.78 125.09-2.22 111.58h-1.43l2.22-111.58z"/><path clip-path="url(#e)" d="m228.22 125.09-2.23 111.58h-1.43l2.22-111.58z"/><path clip-path="url(#e)" d="m229.65 125.09-2.22 111.58h-1.44l2.23-111.58z"/><path clip-path="url(#e)" d="m231.08 125.09-2.22 111.58h-1.43l2.22-111.58z"/><path clip-path="url(#e)" d="m232.51 125.09-2.22 111.58h-1.43l2.22-111.58z"/><path clip-path="url(#e)" d="m233.94 125.09-2.22 111.58h-1.43l2.22-111.58z"/><path clip-path="url(#e)" d="m235.37 125.09-2.22 111.58h-1.43l2.22-111.58z"/><path clip-path="url(#e)" d="m236.81 125.09-2.23 111.58h-1.43l2.22-111.58z"/><path clip-path="url(#e)" d="m238.24 125.09-2.22 111.58h-1.44l2.23-111.58z"/></g><path clip-path="url(#e)" d="m239.67 125.09-2.22 111.58h-1.43l2.22-111.58z" fill="#4a57a6"/><path clip-path="url(#e)" d="m241.1 125.09-2.22 111.58h-1.43l2.22-111.58z" fill="#4a57a6"/><path clip-path="url(#e)" d="m242.53 125.09-2.22 111.58h-1.43l2.22-111.58z" fill="#4a57a6"/><path clip-path="url(#e)" d="m243.98 125.09-2.22 111.58h-1.45l2.22-111.58z" fill="#4a57a6"/><path clip-path="url(#e)" d="m245.43 125.09-2.22 111.58h-1.45l2.22-111.58z" fill="#4b56a6"/><path clip-path="url(#e)" d="m246.88 125.09-2.22 111.58h-1.45l2.22-111.58z" fill="#4c56a6"/><path clip-path="url(#e)" d="m248.34 125.09-2.23 111.58h-1.45l2.22-111.58z" fill="#4c56a6"/><path clip-path="url(#e)" d="m249.79 125.09-2.23 111.58h-1.45l2.23-111.58z" fill="#4c56a5"/><path clip-path="url(#e)" d="m251.24 125.09-2.22 111.58h-1.46l2.23-111.58z" fill="#4c56a5"/><path clip-path="url(#e)" d="m252.69 125.09-2.22 111.58h-1.45l2.22-111.58z" fill="#4d55a5"/><path clip-path="url(#e)" d="m254.14 125.09-2.22 111.58h-1.45l2.22-111.58z" fill="#4e55a5"/><path clip-path="url(#e)" d="m255.59 125.09-2.22 111.58h-1.45l2.22-111.58z" fill="#4f55a5"/><path clip-path="url(#e)" d="m257.04 125.09-2.22 111.58h-1.45l2.22-111.58z" fill="#4f55a5"/><path clip-path="url(#e)" d="m258.49 125.09-2.22 111.58h-1.45l2.22-111.58z" fill="#4f55a5"/><path clip-path="url(#e)" d="m259.94 125.09-2.22 111.58h-1.45l2.22-111.58z" fill="#4f55a5"/><path clip-path="url(#e)" d="m261.39 125.09-2.22 111.58h-1.45l2.22-111.58z" fill="#5154a4"/><path clip-path="url(#e)" d="m262.84 125.09-2.22 111.58h-1.45l2.22-111.58z" fill="#5154a4"/><path clip-path="url(#e)" d="m264.29 125.09-2.22 111.58h-1.45l2.22-111.58z" fill="#5154a4"/><path clip-path="url(#e)" d="m265.75 125.09-2.23 111.58h-1.45l2.22-111.58z" fill="#5254a4"/><path clip-path="url(#e)" d="m267.2 125.09-2.23 111.58h-1.45l2.23-111.58z" fill="#5254a4"/><path clip-path="url(#e)" d="m268.65 125.09-2.22 111.58h-1.46l2.23-111.58z" fill="#5353a4"/><path clip-path="url(#e)" d="m270.1 125.09-2.22 111.58h-1.45l2.22-111.58z" fill="#5453a3"/><path clip-path="url(#e)" d="m271.55 125.09-2.22 111.58h-1.45l2.22-111.58z" fill="#5553a3"/><path clip-path="url(#e)" d="m273 125.09-2.22 111.58h-1.45l2.22-111.58z" fill="#5553a3"/><path clip-path="url(#e)" d="m274.45 125.09-2.22 111.58h-1.45l2.22-111.58z" fill="#5652a3"/><path clip-path="url(#e)" d="m275.38 151.33-1.7 85.34h-1.45l2.22-111.58h.93z" fill="#5752a3"/><path clip-path="url(#e)" d="m275.38 224.19-.25 12.48h-1.45l1.7-85.34z" fill="#5752a3"/><path clip-path="url(#e)" d="m275.13 236.67.25-12.48v12.48z" fill="#5752a3"/><path clip-path="url(#f)" d="m368.77 124.26-1.19 59.7v-59.7z" fill="#8b3b96"/><path clip-path="url(#f)" d="m370.22 124.26-2.23 111.94h-.41v-52.24l1.19-59.7z" fill="#8c3b96"/><path clip-path="url(#f)" d="m371.67 124.26-2.23 111.94h-1.45l2.23-111.94z" fill="#8d3b96"/><path clip-path="url(#f)" d="m373.12 124.26-2.23 111.94h-1.45l2.23-111.94z" fill="#8f3a96"/><path clip-path="url(#f)" d="m375.57 124.26-2.23 111.94h-2.45l2.23-111.94z" fill="#8f3a96"/><path clip-path="url(#f)" d="m378.01 124.26-2.23 111.94h-2.44l2.23-111.94z" fill="#8e3b96"/><path clip-path="url(#f)" d="m380.45 124.26-2.23 111.94h-2.44l2.23-111.94z" fill="#8e3b96"/><path clip-path="url(#f)" d="m382.9 124.26-2.23 111.94h-2.45l2.23-111.94z" fill="#8c3c97"/><path clip-path="url(#f)" d="m385.34 124.26-2.23 111.94h-2.44l2.23-111.94z" fill="#8c3d97"/><path clip-path="url(#f)" d="m387.78 124.26-2.22 111.94h-2.45l2.23-111.94z" fill="#8c3e97"/><path clip-path="url(#f)" d="m390.23 124.26-2.23 111.94h-2.44l2.22-111.94z" fill="#8c3f98"/><path clip-path="url(#f)" d="m392.67 124.26-2.23 111.94h-2.44l2.23-111.94z" fill="#8b4098"/><path clip-path="url(#f)" d="m395.12 124.26-2.23 111.94h-2.45l2.23-111.94z" fill="#8b4098"/><path clip-path="url(#f)" d="m397.56 124.26-2.23 111.94h-2.44l2.23-111.94z" fill="#8a4199"/><path clip-path="url(#f)" d="m400 124.26-2.23 111.94h-2.44l2.23-111.94z" fill="#8a4299"/><path clip-path="url(#f)" d="m402.45 124.26-2.23 111.94h-2.45l2.23-111.94z" fill="#894399"/><path clip-path="url(#f)" d="m404.89 124.26-2.23 111.94h-2.44l2.23-111.94z" fill="#88439a"/><path clip-path="url(#f)" d="m407.33 124.26-2.22 111.94h-2.45l2.23-111.94z" fill="#88449a"/><path clip-path="url(#f)" d="m409.78 124.26-2.23 111.94h-2.44l2.22-111.94z" fill="#88459a"/><path clip-path="url(#f)" d="m412.22 124.26-2.23 111.94h-2.44l2.23-111.94z" fill="#87469b"/><path clip-path="url(#f)" d="m414.67 124.26-2.23 111.94h-2.45l2.23-111.94z" fill="#87469b"/><path clip-path="url(#f)" d="m417.11 124.26-2.23 111.94h-2.44l2.23-111.94z" fill="#87469b"/><path clip-path="url(#f)" d="m419.55 124.26-2.23 111.94h-2.44l2.23-111.94z" fill="#87479c"/><path clip-path="url(#f)" d="m422 124.26-2.23 111.94h-2.45l2.23-111.94z" fill="#87489c"/><path clip-path="url(#f)" d="m424.44 124.26-2.23 111.94h-2.44l2.23-111.94z" fill="#86499c"/><path clip-path="url(#f)" d="m426.88 124.26-2.22 111.94h-2.45l2.23-111.94z" fill="#86499c"/><path clip-path="url(#f)" d="m429.33 124.26-2.23 111.94h-2.44l2.22-111.94z" fill="#86499d"/><path clip-path="url(#f)" d="m431.77 124.26-2.23 111.94h-2.44l2.23-111.94z" fill="#86499d"/><path clip-path="url(#f)" d="m434.22 124.26-2.23 111.94h-2.45l2.23-111.94z" fill="#864b9d"/><path clip-path="url(#f)" d="m436.66 124.26-2.23 111.94h-2.44l2.23-111.94z" fill="#864c9e"/><path clip-path="url(#f)" d="m439.1 124.26-2.23 111.94h-2.44l2.23-111.94z" fill="#854c9e"/><path clip-path="url(#f)" d="m441.55 124.26-2.23 111.94h-2.45l2.23-111.94z" fill="#854d9e"/><path clip-path="url(#f)" d="m443.99 124.26-2.23 111.94h-2.44l2.23-111.94z" fill="#844e9f"/><path clip-path="url(#f)" d="m446.44 124.26-2.23 111.94h-2.45l2.23-111.94z" fill="#844e9f"/><path clip-path="url(#f)" d="m448.88 124.26-2.23 111.94h-2.44l2.23-111.94z" fill="#844f9f"/><path clip-path="url(#f)" d="m451.32 124.26-2.23 111.94h-2.44l2.23-111.94z" fill="#8350a0"/><path clip-path="url(#f)" d="m453.77 124.26-2.23 111.94h-2.45l2.23-111.94z" fill="#8350a0"/><path clip-path="url(#f)" d="m456.21 124.26-2.23 111.94h-2.44l2.23-111.94z" fill="#8351a1"/><path clip-path="url(#f)" d="m458.65 124.26-2.22 111.94h-2.45l2.23-111.94z" fill="#8351a1"/><path clip-path="url(#f)" d="m461.1 124.26-2.23 111.94h-2.44l2.22-111.94z" fill="#8252a1"/><path clip-path="url(#f)" d="m463.54 124.26-2.23 111.94h-2.44l2.23-111.94z" fill="#8253a2"/><path clip-path="url(#f)" d="m464.11 218.51-.35 17.69h-2.45l2.23-111.94h.57z" fill="#8154a2"/><path clip-path="url(#f)" d="m463.76 236.2.35-17.69v17.69z" fill="#8154a2"/><path d="m47.28 387.57h288.05l28.74-132.27h-288.05z" fill="#010101"/><path d="m429.34 387.85h9.33l27.85-131.99h-9.33z" fill="#010101"/><path d="m413.27 387.85h9.34l27.85-131.99h-9.34z" fill="#010101"/><path d="m396.67 387.85h9.34l27.85-131.99h-9.34z" fill="#010101"/><path d="m379.25 387.85h9.33l27.85-131.99h-9.33z" fill="#010101"/><path d="m361.7 387.85h9.34l27.85-131.99h-9.34z" fill="#010101"/><path d="m343.75 387.85h9.33l27.85-131.99h-9.33z" fill="#010101"/><path d="m46.34 387.57h288.05l28.74-132.27h-288.06z" fill="#7d5ca7"/><path d="m428.4 387.85h9.33l27.85-131.99h-9.33z" fill="#e63145"/><path d="m412.33 387.85h9.33l27.85-131.99h-9.33z" fill="#f48220"/><path d="m395.73 387.85h9.33l27.85-131.99h-9.33z" fill="#f9ed25"/><path d="m378.3 387.85h9.34l27.85-131.99h-9.34z" fill="#b8ce33"/><path d="m360.76 387.85h9.33l27.85-131.99h-9.33z" fill="#16b7bb"/><path d="m342.8 387.85h9.33l27.85-131.99h-9.33z" fill="#2d78be"/><path d="m150.38 364.8-4.11-25.08h-34.31l-13.62 25.08h-15.47l51.12-90.7h15.96l16.02 90.7zm-5.51-37.81-3.65-24.59c-.3-1.65-.64-4.24-1.04-7.79-.4-3.54-.65-6.14-.73-7.78-2.08 5.07-4.77 10.61-8.06 16.62l-12.66 23.54z" fill="#010101"/><path d="m249.41 301.78c-1.82 9.43-6.29 16.66-13.4 21.69s-16.33 7.53-27.66 7.53h-9.33l-6.54 33.79h-14.67l17.47-90.32h25.84c11.21 0 19.16 2.31 23.86 6.92s6.17 11.41 4.43 20.39zm-47.99 16.8h7.79c7.53 0 13.31-1.32 17.34-3.95s6.59-6.75 7.67-12.36c1-5.19.18-9.06-2.48-11.62-2.66-2.55-7.32-3.83-13.99-3.83h-10.19z" fill="#010101"/><path d="m326.75 301.78c-1.82 9.43-6.29 16.66-13.4 21.69-7.11 5.02-16.33 7.54-27.66 7.54h-9.33l-6.54 33.79h-14.67l17.47-90.32h25.84c11.21 0 19.17 2.31 23.86 6.92 4.69 4.6 6.16 11.4 4.43 20.38zm-47.99 16.8h7.79c7.52 0 13.3-1.32 17.33-3.95s6.59-6.75 7.67-12.36c1-5.19.18-9.06-2.48-11.62-2.66-2.55-7.32-3.83-13.99-3.83h-10.18z" fill="#010101"/><path d="m149.15 364.64-4.11-25.08h-34.31l-13.63 25.08h-15.46l51.12-90.7h15.96l16.03 90.7zm-5.51-37.81-3.65-24.59c-.3-1.65-.64-4.24-1.04-7.79-.4-3.54-.65-6.14-.73-7.78-2.09 5.07-4.77 10.61-8.07 16.62l-12.65 23.54z" fill="#fff"/><path d="m248.19 301.62c-1.83 9.43-6.29 16.66-13.4 21.69s-16.33 7.54-27.67 7.54h-9.33l-6.54 33.79h-14.67l17.47-90.32h25.84c11.21 0 19.16 2.31 23.86 6.92s6.17 11.41 4.44 20.38zm-48 16.81h7.8c7.53 0 13.31-1.32 17.33-3.95 4.03-2.64 6.59-6.75 7.67-12.36 1-5.19.18-9.06-2.48-11.61-2.66-2.56-7.32-3.83-13.99-3.83h-10.19z" fill="#fff"/><path d="m325.52 301.62c-1.83 9.43-6.29 16.66-13.4 21.69s-16.33 7.54-27.67 7.54h-9.33l-6.54 33.79h-14.67l17.47-90.32h25.84c11.21 0 19.16 2.31 23.86 6.92s6.17 11.41 4.44 20.38zm-48 16.81h7.8c7.53 0 13.31-1.32 17.33-3.95 4.03-2.64 6.59-6.75 7.67-12.36 1-5.19.18-9.06-2.48-11.61-2.66-2.56-7.32-3.83-13.99-3.83h-10.19z" fill="#fff"/></svg>