<svg enable-background="new 0 0 512 512" viewBox="0 0 512 512" xmlns="http://www.w3.org/2000/svg" xmlns:xlink="http://www.w3.org/1999/xlink"><defs><clipPath id="a"><path d="m0 0h512v512h-512z"/></clipPath><clipPath id="b"></clipPath><clipPath id="c"></clipPath><linearGradient id="d" gradientUnits="userSpaceOnUse" x1="241.4509" x2="261.1546" y1="246.536" y2="234.536"><stop offset="0" stop-color="#fff"/><stop offset="1" stop-color="#f40a00"/></linearGradient><path id="e" d="m131.02 337.7c.34.8 1.27 1.18 2.08.84l4.73-2.01c.8-.34 1.18-1.27.84-2.08l-.29-.69 3.95-1.68c2.07-.88 3.03-3.26 2.15-5.33l-11.6-27.29c-.88-2.07-3.26-3.03-5.33-2.15l-3.95 1.68-.29-.69c-.34-.8-1.27-1.18-2.08-.84l-4.73 2.01c-.8.34-1.18 1.27-.84 2.08l.29.69-2.24.95-.29-.69c-.34-.8-1.27-1.18-2.08-.84l-4.73 2.01c-.8.34-1.18 1.27-.84 2.08l.29.69-27.81 11.82c-2.07.88-3.03 3.26-2.15 5.33l11.6 27.29c.88 2.07 3.26 3.03 5.33 2.15l27.81-11.82.29.69c.34.8 1.27 1.18 2.08.84l4.73-2.01c.8-.34 1.18-1.27.84-2.08l-.29-.69 2.24-.95z"/><path id="f" d="m440.99 165.99 11.09 24.02c.85 1.83.05 4-1.79 4.85l-71.29 32.91c-1.83.85-4 .05-4.85-1.79l-11.09-24.02c-.85-1.83-.05-4 1.79-4.85l71.29-32.91c1.84-.84 4.01-.04 4.85 1.79z"/></defs><g clip-path="url(#a)"><path d="m143.65 332.98 20.53-8.73-10.57-24.85-20.53 8.73-.52-1.22c-.88-2.07-3.26-3.03-5.33-2.15l-3.95 1.68-.29-.69c-.34-.8-1.27-1.18-2.08-.84l-4.73 2.01c-.8.34-1.18 1.27-.84 2.08l.29.69-2.24.95-.29-.69c-.34-.8-1.27-1.18-2.08-.84l-4.73 2.01c-.8.34-1.18 1.27-.84 2.08l.29.69-27.81 11.82c-2.07.88-3.03 3.26-2.15 5.33l2.6 6.13-9.23 3.93 1.62 3.81c-23.07 9.93-49.02 20.84-74.18 21.56-10.77.31-31.68-3.68-50.64-33.85-5.18-8.24-9.38-17.06-12.81-24.6-.59-1.31-1.17-2.71-1.78-4.19-2.94-7.13-6.26-15.21-14.04-19.12-11.1-5.6-21.01.69-28.98 5.75-.97.62-1.92 1.22-2.87 1.8-2.54 1.55-5.16 3.24-7.69 4.87-13.32 8.58-27.1 17.45-42.05 15.98-13.49-1.33-25.52-10.25-32.2-23.86-13.36-27.22-11.14-54.75 6.78-84.17 15.79-25.93 40.83-48.89 62.92-69.15 3.34-3.06 6.5-5.96 9.59-8.84 6.29-5.84 13.37-12.81 17.9-21.51 5.15-9.91 5.98-20.54 2.27-29.18-3.17-7.39-9.84-13.69-19.8-18.74-16.11-8.16-33.27-11.59-51-10.22-15.38 1.19-31.64 6.06-48.34 14.47-29.85 15.03-56.52 38.51-80.9 61.65l-17.34 16.46 5.4 5.69 17.34-16.46c23.94-22.72 50.08-45.76 79.03-60.33 15.78-7.95 31.07-12.54 45.42-13.66 16.28-1.26 32.05 1.9 46.86 9.4 8.28 4.19 13.71 9.18 16.14 14.84 2.74 6.37 1.98 14.77-2.02 22.47-3.95 7.59-10.48 13.99-16.28 19.39-3.07 2.86-6.22 5.74-9.55 8.8-22.47 20.61-47.94 43.97-64.31 70.85-9.09 14.92-14.31 29.12-15.97 43.4-1.88 16.25 1.09 32.5 8.85 48.3 1.5 3.06 3.24 5.93 5.19 8.57 8.25 11.19 20.16 18.34 33.28 19.64 17.67 1.75 33.29-8.31 47.06-17.19 2.61-1.68 5.07-3.26 7.53-4.77.98-.6 1.97-1.23 2.98-1.87 8.53-5.42 14.62-8.72 21.25-5.37 5.17 2.6 7.79 8.96 10.32 15.11.61 1.48 1.24 3.01 1.89 4.45 3.54 7.78 7.88 16.89 13.31 25.53 9.03 14.37 28.51 38.34 57.5 37.52 26.63-.76 53.32-11.98 77.03-22.18l1.64 3.85 9.23-3.93 2.67 6.28c.88 2.07 3.26 3.03 5.33 2.15l27.81-11.82.29.69c.34.8 1.27 1.18 2.08.84l4.73-2.01c.8-.34 1.18-1.27.84-2.08l-.29-.69 2.24-.95.29.69c.34.8 1.27 1.18 2.08.84l4.73-2.01c.8-.34 1.18-1.27.84-2.08l-.29-.69 3.95-1.68c2.07-.88 3.03-3.26 2.15-5.33z" fill="#3b6fa3" opacity=".31"/><use fill="#e2f0fe" xlink:href="#e"/><path clip-path="url(#b)" d="m81.49 337.1 61.11-25.76-11.6-21.69-61.61 27.05 5.55 14.56z" fill="#86b2e8" opacity=".14"/><path d="m135.43 297.59h27v22.31h-27z" fill="#007cff" transform="matrix(.3913 .9203 -.9203 .3913 374.7912 50.8862)"/><g fill="#fff"><path d="m149.11 294.09h4.03v5.54h-4.03z" transform="matrix(.3913 .9203 -.9203 .3913 365.1911 41.6327)"/><path d="m151.74 300.29h4.03v5.54h-4.03z" transform="matrix(.3913 .9203 -.9203 .3913 372.4978 42.9804)"/><path d="m154.38 306.48h4.03v5.54h-4.03z" transform="matrix(.3913 .9203 -.9203 .3913 379.8057 44.3291)"/><path d="m157.01 312.68h4.03v5.54h-4.03z" transform="matrix(.3913 .9203 -.9203 .3913 387.1075 45.6727)"/></g><path d="m103.32 318.89h37.78v2.43h-37.78z" fill="#007cff" transform="matrix(.3913 .9203 -.9203 .3913 368.9818 82.3864)"/><path d="m69.41 333.87h16.17v10.8h-16.17z" fill="#007cff" transform="matrix(.3913 .9203 -.9203 .3913 359.393 135.2116)"/><path d="m-198.1 294.11c-1.95-2.64-3.68-5.5-5.19-8.57-7.75-15.8-10.73-32.04-8.85-48.3 1.65-14.28 6.88-28.48 15.97-43.4 16.37-26.88 41.84-50.24 64.31-70.85 3.33-3.06 6.48-5.94 9.55-8.8 5.81-5.4 12.33-11.79 16.28-19.39 4-7.7 4.76-16.09 2.02-22.47-2.43-5.66-7.86-10.65-16.14-14.84-14.81-7.5-30.57-10.66-46.86-9.4-14.36 1.11-29.64 5.71-45.42 13.66-28.95 14.57-55.09 37.61-79.03 60.33l-17.34 16.46-5.4-5.69 17.34-16.46c24.37-23.14 51.04-46.62 80.9-61.65 16.7-8.41 32.96-13.28 48.34-14.47 17.74-1.38 34.9 2.06 51 10.22 9.96 5.04 16.62 11.35 19.8 18.74 3.71 8.64 2.89 19.27-2.27 29.18-4.53 8.7-11.61 15.67-17.9 21.51-3.09 2.88-6.25 5.77-9.59 8.84-22.09 20.26-47.12 43.22-62.92 69.15-17.92 29.42-20.14 56.95-6.78 84.17 6.68 13.61 18.71 22.52 32.2 23.86 14.95 1.48 28.73-7.39 42.05-15.98 2.53-1.63 5.15-3.31 7.69-4.87.94-.58 1.9-1.18 2.87-1.8 7.96-5.06 17.88-11.35 28.98-5.75 7.77 3.92 11.1 12 14.04 19.12.61 1.48 1.19 2.88 1.78 4.19 3.43 7.54 7.63 16.36 12.81 24.6 18.96 30.17 39.87 34.16 50.64 33.85 25.84-.74 52.51-12.22 76.04-22.36l3.41-1.47 3.1 7.2-3.4 1.46c-24.17 10.41-51.57 22.21-78.91 22.99-29 .83-48.47-23.15-57.5-37.52-5.43-8.64-9.77-17.75-13.31-25.53-.65-1.44-1.28-2.97-1.89-4.45-2.53-6.15-5.15-12.51-10.32-15.11-6.63-3.34-12.72-.04-21.25 5.37-1.01.64-2 1.27-2.98 1.87-2.46 1.5-4.92 3.09-7.53 4.77-13.78 8.87-29.4 18.93-47.06 17.19-13.12-1.26-25.04-8.41-33.28-19.6z" fill="#007cff"/></g><g clip-path="url(#a)"><path d="m791.24 342.08c-12.58.07-28.99-8.38-37.29-27.43-10.24-23.5-4.92-48.79.23-73.25.39-1.87.78-3.73 1.17-5.58l.29-1.42c5.86-28.3 11.91-57.58 12.01-87.05.06-17.98-3.52-36.33-10.09-51.67-7.85-18.35-19.78-31.88-34.49-39.13-13.8-6.8-29.29-7.46-41.45-1.77-10.83 5.07-18.17 14.43-21.22 27.06-5.05 20.88-.93 42.69 3.06 63.79.51 2.71 1.02 5.39 1.5 8.05.26 1.44.53 2.89.8 4.36 5.58 30.41 11.89 64.87-8.39 90.24-6.21 7.76-13.16 11.81-21.25 12.36-21.16 1.45-45.31-21.47-64.72-39.89-7.57-7.18-14.1-13.38-19.65-17.4-35.02-25.4-66.35-33.63-95.65-25.08l-2.39-5.18-10.97 5.06-2.22-4.82c-.85-1.83-3.02-2.63-4.85-1.79l-28.04 12.94-.55-1.18c-.44-.95-1.56-1.36-2.51-.92l-27.67 12.77c-.95.44-1.36 1.56-.92 2.51l.55 1.18-12.15 5.61c-1.83.85-2.63 3.02-1.79 4.85l3.65 7.9-27.79 12.91c-2.23 1.03-3.21 3.68-2.18 5.91s3.68 3.21 5.91 2.18l27.8-12.87 3.69 8c.85 1.83 3.02 2.63 4.85 1.79l12.15-5.61.55 1.18c.44.95 1.56 1.36 2.51.92l27.67-12.77c.95-.44 1.36-1.56.92-2.51l-.55-1.18 28.04-12.94c1.83-.85 2.63-3.02 1.79-4.85l-1.66-3.6-.56-1.22 10.97-5.06-2.68-5.8c27.98-7.94 58.09.16 91.89 24.68 5.35 3.88 11.8 10 19.27 17.09 19.94 18.92 44.75 42.46 67.53 40.9 9.06-.62 17.1-5.25 23.9-13.75 21.34-26.7 14.86-62.05 9.14-93.23-.27-1.46-.53-2.91-.79-4.35-.48-2.67-.99-5.36-1.51-8.08-3.91-20.71-7.96-42.12-3.1-62.22 2.78-11.5 9.41-19.99 19.18-24.57 11.14-5.22 25.43-4.57 38.23 1.74 13.9 6.85 25.22 19.73 32.71 37.26 6.37 14.89 9.85 32.71 9.79 50.2-.1 29.09-6.11 58.18-11.93 86.31l-.29 1.42c-.38 1.85-.77 3.7-1.17 5.57-5.27 25.04-10.72 50.92 0 75.5 3.57 8.19 9.33 15.61 16.23 20.9 7.52 5.77 15.99 8.8 24.48 8.75z" fill="#3b6fa3" opacity=".31"/><use fill="#007cff" xlink:href="#f"/><path clip-path="url(#c)" d="m447.86 178-84.32 37.95-6.85-21.05 29.93-22.32 57.31-15.72z" fill="#3b6fa3" opacity=".31"/><path d="m407.56 175.96 15.24 33.02c.44.95.02 2.07-.92 2.51l-27.67 12.77c-.95.44-2.07.02-2.51-.92l-15.24-33.02c-.44-.95-.02-2.07.92-2.51l27.67-12.77c.95-.44 2.08-.03 2.51.92z" fill="#007cff"/><g fill="#e2f0fe"><path d="m419.4 207.57c.31.68.02 1.49-.66 1.8l-24.05 11.1c-.68.31-1.49.02-1.8-.66-.31-.68-.02-1.49.66-1.8l24.05-11.1c.67-.32 1.48-.02 1.8.66z"/><path d="m416.8 201.95c.31.68.02 1.49-.66 1.8l-24.05 11.1c-.68.31-1.49.02-1.8-.66-.31-.68-.02-1.49.66-1.8l24.05-11.1c.68-.32 1.49-.02 1.8.66z"/><path d="m414.21 196.33c.31.68.02 1.49-.66 1.8l-24.05 11.1c-.68.31-1.49.02-1.8-.66-.31-.68-.02-1.49.66-1.8l24.05-11.1c.67-.32 1.48-.02 1.8.66z"/><path d="m411.61 190.71c.31.68.02 1.49-.66 1.8l-24.05 11.1c-.68.31-1.49.02-1.8-.66-.31-.68-.02-1.49.66-1.8l24.05-11.1c.68-.32 1.49-.02 1.8.66z"/><path d="m409.02 185.09c.31.68.02 1.49-.66 1.8l-24.05 11.11c-.68.31-1.49.02-1.8-.66-.31-.68-.02-1.49.66-1.8l24.05-11.1c.68-.33 1.48-.03 1.8.65z"/><path d="m406.42 179.47c.31.68.02 1.49-.66 1.8l-24.05 11.1c-.68.31-1.49.02-1.8-.66-.31-.68-.02-1.49.66-1.8l24.05-11.1c.68-.32 1.49-.02 1.8.66z"/></g><path d="m366.75 209.93 3.73 8.09-27.82 12.84c-2.23 1.03-4.88.06-5.91-2.18-1.03-2.23-.06-4.88 2.18-5.91z" fill="#007cff"/><path d="m444.1 169.43h15.85v12.08h-15.85z" fill="#007cff" transform="matrix(-.4191 -.9079 .9079 -.4191 482.1513 659.4172)"/><path d="m452.85 172.1c30.36-10.4 62.87-2.58 99.37 23.9 5.55 4.03 12.08 10.23 19.65 17.4 19.41 18.42 43.56 41.34 64.72 39.89 8.09-.56 15.05-4.6 21.25-12.36 20.29-25.37 13.97-59.84 8.39-90.24-.27-1.46-.53-2.92-.8-4.36-.48-2.66-.99-5.34-1.5-8.05-3.98-21.1-8.11-42.91-3.06-63.79 3.05-12.63 10.39-21.99 21.22-27.06 12.15-5.69 27.65-5.03 41.45 1.77 14.71 7.25 26.64 20.78 34.49 39.13 6.56 15.34 10.15 33.69 10.09 51.67-.1 29.47-6.15 58.74-12.01 87.05l-.29 1.42c-.38 1.85-.78 3.71-1.17 5.58-5.15 24.46-10.47 49.75-.23 73.25 8.3 19.04 24.71 27.5 37.29 27.43l.02 3.72c-8.49.05-16.96-2.98-24.48-8.75-6.9-5.29-12.66-12.72-16.23-20.9-10.72-24.59-5.27-50.47 0-75.5.39-1.86.78-3.72 1.17-5.57l.29-1.42c5.82-28.13 11.84-57.21 11.93-86.31.06-17.48-3.42-35.31-9.79-50.2-7.5-17.52-18.81-30.4-32.71-37.26-12.8-6.3-27.09-6.95-38.23-1.74-9.77 4.57-16.4 13.07-19.18 24.57-4.86 20.1-.81 41.51 3.1 62.22.51 2.72 1.02 5.41 1.51 8.08.26 1.44.53 2.89.79 4.35 5.72 31.19 12.2 66.54-9.14 93.23-6.8 8.5-14.84 13.13-23.9 13.75-22.79 1.56-47.6-21.98-67.53-40.9-7.47-7.09-13.92-13.21-19.27-17.09-35.45-25.72-66.85-33.37-95.99-23.39z" fill="#007cff"/></g><g clip-path="url(#a)"><path d="m-4.81 163.96-3.19-8.88c17.54-7.23 34.25-16.92 49.68-28.79s29.34-25.74 41.34-41.23c2.83-3.65 5.66-7.52 8.4-11.26 11.24-15.35 22.85-31.22 39.64-40.11 15.3-8.1 34.53-9.97 57.16-5.56 10.09 1.97 20.05 4.92 29.67 7.77 7.96 2.36 16.19 4.8 24.34 6.63 15.51 3.48 31.71 4.89 48.13 4.21 15.85-.66 31.98-3.26 47.97-7.75 31-8.7 61.32-24.51 87.68-45.71l5.33 7.61c-27.27 21.93-58.66 38.29-90.76 47.31-16.6 4.66-33.38 7.37-49.88 8.05-17.15.71-34.07-.77-50.29-4.41-8.43-1.89-16.8-4.37-24.89-6.77-9.44-2.8-19.2-5.69-28.89-7.58-20.71-4.03-38.08-2.44-51.63 4.73-14.98 7.92-25.96 22.93-36.58 37.45-2.77 3.79-5.64 7.71-8.55 11.47-12.48 16.11-26.95 30.54-42.99 42.88-16.06 12.35-33.44 22.42-51.69 29.94z" fill="#007cff"/></g><g clip-path="url(#a)" opacity=".3"><path d="m1.79 163.51-3.08-8.65c16.93-7.05 33.06-16.48 47.95-28.05s28.32-25.08 39.9-40.17c2.73-3.56 5.46-7.33 8.11-10.97 10.84-14.96 22.06-30.42 38.26-39.08 14.77-7.89 33.33-9.71 55.17-5.42 9.74 1.91 19.35 4.79 28.64 7.57 7.68 2.3 15.63 4.68 23.49 6.46 14.97 3.39 30.6 4.77 46.46 4.11 15.3-.64 30.87-3.18 46.3-7.55 29.92-8.48 59.19-23.88 84.63-44.54l5.15 7.42c-26.33 21.37-56.62 37.31-87.61 46.09-16.03 4.54-32.22 7.18-48.14 7.85-16.55.69-32.88-.75-48.54-4.3-8.13-1.84-16.21-4.26-24.03-6.6-9.11-2.73-18.53-5.55-27.89-7.39-19.99-3.93-36.76-2.38-49.84 4.61-14.46 7.72-25.06 22.34-35.31 36.49-2.68 3.69-5.45 7.51-8.26 11.17-12.05 15.7-26.01 29.76-41.5 41.78-15.47 12.03-32.25 21.84-49.86 29.17z" fill="#0d70c9"/></g><g clip-path="url(#a)" opacity=".3"><path d="m262.67 535.32 3.58-16.55 2.64.57c11.05-12.58 26.04-19.5 45.66-21.09 18.74-1.52 38.62 1.89 57.84 5.19 9.5 1.63 18.47 3.17 26.76 4 13.1 1.31 22.79.79 31.4-1.7 6.07-1.75 11.24-4.58 15.39-8.41 3.86-3.56 6.74-7.91 8.57-12.91 4.41-12.08 2.2-26.55-5.93-38.7-4.38-6.56-9.95-12.7-15.85-19.2-11.16-12.31-22.7-25.04-26.16-41.26-2.23-10.49-.1-21.5 5.86-30.22 5.49-8.02 13.7-13.29 23.12-14.82 14.28-2.33 30.41-.6 47.94 5.13 14.62 4.78 29.95 12.43 43.18 21.54l-2.67 3.87c-22.8-15.71-57.81-30.77-87.69-25.9-8.14 1.33-15.24 5.88-19.99 12.83-5.24 7.66-7.11 17.35-5.14 26.58 3.19 14.99 14.3 27.24 25.04 39.08 5.75 6.34 11.7 12.9 16.27 19.75 8.96 13.4 11.36 29.45 6.43 42.93-4.32 11.83-13.94 20.43-27.07 24.22-9.21 2.66-19.44 3.23-33.17 1.86-8.46-.85-17.51-2.4-27.09-4.04-18.93-3.25-38.51-6.61-56.66-5.14-9.71.79-17.97 2.87-25.24 6.37-8.2 3.94-14.9 9.56-20.5 17.16z" fill="#0d70c9"/></g><circle clip-path="url(#a)" cx="243.93" cy="252.44" fill="#91bee2" opacity=".31" r="93.3"/><g clip-path="url(#a)"><path d="m232.69 324.19c-.86 0-1.68-.47-2.1-1.28-2.12-4.09-4.78-8.89-9.57-14.09-.56-.61-.76-1.46-.53-2.26 1.78-6.17 4.57-14.61 4.6-14.69.41-1.24 1.75-1.91 2.99-1.5s1.91 1.75 1.5 2.99c-.03.08-2.43 7.34-4.17 13.26 4.4 4.99 7.11 9.73 9.39 14.12.6 1.16.15 2.59-1.01 3.19-.36.17-.73.26-1.1.26z" fill="#007cff"/><path d="m236.63 326.09h-18.33l9.71-5.52 8.15.32z" fill="#1a2e35"/><ellipse cx="230.96" cy="291.36" fill="#0a1f9b" rx="15.83" ry="13.12" transform="matrix(.9545 -.2983 .2983 .9545 -76.4045 82.1695)"/><path d="m189.26 282.74c-.93 0-1.81-.55-2.18-1.46-.5-1.21.07-2.59 1.28-3.09 1.37-.57 1.56-1.97 1.57-1.99.1-1.06.89-1.92 1.93-2.11.56-.1 1.11-.26 1.74-.45 3.2-.94 7.17-2.1 19.66 1.4 12.32-6.89 12.46-19.81 12.46-20.37 0-1.3 1.05-2.36 2.36-2.37h.01c1.3 0 2.35 1.04 2.36 2.34 0 .69-.07 16.91-15.83 25.03-.54.28-1.16.34-1.74.17-11.91-3.44-15.26-2.46-17.95-1.67-.24.07-.48.14-.73.21-.58 1.5-1.8 3.23-4.03 4.16-.31.15-.61.2-.91.2z" fill="#0a1f9b"/><path d="m216.88 265.83c-4.48-17.82-16.43-63.79 21.85-66.6 34.34-2.52 43.77 43.19 46.06 59.03 1.34 9.23 1.78 17.6 1.86 24.14.1 8.44-5.83 15.72-14.1 17.39-18.71 3.8-36.42 4.34-48.34-.37-3.22-1.27-5.17-4.56-4.86-8.01.46-5.11.46-13.91-2.47-25.58z" fill="#007cff"/><path d="m284.79 258.26c-2.16-14.92-10.65-56.4-40.39-59-3.46-.3-6.88 1.4-8.47 4.49-1.33 2.57-1.28 5.69.7 8.77 6.55 10.16 22.19 45.29 19.83 64.44-1.07 8.71-6.54 15.66-1.78 25.46 5.74-.47 11.76-1.36 17.88-2.61 8.27-1.68 14.2-8.95 14.1-17.39-.08-6.55-.53-14.93-1.87-24.16z" opacity=".1"/><path d="m279.67 282.64c-.13 0-.23-.1-.24-.23-.1-8.14-.72-16.25-1.86-24.11-5.69-39.34-21.01-59.23-44.31-57.51-.13.02-.24-.09-.25-.22s.09-.24.22-.25c23.58-1.74 39.08 18.3 44.81 57.92 1.14 7.88 1.77 16.01 1.86 24.17.01.12-.1.23-.23.23z" fill="#1a2e35"/><ellipse cx="275.39" cy="292.62" fill="#0a1f9b" rx="15.83" ry="13.12" transform="matrix(.9545 -.2983 .2983 .9545 -74.7576 95.4839)"/><path d="m280.75 324.19c-.86 0-1.68-.47-2.1-1.28-2.12-4.09-4.78-8.89-9.57-14.09-.56-.61-.76-1.46-.53-2.26 1.78-6.17 4.57-14.61 4.6-14.69.41-1.24 1.75-1.91 2.99-1.5s1.91 1.75 1.5 2.99c-.03.08-2.43 7.34-4.17 13.26 4.4 4.99 7.11 9.73 9.39 14.12.6 1.16.15 2.59-1.01 3.19-.36.17-.73.26-1.1.26z" fill="#007cff"/><path d="m275.79 252.14c-.85 0-1.67-.46-2.09-1.27-.61-1.15-.16-2.58.99-3.19.46-.24 10.75-5.87 13.64-19.37-6.86-2.87-19.19-9.35-21.89-12.6-.26-.32-.44-.69-.51-1.1-.06-.36-.51-3.15.53-5.8l-1.24-2.4c-.6-1.16-.15-2.59 1.01-3.19s2.59-.15 3.19 1.01l1.79 3.46c.38.74.35 1.63-.09 2.33-.57.91-.64 2.25-.59 3.12 3.04 2.74 15.3 9.24 21.3 11.47 1.05.39 1.68 1.47 1.51 2.58-2.67 17.27-15.88 24.38-16.44 24.68-.37.18-.74.27-1.11.27z" fill="#0a1f9b"/><path d="m268.25 215.39c-.22 0-.45-.06-.65-.19-.55-.36-.7-1.09-.34-1.64.08-.13 2.04-3.07 5.01-3.87.63-.17 1.28.21 1.45.84s-.21 1.28-.84 1.45c-2.08.56-3.63 2.85-3.64 2.88-.23.34-.61.53-.99.53z" fill="#0a1f9b"/><path d="m284.69 326.09h-18.33l9.71-5.52 8.15.32z" fill="#1a2e35"/><path d="m257.85 243.08c.55 6.24-4.62 11.8-11.56 12.41-6.93.61-13-3.95-13.56-10.19-.55-6.24 4.62-11.8 11.56-12.41s13.01 3.95 13.56 10.19z" fill="url(#d)"/><ellipse cx="242.22" cy="245.3" fill="#0a1f9b" rx="3.46" ry="6.3" transform="matrix(.9617 -.274 .274 .9617 -57.9476 75.7676)"/><path d="m230.96 246.32c7.96-1.02 23.71-5.51 26.31-7.33-2.05-5.99-11.57-11.11-20.09-8.22-7.68 2.6-6.22 15.55-6.22 15.55z" fill="#730d99"/><path d="m232.51 250.17c9.88-1.88 22.72-5.03 26.39-7.05-.23 6.44-2.1 12.97-12.18 15.18-8.25 1.8-14.21-8.13-14.21-8.13z" fill="#730d99"/><ellipse cx="218.95" cy="248.17" fill="#fff" rx="7.76" ry="9.81" transform="matrix(.834 -.5518 .5518 .834 -100.5888 162.0278)"/><g fill="#0a1f9b"><path d="m219.12 248.33c.6 2.82.08 5.18-1.16 5.26s-2.73-2.14-3.33-4.96-.08-5.18 1.16-5.26c1.25-.08 2.73 2.14 3.33 4.96z"/><path d="m209.33 247.25c5.34.63 15.94-.07 17.7-1.04-1.3-5.11-7.62-10.89-13.35-10.15-5.17.67-4.35 11.19-4.35 11.19z"/><path d="m210.32 250.58c6.63.3 15.27.13 17.75-.8-.23 5.06-1.56 9.89-8.33 9.81-5.54-.06-9.42-9.01-9.42-9.01z"/><path d="m246.35 226.55c-8.69 0-14.48-4.3-14.76-4.51-.91-.69-1.09-1.98-.4-2.89s1.98-1.09 2.89-.4c.1.07 6.97 5.08 16.5 3.27 1.12-.21 2.2.52 2.41 1.64s-.52 2.2-1.64 2.41c-1.75.33-3.42.48-5 .48z"/><path d="m207.27 225.95c-.27 0-.54-.04-.8-.14-1.23-.44-1.87-1.8-1.43-3.02 1.25-3.49 3.33-5.75 6.18-6.73 5.16-1.78 10.71 1.68 10.94 1.83 1.1.7 1.43 2.16.74 3.26-.7 1.1-2.15 1.43-3.25.74-1.08-.67-4.41-2.22-6.9-1.35-1.43.5-2.5 1.76-3.25 3.85-.35.96-1.26 1.56-2.23 1.56z"/><path d="m224.86 263.39c-.07 0-.13-.01-.2-.03-.37-.11-.59-.49-.49-.87.02-.06.46-1.6 2.4-2.6 2.71-1.4 6.84-1.11 12.28.86.37.13.56.54.43.91s-.54.56-.91.43c-6.24-2.26-9.47-1.77-11.09-.96-1.41.7-1.74 1.71-1.75 1.75-.08.31-.36.51-.67.51z"/></g><path d="m201.6 292.33-8.65.46c-1.32.07-2.54-.93-2.71-2.24l-3.15-23.72c-.17-1.31.76-2.43 2.08-2.5l8.65-.46c1.32-.07 2.54.93 2.71 2.24l3.15 23.72c.18 1.31-.75 2.43-2.08 2.5z" fill="#91bee2"/><path d="m195.58 280.2c-1 .06-1.92-.7-2.05-1.69s.57-1.84 1.57-1.9c.31-.02.61.05.88.17-.02.06-.03.13-.04.19-.12.8.4 1.24 1.14.98.03.12.06.24.08.36.13.99-.58 1.84-1.58 1.89z" fill="#2e3192"/><path d="m192.51 272.02-3.29.18c-.27.01-.52-.19-.56-.46l-.69-5.23c-.04-.27.16-.5.43-.51l3.29-.18c.27-.01.52.19.56.46l.69 5.23c.03.26-.16.49-.43.51zm-4.08-5.79c-.13.01-.23.12-.21.25l.69 5.23c.02.13.14.23.28.23l3.29-.18c.13-.01.23-.12.21-.25l-.69-5.23c-.02-.13-.14-.23-.28-.23z" fill="#2e3192"/><ellipse cx="189.64" cy="270.67" fill="#231f20" rx=".73" ry=".79" transform="matrix(.6207 -.784 .784 .6207 -140.2906 251.3332)"/><ellipse cx="191.62" cy="270.57" fill="#fff" rx=".73" ry=".79" transform="matrix(.6207 -.784 .784 .6207 -139.4538 252.8507)"/><ellipse cx="190.26" cy="267.93" fill="#fff" rx="1.09" ry="1.18" stroke="#231f20" stroke-miterlimit="10" stroke-width=".75" transform="matrix(.6207 -.784 .784 .6207 -137.907 250.7838)"/><ellipse cx="189.64" cy="270.67" fill="#fff" rx=".3" ry=".32" stroke="#231f20" stroke-miterlimit="10" stroke-width=".25" transform="matrix(.6207 -.784 .784 .6207 -140.2906 251.3332)"/><path d="m189.26 282.74c-.77 0-1.53-.38-1.98-1.07-1.71-2.63-.64-6.63-.41-7.41.37-1.25 1.69-1.96 2.94-1.59s1.96 1.69 1.59 2.94c-.39 1.32-.46 3.01-.16 3.48.71 1.09.41 2.56-.69 3.27-.4.26-.85.38-1.29.38z" fill="#0a1f9b"/></g><g clip-path="url(#a)"><path d="m254.75 534.13 3.64-16.81 2.68.58c11.22-12.79 26.46-19.81 46.4-21.43 19.04-1.54 39.24 1.92 58.77 5.27 9.65 1.66 18.77 3.22 27.19 4.06 13.31 1.33 23.15.8 31.9-1.72 6.16-1.78 11.42-4.65 15.63-8.54 3.92-3.62 6.85-8.04 8.71-13.12 4.48-12.27 2.23-26.97-6.02-39.33-4.45-6.67-10.11-12.9-16.1-19.51-11.34-12.51-23.07-25.44-26.58-41.93-2.27-10.66-.1-21.85 5.96-30.71 5.57-8.15 13.92-13.5 23.49-15.06 14.51-2.36 30.9-.61 48.71 5.21 14.86 4.86 30.44 12.63 43.87 21.89l-2.71 3.94c-23.17-15.96-58.74-31.26-89.1-26.32-8.27 1.35-15.49 5.98-20.31 13.04-5.32 7.78-7.23 17.63-5.23 27.01 3.24 15.23 14.53 27.68 25.45 39.71 5.84 6.44 11.88 13.11 16.53 20.07 9.1 13.62 11.54 29.92 6.54 43.62-4.39 12.02-14.16 20.76-27.51 24.61-9.36 2.7-19.75 3.28-33.7 1.89-8.59-.86-17.79-2.44-27.53-4.11-19.24-3.3-39.13-6.71-57.58-5.22-9.87.8-18.26 2.92-25.65 6.47-8.33 4.01-15.14 9.71-20.83 17.44z" fill="#007cff"/></g><g clip-path="url(#a)"><path d="m260.1 230.4c.01-.07.04-.13.07-.18.04-.06.08-.1.14-.14s.12-.07.19-.08.14-.02.21 0 .13.04.18.07c.06.04.1.08.14.14s.07.12.08.19c.02.07.02.14 0 .21-.01.07-.04.13-.07.18-.04.06-.08.1-.14.14s-.12.07-.19.08c-.07.02-.14.02-.21 0-.07-.01-.13-.04-.18-.07-.06-.04-.1-.08-.14-.14s-.07-.12-.08-.19c-.01-.08-.01-.14 0-.21zm-.52-8.22c-.06-.29-.16-.49-.31-.61-.14-.12-.35-.15-.62-.09s-.45.17-.53.34-.09.4-.02.68l.56 2.6 1.22 3.79v-.01c.04.13.11.2.19.24.08.03.16.04.24.02s.15-.06.21-.12.08-.16.07-.29l-.45-3.96z" fill="#f1f2f2"/></g><g clip-path="url(#a)"><path d="m197.89 236.85c.21 2.11-.23 4.05-1.33 5.8-.14.21-1.22 1.52-3.23 3.94-1.21 1.43-1.82 2.78-1.81 4.04 0 .32 0 .65.01.97-.03.25-.23.46-.58.63-.41.19-.73.29-.96.32-.74.07-1.18.09-1.32.06-.36-.1-.57-.43-.63-1-.17-1.75-.01-3.17.49-4.26.84-1.35 1.67-2.7 2.49-4.06.99-1.63 1.41-3.13 1.28-4.52-.13-1.36-.63-2.41-1.49-3.16s-1.96-1.06-3.3-.93c-1.08.11-2.24.6-3.48 1.49s-1.84 1.33-1.78 1.32c-.45.04-.82-1.33-1.09-4.13-.02-.2.17-.48.58-.83 2.13-1.81 4.46-2.84 6.98-3.09 2.46-.24 4.55.32 6.26 1.68 1.69 1.36 2.67 3.27 2.91 5.73zm-4.28 20.44c.08.82-.12 1.56-.6 2.22s-1.12 1.04-1.92 1.12c-.79.08-1.48-.16-2.07-.72s-.93-1.25-1.01-2.06c-.08-.82.11-1.55.58-2.19s1.1-1 1.9-1.08c.82-.08 1.52.15 2.11.69.59.53.93 1.21 1.01 2.02z" fill="#0a1f9b"/></g></svg>