<svg enable-background="new 0 0 512 512" viewBox="0 0 512 512" xmlns="http://www.w3.org/2000/svg" xmlns:xlink="http://www.w3.org/1999/xlink"><clipPath id="a"><path d="m106.01 225.11h.38v1.81h-.38z"/></clipPath><clipPath id="b"><path d="m105.04 226.09h.66v.31h-.66z"/></clipPath><clipPath id="c"><path d="m102.96 225.11h-.42l-.49.62-.15.21v-.83h-.39v1.81h.39v-.64l.16-.12.47.76h.44l-.64-1.01z"/></clipPath><clipPath id="d"><path d="m103.2 225.11h.38v1.81h-.38z"/></clipPath><clipPath id="e"><path d="m105.23 225.11h-1.37v.32h.49v1.49h.38v-1.49h.5z"/></clipPath><clipPath id="f"><path d="m107.92 225.1v.96.09c0 .03 0 .07.01.1l-.85-1.09c-.01-.01-.02-.03-.03-.03-.01-.01-.02-.01-.03-.02-.01 0-.02-.01-.03-.01s-.03 0-.05 0h-.22v1.82h.37v-.97c0-.03 0-.06 0-.09s0-.06-.01-.09l.85 1.08c.02.03.04.04.06.05s.05.02.08.02h.22v-1.82z"/></clipPath><clipPath id="g"><path d="m270.65 229.82h.46l1.04-2.01h-.45z"/></clipPath><clipPath id="h"><path d="m269.81 229.24h.79l.18-.34h-.79z"/></clipPath><clipPath id="i"><path d="m268.1 227.81h-.51l-.93.69-.31.23.48-.92h-.45l-1.05 2.01h.46l.37-.71.26-.13.12.84h.52l-.17-1.12z"/></clipPath><clipPath id="j"><path d="m267.33 229.82h.45l1.05-2.01h-.46z"/></clipPath><clipPath id="k"><path d="m270.77 227.81h-1.61l-.19.36h.58l-.86 1.65h.46l.86-1.65h.58z"/></clipPath><clipPath id="l"><path d="m273.97 227.8-.56 1.07c-.02.03-.03.07-.05.1-.02.04-.03.07-.05.11l-.38-1.21c-.01-.02-.01-.03-.02-.04s-.01-.02-.02-.02c-.01-.01-.02-.01-.03-.01s-.03 0-.05 0h-.26l-1.05 2.02h.43l.56-1.08c.02-.03.03-.06.05-.09s.03-.07.05-.1l.37 1.2c.01.03.03.05.05.06s.05.02.09.02h.26l1.05-2.02h-.44z"/></clipPath><path d="m433.99 459.48-119.84.35c-.75 0-1.45-.29-1.98-.81s-.82-1.22-.82-1.97l-.71-240.73c0-.74.28-1.44.81-1.97s1.23-.82 1.97-.82l119.84-.35c.74 0 1.45.28 1.98.81.53.52.82 1.22.82 1.97l.71 240.73c0 .75-.29 1.45-.82 1.98-.51.52-1.21.81-1.96.81zm-120.56-243.71c-.15 0-.28.05-.38.16-.11.11-.16.24-.16.39l.71 240.73c0 .15.05.28.16.39s.23.16.39.16l119.84-.35c.15 0 .28-.05.38-.16.11-.11.16-.24.16-.39l-.71-240.73c0-.15-.05-.28-.16-.38-.11-.11-.24-.16-.39-.16z" fill="#fff"/><path d="m389.84 223.84-25.04.07c-.25 0-.46-.2-.46-.46l-.01-2.2c0-.25.2-.46.46-.46l25.04-.07c.25 0 .46.2.46.46l.01 2.2c0 .26-.21.46-.46.46z" fill="#fff"/><path d="m359.57 222.37c0 .86-.69 1.56-1.55 1.56s-1.56-.69-1.56-1.55.69-1.56 1.55-1.56 1.56.69 1.56 1.55z" fill="#fff"/><path d="m417.51 446.67-86.96.26c-3.07.01-5.57-2.48-5.57-5.54l-.19-65.05c-.01-3.07 2.48-5.57 5.54-5.58l86.96-.26c3.07-.01 5.57 2.48 5.58 5.54l.19 65.05c0 3.07-2.48 5.57-5.55 5.58zm-87.18-73.68c-1.83.01-3.31 1.5-3.31 3.33l.19 65.05c.01 1.83 1.5 3.31 3.33 3.31l86.96-.26c1.83-.01 3.31-1.5 3.31-3.33l-.19-65.05c-.01-1.83-1.5-3.31-3.33-3.31z" fill="#fff"/><path d="m389.28 303.08-59.15.17c-3.07.01-5.57-2.48-5.57-5.54l-.16-53.9c-.01-3.07 2.48-5.57 5.54-5.58l59.15-.17c3.07-.01 5.57 2.48 5.57 5.54l.16 53.9c.01 3.07-2.48 5.58-5.54 5.58zm-59.34-62.6c-1.83.01-3.31 1.5-3.31 3.33l.16 53.9c.01 1.83 1.5 3.31 3.33 3.31l59.15-.17c1.83-.01 3.31-1.5 3.31-3.33l-.16-53.9c-.01-1.83-1.5-3.31-3.33-3.31z" fill="#fff"/><path d="m366.51 358.71-36.22.11c-3.07.01-5.57-2.48-5.57-5.54l-.1-33.25c-.01-3.07 2.48-5.57 5.54-5.57l36.22-.11c3.07-.01 5.57 2.48 5.57 5.54l.1 33.25c.01 3.06-2.47 5.56-5.54 5.57zm-36.34-42.02c-1.83.01-3.31 1.5-3.31 3.33l.1 33.25c.01 1.83 1.5 3.31 3.33 3.31l36.22-.11c1.83-.01 3.31-1.5 3.31-3.33l-.1-33.25c-.01-1.83-1.5-3.31-3.33-3.31z" fill="#fff"/><path d="m419.4 288.47-14.79.04c-1.77.01-3.21-1.43-3.22-3.2l-.13-44.07c-.01-1.77 1.43-3.22 3.2-3.22l14.79-.04c1.77-.01 3.22 1.43 3.22 3.2l.13 44.07c0 1.77-1.43 3.21-3.2 3.22zm-14.94-48.21c-.53 0-.97.44-.96.97l.13 44.07c0 .53.44.97.97.96l14.79-.04c.53 0 .97-.44.97-.97l-.13-44.07c0-.53-.44-.97-.97-.97z" fill="#fff"/><path d="m419.37 303-14.65.04c-1.81.01-3.28-1.46-3.29-3.27l-.01-3.13c-.01-1.81 1.46-3.28 3.27-3.29l14.65-.04c1.81-.01 3.29 1.46 3.29 3.27l.01 3.13c.01 1.81-1.46 3.28-3.27 3.29zm-14.67-7.41c-.57 0-1.03.47-1.03 1.04l.01 3.13c0 .57.47 1.04 1.04 1.03l14.65-.04c.57 0 1.04-.47 1.04-1.04l-.01-3.13c0-.57-.47-1.04-1.04-1.03z" fill="#fff"/><path d="m400.63 358.61c-12.23.04-22.21-9.89-22.25-22.12s9.89-22.21 22.12-22.25 22.22 9.89 22.25 22.12c.03 12.24-9.89 22.22-22.12 22.25zm-.13-42.12c-11 .03-19.92 9-19.88 20 .03 11 9 19.92 20 19.88s19.92-9 19.89-20c-.04-11-9.01-19.92-20.01-19.88z" fill="#fff"/><path d="m440.49 453.85c-.62 0-1.12-.5-1.12-1.12l-.68-230.75c0-.62.5-1.12 1.12-1.12s1.12.5 1.12 1.12l.68 230.75c0 .61-.5 1.11-1.12 1.12z" fill="#fff"/><path d="m472.81 164.12-156.62 8.69c-.82.05-1.52-.58-1.57-1.4l-4.5-81.21 159.59-8.85 4.5 81.21c.05.81-.58 1.51-1.4 1.56z" fill="#fff"/><path d="m467.33 65.34-156.62 8.69c-.82.05-1.45.75-1.4 1.57l.81 14.6 159.59-8.85-.81-14.6c-.05-.83-.75-1.46-1.57-1.41z" fill="#493d60"/><g fill="#d3dee6"><path d="m320.27 81.56c.07 1.28-.99 2.38-2.38 2.46-1.38.08-2.56-.9-2.63-2.18s.99-2.38 2.38-2.46c1.38-.08 2.56.9 2.63 2.18z"/><path d="m328.13 81.13c.07 1.28-.99 2.38-2.38 2.46-1.38.08-2.56-.9-2.63-2.18s.99-2.38 2.38-2.46c1.38-.08 2.56.89 2.63 2.18z"/><path d="m335.99 80.69c.07 1.28-.99 2.38-2.38 2.46-1.38.08-2.56-.9-2.63-2.18s.99-2.38 2.38-2.46c1.38-.08 2.56.9 2.63 2.18z"/><path d="m463.27 71.81-1.35-1.13-1.87 1.93-2.06-1.71-1.23 1.27 2.07 1.71-1.87 1.93 1.36 1.12 1.87-1.93 2.06 1.71 1.22-1.26-2.06-1.72z"/><path d="m447.35 75.18-100.53 5.58c-.4.02-.74-.26-.76-.63-.02-.37.29-.68.68-.71l100.53-5.58c.4-.02.74.26.76.63.02.37-.29.69-.68.71z"/><path d="m456.16 153.03c.04.76-.58 1.41-1.4 1.45l-126.45 7.01c-.82.05-1.51-.53-1.55-1.29s.58-1.4 1.4-1.45l126.45-7.01c.81-.04 1.5.53 1.55 1.29z"/><path d="m454.1 142.73-126.45 7.01c-.82.05-1.51-.53-1.55-1.29s.58-1.4 1.4-1.45l126.45-7.01c.82-.05 1.51.53 1.55 1.29.05.76-.58 1.4-1.4 1.45z"/><path d="m453.45 130.98-126.45 7.01c-.82.05-1.51-.53-1.55-1.29s.58-1.41 1.4-1.45l126.45-7.01c.82-.05 1.51.53 1.55 1.29.05.76-.58 1.41-1.4 1.45z"/><path d="m452.8 119.23-45.93 2.55c-.82.05-1.51-.53-1.55-1.29s.58-1.4 1.4-1.45l45.93-2.55c.82-.05 1.51.53 1.55 1.29s-.58 1.41-1.4 1.45z"/><path d="m452.15 107.49-45.93 2.55c-.82.05-1.51-.53-1.55-1.29s.58-1.4 1.4-1.45l45.93-2.55c.82-.05 1.51.53 1.55 1.29.04.75-.58 1.4-1.4 1.45z"/><path d="m451.5 95.74-45.93 2.55c-.82.05-1.51-.53-1.55-1.29s.58-1.4 1.4-1.45l45.93-2.55c.82-.05 1.51.53 1.55 1.29.04.75-.59 1.4-1.4 1.45z"/><path d="m393.29 122.53-68.04 3.77c-.21.01-.39-.15-.4-.36l-1.41-25.47c-.01-.21.15-.39.36-.4l68.04-3.77c.21-.01.39.15.4.36l1.41 25.47c.01.21-.15.39-.36.4z"/></g><path d="m368.12 110.77-14.48 8.81-.88-15.96z" fill="#fff"/><ellipse cx="145.07" cy="493.39" fill="#d3cfda" opacity=".75" rx="80" ry="13.54"/><path d="m274.65 285.06c14.89-21.13 23.67-46.88 23.67-74.69 0-71.7-58.12-129.82-129.82-129.82s-129.82 58.12-129.82 129.82c0 51.29 29.75 95.62 72.93 116.71-5.2 12.48-8.08 26.16-8.08 40.52 0 58.26 47.23 105.48 105.48 105.48 58.26 0 105.48-47.23 105.48-105.48 0-33.43-15.57-63.22-39.84-82.54z" fill="#d3cfda" opacity=".75"/><path d="m135.49 340.19h5.66v147.92h-5.66z" fill="#e6faff"/><path d="m218.97 344.49h-89.65c-2.72 0-4.95-2.23-4.95-4.95v-15.74c0-2.72 2.23-4.95 4.95-4.95h89.65c2.72 0 4.95 2.23 4.95 4.95v15.74c0 2.72-2.22 4.95-4.95 4.95z" fill="#e6faff"/><path d="m192.97 232.05 9.79 19.81s6.73-21.21 2.78-29.83-8.31-13.05-8.31-13.05z" fill="#0d87bc"/><path d="m146.13 269.96-10.72 9.63s-11.03 11.5-11.03 23.93 48.74-4.35 48.74-4.35l4.71-19.58z" fill="#33b5aa"/><path d="m194.64 125.15s-11.59-9.15-29.2-2.31-19.47 25.93-17.92 36.89-10.26 18.55-10.26 18.55-8.1-11.27-18.96-.41-10.88 27.31 14.61 35.08c25.48 7.77 68.15-9.94 68.15-9.94s10.97-13.92-3.11-21.57c0 .01 21.13-46.82-3.31-56.29z" fill="#231f20"/><path d="m182.49 179.91-29.22-1.39c-5.15-.24-10 2.37-12.62 6.8-5.94 10.04-9.07 35.25-3.53 43.72 7.92 12.12-1.71 50.54-1.71 50.54h57.54s7.32-61.69 2.82-88.04c-1.12-6.5-6.68-11.32-13.28-11.63z" fill="#129ccc"/><path d="m158.93 266.85s11.14 5.9 19.83 3.11c0 0 1.26 4.07-3.27 9.63h17.46s5.13-43.29 4.15-72.83l-4.96-3.93c0 .01-15.44 57.5-33.21 64.02z" fill="#0d87bc"/><path d="m159.71 455.82s7.52 14.43.81 31.68c-6.7 17.25-18.56-5.6-12.28-30.42z" fill="#00a79d"/><path d="m160.52 427.39-.89 31.27s4.2 15.27-5.59 18.07-5.4-18.07-5.4-18.07l-7.19-28.55z" fill="#dd9b6f"/><path d="m169.74 334.76s-33.29-19.43-40.26 4.81 13.54 102.79 13.54 102.79l20.34-2.41c0 .01 16.72-94.85 6.38-105.19z" fill="#33b5aa"/><path d="m178.76 165.71-2.02 15.03.68.64c1.89 1.77 2.04 4.72.34 6.68l-3.34 3.83c-1.79 2.05-4.86 2.36-7.02.71l-7.38-5.65c-2.76-2.11-2.84-6.23-.17-8.45l.55-.46 7.19-25.33z" fill="#dd9b6f"/><path d="m164.37 164.14 3.24-11.41 11.15 12.99-1.67 12.43c-7.08-1.28-10.83-8.37-12.72-14.01z" fill="#cc8056"/><path d="m167.97 147.68s-.53-4.9-4.07-3.8c-3.53 1.09-2.77 9.01 2.2 10 .01 0-6.78-12.07 1.87-6.2z" fill="#b7604f"/><path d="m126.45 442.37 1.58 7.13c.61 2.76-.2 5.64-2.18 7.65-8.04 8.19-29.12 28.83-35.97 27.11-8.53-2.14 9.39-27.5 20.49-36.16z" fill="#00a79d"/><path d="m105.69 383.74c.26 1.18 4.68 64.36 4.68 64.36s-17.24 21.49-15.07 22.87 28.74-24.82 31.15-28.61 8.75-55.56 8.75-55.56z" fill="#dd9b6f"/><path d="m192.95 279.59s10.64 25.79 4.28 41.33-53.47 14.29-53.47 14.29l-6.98 54.7h-33.53s-2.51-58.43 3.41-79.56 64.92-30.77 64.92-30.77h21.37z" fill="#43d6c8"/><path d="m202.51 185.9-3.85-9.91 1.92-10.56s-3.23-6.6-3.61-6.22-1.34 4.44-1.34 4.44-6.91 9.75-6.91 12.21 3.16 3.63 3.16 3.63l5.09 17.48 8.56-5.59z" fill="#dd9b6f"/><path d="m192.95 187.52 9.62-3.73s28.85 48.07 21.21 65.37c-3.18 7.21-7.63 9.23-11.72 9.14-6.03-.14-10.88-5.06-11.63-11.05z" fill="#27aae1"/><path d="m199.64 163.55c-.98-1.92-2.42-4.58-2.66-4.34-.38.38-1.34 4.44-1.34 4.44s-6.91 9.75-6.91 12.21c0 .76.31 1.38.73 1.89 5.85-2.57 8.82-9.56 10.18-14.2z" fill="#cc8056"/><path d="m168.54 144.5s.61-13.05 11.58-16.68 17.91.49 19.3 13.32-3.78 32.47-11.78 35.37-19.5-13.3-20.29-20.52c0 0-5 2.57-7.83-4.83s5.07-13.13 9.02-6.66z" fill="#dd9b6f"/><path d="m178.06 146.59c1.65-.47 2.94-.96 4.24-1.16.64-.14 1.27-.13 1.94-.1.69.02 1.38.21 2.26.35-.38-.76-1.01-1.45-1.84-1.8-.81-.39-1.78-.51-2.67-.35-.89.17-1.71.52-2.38 1.06-.69.51-1.26 1.17-1.55 2z" fill="#3f241d"/><path d="m191.47 145.48c1.48-.09 2.67-.27 3.81-.2.57 0 1.1.13 1.67.27.58.14 1.13.43 1.85.71-.18-.72-.59-1.42-1.23-1.87-.62-.48-1.42-.76-2.2-.79-.78-.02-1.55.13-2.22.46-.67.32-1.28.77-1.68 1.42z" fill="#3f241d"/><path d="m180.62 151.1c.14-.09.34-.04.44.1.24.39.57.45.83.42.23-1.15.98-1.98 1.77-1.87.83.12 1.36 1.22 1.19 2.46s-.99 2.16-1.81 2.04c-.72-.1-1.19-.96-1.19-2-.45.01-.95-.14-1.31-.72-.11-.14-.06-.34.08-.43z" fill="#3f241d"/><path d="m197.05 151.9c-.11-.11-.3-.11-.42.01-.3.31-.6.3-.84.22.02-1.09-.51-1.99-1.25-2.05-.78-.05-1.48.85-1.56 2.02s.48 2.16 1.26 2.21c.68.05 1.27-.65 1.47-1.6.41.1.9.06 1.34-.4.12-.11.11-.3 0-.41z" fill="#3f241d"/><path d="m158.69 154.69s24.72-.35 32.33-20.2c0 0 10.74 7.58 11.6 15.51 0 0 .78-3.98-1.34-12.37-2.13-8.39-2.48-9.49-8.33-11.81-5.84-2.32-42.73.24-34.26 28.87z" fill="#231f20"/><path d="m183.13 163.65 9.01.54c0 .01-6.83 8.05-9.01-.54z" fill="#fff"/><path d="m192.06 154.57 3.02 4.44-4.26.76 2.79-1.44z" fill="#b7604f"/><path d="m177.08 157.19c0 .7 1.2 1.25 2.68 1.24 1.47-.01 2.66-.58 2.66-1.28s-1.2-1.25-2.68-1.24c-1.48.02-2.67.59-2.66 1.28z" fill="#cc5c46"/><path d="m195.01 157.07c0 .7.61 1.26 1.34 1.25.74-.01 1.33-.57 1.32-1.27 0-.7-.61-1.26-1.34-1.25-.73 0-1.33.57-1.32 1.27z" fill="#cc5c46"/><path d="m160.42 247.28h15.06s13.25 3.73 13.25 3.73 5.53 2.19 4.22 3.5-6.42 0-6.42 0-14.01 3.07-18.1-1.01l-10.52 1.01z" fill="#dd9b6f"/><path d="m148.39 179.2s-7.39 1.31-16.25 15.56-26.93 42.19-29.43 50.11-2.97 11.27 4.72 13.44 54.29 0 54.29 0v-13.21l-28.65-8.62s36.4-36.2 15.32-57.28z" fill="#27aae1"/><path d="m166.35 251.44h-30.69c1.15 0 2.08.94 2.08 2.08 0 1.15-.94 2.08-2.08 2.08h30.69c1.15 0 2.08-.94 2.08-2.08s-.94-2.08-2.08-2.08z" fill="#2da1c1"/><path d="m279 262.12h-222.05c-.81 0-1.47-.66-1.47-1.47v-4.67c0-.81.66-1.47 1.47-1.47h222.05c.81 0 1.47.66 1.47 1.47v4.67c0 .8-.66 1.47-1.47 1.47z" fill="#e9f9ff"/><path d="m136.71 251.86h-59.95c-.56 0-1.02-.46-1.02-1.02v-46.05c0-.56.46-1.02 1.02-1.02h59.96c.56 0 1.02.46 1.02 1.02v46.05c-.01.56-.46 1.02-1.03 1.02z" fill="#2b2438"/><path d="m167.62 255.61h-91.08c-.44 0-.8-.36-.8-.8v-2.56c0-.44.36-.8.8-.8h91.08c.44 0 .8.36.8.8v2.56c.01.44-.35.8-.8.8z" fill="#493d60"/><path d="m110.16 227.24c0 2.9-2.35 5.24-5.24 5.24-2.9 0-5.24-2.35-5.24-5.24 0-2.9 2.35-5.24 5.24-5.24 2.89-.01 5.24 2.34 5.24 5.24z" fill="#fff"/><path d="m106.04 226.92v-1.81h.38v1.81z"/><path d="m105.08 226.4v-.31h.66v.31z"/><path d="m103 226.92h-.44l-.47-.76-.16.12v.65h-.38v-1.81h.38v.83l.15-.21.49-.62h.43l-.63.8z"/><path d="m103.23 226.92v-1.81h.38v1.81z"/><path d="m104.77 226.92h-.38v-1.49h-.49v-.32h1.37v.32h-.49v1.49z"/><path d="m108.32 225.1v1.82h-.22c-.03 0-.06-.01-.08-.02s-.04-.03-.06-.05l-.85-1.08c0 .03.01.06.01.09v.09.97h-.37v-1.82h.22.05c.01 0 .02 0 .03.01.01 0 .02.01.03.02s.02.02.03.03l.85 1.09c0-.03-.01-.07-.01-.1s0-.06 0-.09v-.96z"/><path clip-path="url(#a)" d="m106.01 225.11v.14z" fill="#6c499c"/><path clip-path="url(#a)" d="m106.03 225.11-.02 1.33v-1.19-.14z" fill="#6d489c"/><path clip-path="url(#a)" d="m106.06 225.11-.04 1.81h-.01v-.48l.02-1.33z" fill="#6d489c"/><path clip-path="url(#a)" d="m106.08 225.11-.04 1.81h-.02l.04-1.81z" fill="#6e489c"/><path clip-path="url(#a)" d="m106.1 225.11-.03 1.81h-.03l.04-1.81z" fill="#6f479b"/><path clip-path="url(#a)" d="m106.13 225.11-.04 1.81h-.02l.03-1.81z" fill="#71479b"/><path clip-path="url(#a)" d="m106.15 225.11-.03 1.81h-.03l.04-1.81z" fill="#71469b"/><path clip-path="url(#a)" d="m106.18 225.11-.04 1.81h-.02l.03-1.81z" fill="#72459a"/><path clip-path="url(#a)" d="m106.2 225.11-.04 1.81h-.02l.04-1.81z" fill="#73459a"/><path clip-path="url(#a)" d="m106.22 225.11-.03 1.81h-.03l.04-1.81z" fill="#74459a"/><path clip-path="url(#a)" d="m106.25 225.11-.04 1.81h-.02l.03-1.81z" fill="#75459a"/><path clip-path="url(#a)" d="m106.27 225.11-.04 1.81h-.02l.04-1.81z" fill="#75459a"/><path clip-path="url(#a)" d="m106.29 225.11-.03 1.81h-.03l.04-1.81z" fill="#749"/><path clip-path="url(#a)" d="m106.32 225.11-.04 1.81h-.02l.03-1.81z" fill="#784399"/><path clip-path="url(#a)" d="m106.34 225.11-.04 1.81h-.02l.04-1.81z" fill="#794399"/><path clip-path="url(#a)" d="m106.36 225.11-.03 1.81h-.03l.04-1.81z" fill="#7a4399"/><path clip-path="url(#a)" d="m106.39 225.11-.04 1.81h-.02l.03-1.81z" fill="#7b4298"/><path clip-path="url(#a)" d="m106.39 226.07-.02.85h-.02l.04-1.81z" fill="#7c4298"/><path clip-path="url(#a)" d="m106.37 226.92.02-.85v.85z" fill="#7c4198"/><path clip-path="url(#b)" d="m104.89 226.24h.31v.01h-.31z" fill="#5154a3" transform="matrix(.0199 -.9998 .9998 .0199 -123.2457 326.7604)"/><path clip-path="url(#b)" d="m105.07 226.09v.31h-.03l.01-.31z" fill="#5153a3"/><path clip-path="url(#b)" d="m105.1 226.09-.01.31h-.02v-.31z" fill="#5353a2"/><path clip-path="url(#b)" d="m105.12 226.09-.01.31h-.02l.01-.31z" fill="#5452a2"/><path clip-path="url(#b)" d="m105.14 226.09v.31h-.03l.01-.31z" fill="#5552a2"/><path clip-path="url(#b)" d="m105.17 226.09-.01.31h-.02v-.31z" fill="#5552a2"/><path clip-path="url(#b)" d="m105.19 226.09-.01.31h-.02l.01-.31z" fill="#5552a2"/><path clip-path="url(#b)" d="m105.21 226.09v.31h-.03l.01-.31z" fill="#5652a2"/><path clip-path="url(#b)" d="m105.24 226.09-.01.31h-.02v-.31z" fill="#5652a2"/><path clip-path="url(#b)" d="m105.26 226.09v.31h-.03l.01-.31z" fill="#5651a1"/><path clip-path="url(#b)" d="m105.28 226.09v.31h-.02v-.31z" fill="#5651a1"/><path clip-path="url(#b)" d="m105.31 226.09-.01.31h-.02v-.31z" fill="#5751a1"/><path clip-path="url(#b)" d="m105.33 226.09v.31h-.03l.01-.31z" fill="#5851a1"/><path clip-path="url(#b)" d="m105.36 226.09-.01.31h-.02v-.31z" fill="#5950a1"/><path clip-path="url(#b)" d="m105.38 226.09-.01.31h-.02l.01-.31z" fill="#5950a1"/><path clip-path="url(#b)" d="m105.4 226.09v.31h-.03l.01-.31z" fill="#5b50a0"/><path clip-path="url(#b)" d="m105.43 226.09-.01.31h-.02v-.31z" fill="#5b50a0"/><path clip-path="url(#b)" d="m105.45 226.09-.01.31h-.02l.01-.31z" fill="#5b50a0"/><path clip-path="url(#b)" d="m105.47 226.09v.31h-.03l.01-.31z" fill="#5c4fa0"/><path clip-path="url(#b)" d="m105.5 226.09-.01.31h-.02v-.31z" fill="#5d4fa0"/><path clip-path="url(#b)" d="m105.52 226.09-.01.31h-.02l.01-.31z" fill="#5d4fa0"/><path clip-path="url(#b)" d="m105.54 226.09v.31h-.03l.01-.31z" fill="#5e4fa0"/><path clip-path="url(#b)" d="m105.57 226.09-.01.31h-.02v-.31z" fill="#5f4e9f"/><path clip-path="url(#b)" d="m105.59 226.09-.01.31h-.02l.01-.31z" fill="#5f4e9f"/><path clip-path="url(#b)" d="m105.61 226.09v.31h-.03l.01-.31z" fill="#604d9f"/><path clip-path="url(#b)" d="m105.64 226.09-.01.31h-.02v-.31z" fill="#614d9f"/><path clip-path="url(#b)" d="m105.66 226.09v.31h-.03l.01-.31z" fill="#624d9f"/><path clip-path="url(#b)" d="m105.68 226.09v.31h-.02v-.31z" fill="#624d9f"/><path clip-path="url(#b)" d="m105.7 226.3v.1h-.02v-.31h.02z" fill="#634c9e"/><path clip-path="url(#b)" d="m105.7 226.4v-.1z" fill="#634c9e"/><path clip-path="url(#c)" d="m101.53 225.11-.02 1.09v-1.09z" fill="#11b4c4"/><path clip-path="url(#c)" d="m101.56 225.11-.04 1.81h-.01v-.72l.02-1.09z" fill="#11b4c4"/><path clip-path="url(#c)" d="m101.58 225.11-.04 1.81h-.02l.04-1.81z" fill="#14b3c4"/><path clip-path="url(#c)" d="m101.6 225.11-.03 1.81h-.03l.04-1.81z" fill="#10b2c5"/><path clip-path="url(#c)" d="m101.63 225.11-.04 1.81h-.02l.03-1.81z" fill="#10b2c6"/><path clip-path="url(#c)" d="m101.65 225.11-.04 1.81h-.02l.04-1.81z" fill="#12b1c6"/><path clip-path="url(#c)" d="m101.67 225.11-.03 1.81h-.03l.04-1.81z" fill="#0cb0c7"/><path clip-path="url(#c)" d="m101.7 225.11-.04 1.81h-.02l.03-1.81z" fill="#10afc7"/><path clip-path="url(#c)" d="m101.72 225.11-.04 1.81h-.02l.04-1.81z" fill="#13aec7"/><path clip-path="url(#c)" d="m101.74 225.11-.03 1.81h-.03l.04-1.81z" fill="#17adc7"/><path clip-path="url(#c)" d="m101.77 225.11-.04 1.81h-.02l.03-1.81z" fill="#19acc7"/><path clip-path="url(#c)" d="m101.79 225.11-.04 1.81h-.02l.04-1.81z" fill="#13abc9"/><path clip-path="url(#c)" d="m101.81 225.11-.03 1.81h-.03l.04-1.81z" fill="#10aac9"/><path clip-path="url(#c)" d="m101.84 225.11-.04 1.81h-.02l.03-1.81z" fill="#11a9ca"/><path clip-path="url(#c)" d="m101.86 225.11-.04 1.81h-.02l.04-1.81z" fill="#0aa8ca"/><path clip-path="url(#c)" d="m101.88 225.11-.03 1.81h-.03l.04-1.81z" fill="#0ea7ca"/><path clip-path="url(#c)" d="m101.91 225.11-.04 1.81h-.02l.03-1.81z" fill="#11a6cb"/><path clip-path="url(#c)" d="m101.93 225.11-.04 1.81h-.02l.04-1.81z" fill="#15a5cb"/><path clip-path="url(#c)" d="m101.95 225.11-.03 1.81h-.03l.04-1.81z" fill="#14a4cc"/><path clip-path="url(#c)" d="m101.98 225.11-.04 1.81h-.02l.03-1.81z" fill="#11a3cd"/><path clip-path="url(#c)" d="m102 225.11-.04 1.81h-.02l.04-1.81z" fill="#14a2cd"/><path clip-path="url(#c)" d="m102.02 225.11-.03 1.81h-.03l.04-1.81z" fill="#16a1cd"/><path clip-path="url(#c)" d="m102.05 225.11-.04 1.81h-.02l.03-1.81z" fill="#19a0cd"/><path clip-path="url(#c)" d="m102.07 225.11-.04 1.81h-.02l.04-1.81z" fill="#169fcd"/><path clip-path="url(#c)" d="m102.09 225.11-.03 1.81h-.03l.04-1.81z" fill="#189ece"/><path clip-path="url(#c)" d="m102.11 225.11-.03 1.81h-.02l.03-1.81z" fill="#199dce"/><path clip-path="url(#c)" d="m102.14 225.11-.04 1.81h-.02l.03-1.81z" fill="#199ccf"/><path clip-path="url(#c)" d="m102.16 225.11-.03 1.81h-.03l.04-1.81z" fill="#1c9bcf"/><path clip-path="url(#c)" d="m102.18 225.11-.03 1.81h-.02l.03-1.81z" fill="#1e9acf"/><path clip-path="url(#c)" d="m102.21 225.11-.04 1.81h-.02l.03-1.81z" fill="#1999d1"/><path clip-path="url(#c)" d="m102.23 225.11-.04 1.81h-.02l.04-1.81z" fill="#1798d0"/><path clip-path="url(#c)" d="m102.25 225.11-.03 1.81h-.03l.04-1.81z" fill="#1997d1"/><path clip-path="url(#c)" d="m102.28 225.11-.04 1.81h-.02l.03-1.81z" fill="#1b96d1"/><path clip-path="url(#c)" d="m102.3 225.11-.04 1.81h-.02l.04-1.81z" fill="#1c95d1"/><path clip-path="url(#c)" d="m102.32 225.11-.03 1.81h-.03l.04-1.81z" fill="#1e94d2"/><path clip-path="url(#c)" d="m102.35 225.11-.04 1.81h-.02l.03-1.81z" fill="#2193d1"/><path clip-path="url(#c)" d="m102.37 225.11-.04 1.81h-.02l.04-1.81z" fill="#2392d0"/><path clip-path="url(#c)" d="m102.39 225.11-.03 1.81h-.03l.04-1.81z" fill="#2591cf"/><path clip-path="url(#c)" d="m102.42 225.11-.04 1.81h-.02l.03-1.81z" fill="#258fce"/><path clip-path="url(#c)" d="m102.44 225.11-.04 1.81h-.02l.04-1.81z" fill="#278ecd"/><path clip-path="url(#c)" d="m102.46 225.11-.03 1.81h-.03l.04-1.81z" fill="#298dcd"/><path clip-path="url(#c)" d="m102.49 225.11-.04 1.81h-.02l.03-1.81z" fill="#2b8ccc"/><path clip-path="url(#c)" d="m102.51 225.11-.04 1.81h-.02l.04-1.81z" fill="#2d8bca"/><path clip-path="url(#c)" d="m102.53 225.11-.03 1.81h-.03l.04-1.81z" fill="#2d8aca"/><path clip-path="url(#c)" d="m102.56 225.11-.04 1.81h-.02l.03-1.81z" fill="#2e88c9"/><path clip-path="url(#c)" d="m102.58 225.11-.04 1.81h-.02l.04-1.81z" fill="#3187c8"/><path clip-path="url(#c)" d="m102.6 225.11-.03 1.81h-.03l.04-1.81z" fill="#3086c7"/><path clip-path="url(#c)" d="m102.63 225.11-.04 1.81h-.02l.03-1.81z" fill="#3285c6"/><path clip-path="url(#c)" d="m102.65 225.11-.04 1.81h-.02l.04-1.81z" fill="#3384c5"/><path clip-path="url(#c)" d="m102.67 225.11-.03 1.81h-.03l.04-1.81z" fill="#3482c4"/><path clip-path="url(#c)" d="m102.7 225.11-.04 1.81h-.02l.03-1.81z" fill="#3781c3"/><path clip-path="url(#c)" d="m102.72 225.11-.04 1.81h-.02l.04-1.81z" fill="#3880c2"/><path clip-path="url(#c)" d="m102.74 225.11-.03 1.81h-.03l.04-1.81z" fill="#387fc1"/><path clip-path="url(#c)" d="m102.76 225.11-.03 1.81h-.02l.03-1.81z" fill="#397ec0"/><path clip-path="url(#c)" d="m102.79 225.11-.04 1.81h-.02l.03-1.81z" fill="#3a7dc0"/><path clip-path="url(#c)" d="m102.81 225.11-.03 1.81h-.03l.04-1.81z" fill="#3b7cbf"/><path clip-path="url(#c)" d="m102.83 225.11-.03 1.81h-.02l.03-1.81z" fill="#3b7bbe"/><path clip-path="url(#c)" d="m102.86 225.11-.04 1.81h-.02l.03-1.81z" fill="#3c7abd"/><path clip-path="url(#c)" d="m102.88 225.11-.03 1.81h-.03l.04-1.81z" fill="#3d79bd"/><path clip-path="url(#c)" d="m102.9 225.11-.03 1.81h-.02l.03-1.81z" fill="#3c79bc"/><path clip-path="url(#c)" d="m102.93 225.11-.04 1.81h-.02l.03-1.81z" fill="#3f77bb"/><path clip-path="url(#c)" d="m102.95 225.11-.04 1.81h-.02l.04-1.81z" fill="#4076ba"/><path clip-path="url(#c)" d="m102.97 225.39-.03 1.53h-.03l.04-1.81h.02z" fill="#4076ba"/><path clip-path="url(#c)" d="m102.97 226.56-.01.36h-.02l.03-1.53z" fill="#4075b9"/><path clip-path="url(#c)" d="m102.96 226.92.01-.36v.36z" fill="#4174b8"/><path clip-path="url(#d)" d="m103.21 225.11-.01.51v-.51z" fill="#426cb3"/><path clip-path="url(#d)" d="m103.23 225.11-.03 1.67v-1.16l.01-.51z" fill="#416cb3"/><path clip-path="url(#d)" d="m103.25 225.11-.03 1.81h-.02v-.14l.03-1.67z" fill="#426bb3"/><path clip-path="url(#d)" d="m103.28 225.11-.04 1.81h-.02l.03-1.81z" fill="#436ab2"/><path clip-path="url(#d)" d="m103.3 225.11-.04 1.81h-.02l.04-1.81z" fill="#436ab2"/><path clip-path="url(#d)" d="m103.32 225.11-.03 1.81h-.03l.04-1.81z" fill="#4469b1"/><path clip-path="url(#d)" d="m103.35 225.11-.04 1.81h-.02l.03-1.81z" fill="#4468b1"/><path clip-path="url(#d)" d="m103.37 225.11-.04 1.81h-.02l.04-1.81z" fill="#4368b0"/><path clip-path="url(#d)" d="m103.39 225.11-.03 1.81h-.03l.04-1.81z" fill="#4367b0"/><path clip-path="url(#d)" d="m103.42 225.11-.04 1.81h-.02l.03-1.81z" fill="#4466af"/><path clip-path="url(#d)" d="m103.44 225.11-.04 1.81h-.02l.04-1.81z" fill="#4566af"/><path clip-path="url(#d)" d="m103.46 225.11-.03 1.81h-.03l.04-1.81z" fill="#4565af"/><path clip-path="url(#d)" d="m103.48 225.11-.03 1.81h-.02l.03-1.81z" fill="#4465ae"/><path clip-path="url(#d)" d="m103.51 225.11-.04 1.81h-.02l.03-1.81z" fill="#4464ae"/><path clip-path="url(#d)" d="m103.53 225.11-.03 1.81h-.03l.04-1.81z" fill="#4664ae"/><path clip-path="url(#d)" d="m103.55 225.11-.03 1.81h-.02l.03-1.81z" fill="#4663ad"/><path clip-path="url(#d)" d="m103.58 225.11-.04 1.81h-.02l.03-1.81z" fill="#4663ad"/><path clip-path="url(#d)" d="m103.58 226.17-.02.75h-.02l.04-1.81z" fill="#4662ac"/><path clip-path="url(#d)" d="m103.56 226.92.02-.75v.75z" fill="#4562ac"/><path clip-path="url(#e)" d="m103.88 225.11-.02 1.06v-1.06z" fill="#485ea9"/><path clip-path="url(#e)" d="m103.9 225.11-.03 1.81h-.01v-.75l.02-1.06z" fill="#475da9"/><path clip-path="url(#e)" d="m103.93 225.11-.04 1.81h-.02l.03-1.81z" fill="#475da9"/><path clip-path="url(#e)" d="m103.95 225.11-.04 1.81h-.02l.04-1.81z" fill="#475ca9"/><path clip-path="url(#e)" d="m103.97 225.11-.03 1.81h-.03l.04-1.81z" fill="#475ca9"/><path clip-path="url(#e)" d="m104 225.11-.04 1.81h-.02l.03-1.81z" fill="#485ca8"/><path clip-path="url(#e)" d="m104.02 225.11-.04 1.81h-.02l.04-1.81z" fill="#485ca8"/><path clip-path="url(#e)" d="m104.04 225.11-.03 1.81h-.03l.04-1.81z" fill="#485ba8"/><path clip-path="url(#e)" d="m104.07 225.11-.04 1.81h-.02l.03-1.81z" fill="#485ba8"/><path clip-path="url(#e)" d="m104.09 225.11-.04 1.81h-.02l.04-1.81z" fill="#485ba8"/><path clip-path="url(#e)" d="m104.11 225.11-.03 1.81h-.03l.04-1.81z" fill="#495aa7"/><path clip-path="url(#e)" d="m104.14 225.11-.04 1.81h-.02l.03-1.81z" fill="#495aa7"/><path clip-path="url(#e)" d="m104.16 225.11-.04 1.81h-.02l.04-1.81z" fill="#495aa7"/><path clip-path="url(#e)" d="m104.18 225.11-.03 1.81h-.03l.04-1.81z" fill="#495aa7"/><path clip-path="url(#e)" d="m104.2 225.11-.03 1.81h-.02l.03-1.81z" fill="#4959a7"/><path clip-path="url(#e)" d="m104.23 225.11-.04 1.81h-.02l.03-1.81z" fill="#4959a7"/><path clip-path="url(#e)" d="m104.25 225.11-.03 1.81h-.03l.04-1.81z" fill="#4959a7"/><path clip-path="url(#e)" d="m104.27 225.11-.03 1.81h-.02l.03-1.81z" fill="#4a59a6"/><path clip-path="url(#e)" d="m104.3 225.11-.04 1.81h-.02l.03-1.81z" fill="#4a59a6"/><path clip-path="url(#e)" d="m104.32 225.11-.04 1.81h-.02l.04-1.81z" fill="#4a59a6"/><path clip-path="url(#e)" d="m104.34 225.11-.03 1.81h-.03l.04-1.81z" fill="#4a58a6"/><path clip-path="url(#e)" d="m104.37 225.11-.04 1.81h-.02l.03-1.81z" fill="#4a58a6"/><path clip-path="url(#e)" d="m104.39 225.11-.04 1.81h-.02l.04-1.81z" fill="#4a58a6"/><path clip-path="url(#e)" d="m104.41 225.11-.03 1.81h-.03l.04-1.81z" fill="#4a58a6"/><path clip-path="url(#e)" d="m104.44 225.11-.04 1.81h-.02l.03-1.81z" fill="#4a57a5"/><path clip-path="url(#e)" d="m104.46 225.11-.04 1.81h-.02l.04-1.81z" fill="#4a57a5"/><path clip-path="url(#e)" d="m104.48 225.11-.03 1.81h-.03l.04-1.81z" fill="#4a57a5"/><path clip-path="url(#e)" d="m104.51 225.11-.04 1.81h-.02l.03-1.81z" fill="#4a57a5"/><path clip-path="url(#e)" d="m104.53 225.11-.04 1.81h-.02l.04-1.81z" fill="#4b56a5"/><path clip-path="url(#e)" d="m104.55 225.11-.03 1.81h-.03l.04-1.81z" fill="#4b56a5"/><path clip-path="url(#e)" d="m104.58 225.11-.04 1.81h-.02l.03-1.81z" fill="#4b56a5"/><path clip-path="url(#e)" d="m104.6 225.11-.04 1.81h-.02l.04-1.81z" fill="#4b56a5"/><path clip-path="url(#e)" d="m104.62 225.11-.03 1.81h-.03l.04-1.81z" fill="#4b56a5"/><path clip-path="url(#e)" d="m104.65 225.11-.04 1.81h-.02l.03-1.81z" fill="#4a56a5"/><path clip-path="url(#e)" d="m104.67 225.11-.04 1.81h-.02l.04-1.81z" fill="#4a56a5"/><path clip-path="url(#e)" d="m104.69 225.11-.03 1.81h-.03l.04-1.81z" fill="#4a56a5"/><path clip-path="url(#e)" d="m104.72 225.11-.04 1.81h-.02l.03-1.81z" fill="#4a56a5"/><path clip-path="url(#e)" d="m104.74 225.11-.04 1.81h-.02l.04-1.81z" fill="#4a56a4"/><path clip-path="url(#e)" d="m104.76 225.11-.03 1.81h-.03l.04-1.81z" fill="#4b56a4"/><path clip-path="url(#e)" d="m104.79 225.11-.04 1.81h-.02l.03-1.81z" fill="#4b56a4"/><path clip-path="url(#e)" d="m104.81 225.11-.04 1.81h-.02l.04-1.81z" fill="#4b55a4"/><path clip-path="url(#e)" d="m104.83 225.11-.03 1.81h-.03l.04-1.81z" fill="#4b55a4"/><path clip-path="url(#e)" d="m104.86 225.11-.04 1.81h-.02l.03-1.81z" fill="#4d55a4"/><path clip-path="url(#e)" d="m104.88 225.11-.04 1.81h-.02l.04-1.81z" fill="#4e55a4"/><path clip-path="url(#e)" d="m104.9 225.11-.03 1.81h-.03l.04-1.81z" fill="#4f54a3"/><path clip-path="url(#e)" d="m104.93 225.11-.04 1.81h-.02l.03-1.81z" fill="#4f54a3"/><path clip-path="url(#e)" d="m104.95 225.11-.03 1.81h-.03l.04-1.81z" fill="#4f54a3"/><path clip-path="url(#e)" d="m104.97 225.11-.03 1.81h-.02l.03-1.81z" fill="#4f54a3"/><path clip-path="url(#e)" d="m105 225.11-.04 1.81h-.02l.03-1.81z" fill="#5054a3"/><path clip-path="url(#e)" d="m105.02 225.11-.03 1.81h-.03l.04-1.81z" fill="#5054a3"/><path clip-path="url(#e)" d="m105.05 225.11-.04 1.81h-.02l.03-1.81z" fill="#5054a3"/><path clip-path="url(#e)" d="m105.07 225.11-.04 1.81h-.02l.04-1.81z" fill="#5154a3"/><path clip-path="url(#e)" d="m105.09 225.11-.03 1.81h-.03l.04-1.81z" fill="#5153a3"/><path clip-path="url(#e)" d="m105.12 225.11-.04 1.81h-.02l.03-1.81z" fill="#5353a2"/><path clip-path="url(#e)" d="m105.14 225.11-.04 1.81h-.02l.04-1.81z" fill="#5452a2"/><path clip-path="url(#e)" d="m105.16 225.11-.03 1.81h-.03l.04-1.81z" fill="#5552a2"/><path clip-path="url(#e)" d="m105.19 225.11-.04 1.81h-.02l.03-1.81z" fill="#5552a2"/><path clip-path="url(#e)" d="m105.21 225.11-.04 1.81h-.02l.04-1.81z" fill="#5552a2"/><path clip-path="url(#e)" d="m105.23 225.54-.03 1.38h-.03l.04-1.81h.02z" fill="#5652a2"/><path clip-path="url(#e)" d="m105.23 226.72-.01.2h-.02l.03-1.38z" fill="#5652a2"/><path clip-path="url(#e)" d="m105.22 226.92.01-.2v.2z" fill="#5651a1"/><path clip-path="url(#f)" d="m106.74 225.1-.02.97v-.97z" fill="#893b95"/><path clip-path="url(#f)" d="m106.76 225.1-.03 1.81h-.01v-.84l.02-.97z" fill="#8b3a95"/><path clip-path="url(#f)" d="m106.79 225.1-.04 1.81h-.02l.03-1.81z" fill="#8b3a95"/><path clip-path="url(#f)" d="m106.81 225.1-.04 1.81h-.02l.04-1.81z" fill="#8d3994"/><path clip-path="url(#f)" d="m106.85 225.1-.04 1.81h-.04l.04-1.81z" fill="#8d3994"/><path clip-path="url(#f)" d="m106.89 225.1-.04 1.81h-.04l.04-1.81z" fill="#8d3a95"/><path clip-path="url(#f)" d="m106.93 225.1-.04 1.81h-.04l.04-1.81z" fill="#8d3b95"/><path clip-path="url(#f)" d="m106.97 225.1-.04 1.81h-.04l.04-1.81z" fill="#8b3c95"/><path clip-path="url(#f)" d="m107.01 225.1-.04 1.81h-.04l.04-1.81z" fill="#8b3c96"/><path clip-path="url(#f)" d="m107.05 225.1-.04 1.81h-.04l.04-1.81z" fill="#8b3d96"/><path clip-path="url(#f)" d="m107.09 225.1-.04 1.81h-.04l.04-1.81z" fill="#8a3e96"/><path clip-path="url(#f)" d="m107.13 225.1-.04 1.81h-.04l.04-1.81z" fill="#8a3f97"/><path clip-path="url(#f)" d="m107.17 225.1-.04 1.81h-.04l.04-1.81z" fill="#894097"/><path clip-path="url(#f)" d="m107.21 225.1-.04 1.81h-.04l.04-1.81z" fill="#894097"/><path clip-path="url(#f)" d="m107.25 225.1-.04 1.81h-.04l.04-1.81z" fill="#894198"/><path clip-path="url(#f)" d="m107.29 225.1-.04 1.81h-.04l.04-1.81z" fill="#884298"/><path clip-path="url(#f)" d="m107.33 225.1-.04 1.81h-.04l.04-1.81z" fill="#874398"/><path clip-path="url(#f)" d="m107.37 225.1-.04 1.81h-.04l.04-1.81z" fill="#874399"/><path clip-path="url(#f)" d="m107.41 225.1-.04 1.81h-.04l.04-1.81z" fill="#874499"/><path clip-path="url(#f)" d="m107.44 225.1-.03 1.81h-.04l.04-1.81z" fill="#864599"/><path clip-path="url(#f)" d="m107.48 225.1-.03 1.81h-.04l.03-1.81z" fill="#864599"/><path clip-path="url(#f)" d="m107.52 225.1-.03 1.81h-.04l.03-1.81z" fill="#85469a"/><path clip-path="url(#f)" d="m107.56 225.1-.03 1.81h-.04l.03-1.81z" fill="#85479a"/><path clip-path="url(#f)" d="m107.6 225.1-.03 1.81h-.04l.03-1.81z" fill="#85479b"/><path clip-path="url(#f)" d="m107.64 225.1-.03 1.81h-.04l.03-1.81z" fill="#85489b"/><path clip-path="url(#f)" d="m107.68 225.1-.03 1.81h-.04l.03-1.81z" fill="#84489b"/><path clip-path="url(#f)" d="m107.72 225.1-.03 1.81h-.04l.03-1.81z" fill="#84499b"/><path clip-path="url(#f)" d="m107.76 225.1-.03 1.81h-.04l.03-1.81z" fill="#85499b"/><path clip-path="url(#f)" d="m107.8 225.1-.03 1.81h-.04l.03-1.81z" fill="#854a9c"/><path clip-path="url(#f)" d="m107.84 225.1-.03 1.81h-.04l.03-1.81z" fill="#854b9c"/><path clip-path="url(#f)" d="m107.88 225.1-.04 1.81h-.03l.03-1.81z" fill="#844c9d"/><path clip-path="url(#f)" d="m107.92 225.1-.04 1.81h-.04l.04-1.81z" fill="#834c9d"/><path clip-path="url(#f)" d="m107.96 225.1-.04 1.81h-.04l.04-1.81z" fill="#834d9d"/><path clip-path="url(#f)" d="m108 225.1-.04 1.81h-.04l.04-1.81z" fill="#834e9e"/><path clip-path="url(#f)" d="m108.04 225.1-.04 1.81h-.04l.04-1.81z" fill="#834e9e"/><path clip-path="url(#f)" d="m108.08 225.1-.04 1.81h-.04l.04-1.81z" fill="#824f9f"/><path clip-path="url(#f)" d="m108.12 225.1-.04 1.81h-.04l.04-1.81z" fill="#824f9f"/><path clip-path="url(#f)" d="m108.16 225.1-.04 1.81h-.04l.04-1.81z" fill="#82509f"/><path clip-path="url(#f)" d="m108.2 225.1-.04 1.81h-.04l.04-1.81z" fill="#82509f"/><path clip-path="url(#f)" d="m108.24 225.1-.04 1.81h-.04l.04-1.81z" fill="#8052a0"/><path clip-path="url(#f)" d="m108.28 225.1-.04 1.81h-.04l.04-1.81z" fill="#8052a0"/><path clip-path="url(#f)" d="m108.29 226.63-.01.28h-.04l.04-1.81h.01z" fill="#8053a1"/><path clip-path="url(#f)" d="m108.28 226.91.01-.28v.28z" fill="#8054a1"/><path d="m101.53 229.37h4.67l.46-2.15h-4.67z"/><path d="m107.72 229.37h.15l.46-2.14h-.16z"/><path d="m107.46 229.37h.15l.46-2.14h-.16z"/><path d="m107.19 229.37h.15l.46-2.14h-.16z"/><path d="m106.91 229.37h.15l.45-2.14h-.15z"/><path d="m106.63 229.37h.15l.45-2.14h-.15z"/><path d="m106.33 229.37h.16l.45-2.14h-.15z"/><path d="m101.51 229.37h4.67l.47-2.15h-4.67z" fill="#7d5ca6"/><path d="m107.71 229.37h.15l.45-2.14h-.15z" fill="#e53044"/><path d="m107.45 229.37h.15l.45-2.14h-.15z" fill="#f38020"/><path d="m107.18 229.37h.15l.45-2.14h-.15z" fill="#f8ec23"/><path d="m106.89 229.37h.16l.45-2.14h-.15z" fill="#b7cc33"/><path d="m106.61 229.37h.15l.45-2.14h-.15z" fill="#12b6ba"/><path d="m106.32 229.37h.15l.45-2.14h-.15z" fill="#2b78bc"/><path d="m103.2 229-.07-.41h-.56l-.22.41h-.25l.83-1.47h.26l.26 1.47zm-.09-.61-.06-.4c0-.03-.01-.07-.02-.13s-.01-.1-.01-.13c-.03.08-.08.17-.13.27l-.21.38h.43z"/><path d="m104.8 227.98c-.03.15-.1.27-.22.35s-.26.12-.45.12h-.15l-.11.55h-.24l.28-1.47h.42c.18 0 .31.04.39.11.09.08.11.19.08.34zm-.77.27h.13c.12 0 .22-.02.28-.06.07-.04.11-.11.12-.2.02-.08 0-.15-.04-.19s-.12-.06-.23-.06h-.17z"/><path d="m106.06 227.98c-.03.15-.1.27-.22.35s-.26.12-.45.12h-.15l-.11.55h-.24l.28-1.47h.42c.18 0 .31.04.39.11.08.08.11.19.08.34zm-.78.27h.13c.12 0 .22-.02.28-.06.07-.04.11-.11.12-.2.02-.08 0-.15-.04-.19s-.12-.06-.23-.06h-.17z"/><path d="m103.18 229-.07-.41h-.56l-.22.41h-.25l.83-1.47h.26l.26 1.47zm-.09-.62-.06-.4c0-.03-.01-.07-.02-.13s-.01-.1-.01-.13c-.03.08-.08.17-.13.27l-.21.38h.43z" fill="#fff"/><path d="m104.78 227.98c-.03.15-.1.27-.22.35s-.26.12-.45.12h-.15l-.11.55h-.24l.28-1.47h.42c.18 0 .31.04.39.11.09.08.11.19.08.34zm-.77.27h.13c.12 0 .22-.02.28-.06.07-.04.11-.11.12-.2.02-.08 0-.15-.04-.19s-.12-.06-.23-.06h-.17z" fill="#fff"/><path d="m106.04 227.98c-.03.15-.1.27-.22.35s-.26.12-.45.12h-.15l-.11.55h-.24l.28-1.47h.42c.18 0 .31.04.39.11.08.08.11.19.08.34zm-.78.27h.13c.12 0 .22-.02.28-.06.07-.04.11-.11.12-.2.02-.08 0-.15-.04-.19s-.12-.06-.23-.06h-.17z" fill="#fff"/><path d="m199.88 340.19h5.66v147.92h-5.66z" fill="#e6faff"/><ellipse cx="250.35" cy="96.36" fill="#d3cfda" opacity=".75" rx="43.56" ry="43.56" transform="matrix(.1602 -.9871 .9871 .1602 115.1291 328.0412)"/><circle cx="159.26" cy="40.07" fill="#d3cfda" opacity=".75" r="34.88"/><circle cx="111.42" cy="132.96" fill="#d3cfda" opacity=".75" r="26.82"/><path d="m270.37 253.16c0 .84-.68 1.52-1.52 1.52s-1.52-.68-1.52-1.52.68-1.52 1.52-1.52 1.52.68 1.52 1.52z" fill="#2b2438"/><path d="m236.82 252.32h32.04v1.69h-32.04z" fill="#2b2438"/><path d="m219.99 254.01h16.83v-1.69h-18.52c0 .93.76 1.69 1.69 1.69z" fill="#493d60"/><path d="m284.12 219.1-16.03 33.7 1.52.72 15.31-32.18c.4-.83.04-1.84-.8-2.24z" fill="#2b2438"/><path d="m265.61 219.1-15.8 33.22h18.51l15.8-33.22z" fill="#493d60"/><path d="m268.69 247.03 12.36-25.99h-14.22l-12.36 25.99z" fill="#fff"/><path d="m261.53 249.71c-.24.77-.93 1.39-1.54 1.39s-.91-.62-.67-1.39.93-1.39 1.54-1.39.91.62.67 1.39z" fill="#2b2438"/><path d="m258.28 110.43-4.17-1.43.55-3.66-2.9-2.56-3.56 1-1.94-3.96 2.98-2.2-.24-3.86-3.23-1.81 1.43-4.17 3.66.55 2.56-2.9-1-3.56 3.96-1.94 2.2 2.98 3.86-.24 1.81-3.23 4.17 1.43-.55 3.66 2.9 2.56 3.56-1 1.94 3.96-2.98 2.2.24 3.86 3.23 1.81-1.43 4.17-3.66-.55-2.56 2.9 1 3.56-3.96 1.94-2.2-2.98-3.86.24zm-2.72-2.31 2.11.72 1.62-2.9 5.28-.33 1.97 2.67 2.01-.98-.9-3.2 3.5-3.97 3.29.5.72-2.11-2.9-1.62-.33-5.28 2.67-1.97-.98-2.01-3.2.9-3.97-3.5.49-3.29-2.11-.72-1.62 2.9-5.28.33-1.97-2.67-2.01.98.9 3.2-3.5 3.97-3.29-.5-.72 2.11 2.9 1.62.33 5.28-2.67 1.97.98 2.01 3.2-.9 3.97 3.5zm5.69-6.78c-.69 0-1.39-.11-2.07-.35-1.62-.56-2.93-1.71-3.68-3.24-.75-1.54-.86-3.28-.31-4.9 1.15-3.34 4.8-5.14 8.14-3.99 1.62.55 2.93 1.71 3.68 3.24.75 1.54.86 3.28.31 4.9-.91 2.67-3.41 4.34-6.07 4.34zm.01-11.51c-2.12 0-4.11 1.33-4.83 3.45-.44 1.29-.36 2.68.24 3.9.6 1.23 1.64 2.14 2.93 2.59 2.66.91 5.57-.51 6.48-3.18.44-1.29.36-2.68-.24-3.9-.6-1.23-1.64-2.14-2.93-2.59-.55-.19-1.1-.27-1.65-.27z" fill="#f1f2f2"/><path d="m233.31 119.1-3.18-.39-.15-2.42-1.92-1.08-2.15 1.13-1.97-2.52 1.61-1.81-.59-2.13-2.32-.72.38-3.18 2.42-.15 1.08-1.92-1.13-2.15 2.52-1.98 1.81 1.61 2.13-.59.72-2.32 3.18.39.15 2.42 1.92 1.08 2.15-1.13 1.97 2.52-1.61 1.81.59 2.13 2.32.72-.38 3.18-2.42.15-1.08 1.92 1.13 2.14-2.52 1.98-1.81-1.61-2.13.59zm-1.95-1.55 1.02.12.61-1.96 3.49-.97 1.53 1.36.81-.63-.95-1.81 1.78-3.16 2.04-.12.12-1.02-1.96-.61-.98-3.49 1.36-1.53-.63-.81-1.81.95-3.16-1.78-.12-2.04-1.02-.12-.61 1.96-3.49.97-1.53-1.36-.81.63.95 1.81-1.78 3.16-2.04.12-.12 1.02 1.96.61.98 3.49-1.36 1.53.63.81 1.81-.95 3.16 1.78zm1.59-4.43c-.18 0-.35-.01-.53-.03-2.36-.29-4.05-2.44-3.77-4.81.14-1.15.71-2.17 1.62-2.88s2.04-1.03 3.18-.89 2.17.71 2.88 1.62 1.03 2.04.89 3.18c-.14 1.15-.71 2.17-1.62 2.88-.76.61-1.69.93-2.65.93zm-.02-7.34c-.67 0-1.32.22-1.85.64-.63.5-1.04 1.21-1.13 2.01-.2 1.65.98 3.16 2.63 3.36.8.1 1.59-.12 2.22-.62s1.04-1.21 1.13-2.01c.1-.8-.12-1.59-.62-2.22s-1.21-1.04-2.01-1.13c-.12-.02-.24-.03-.37-.03z" fill="#f1f2f2"/><path d="m237.1 90.49-2.7-.26-.16-1.91-1.36-.72-1.67.93-1.73-2.1 1.24-1.46-.45-1.47-1.84-.52.26-2.71 1.91-.16.72-1.36-.93-1.67 2.1-1.73 1.46 1.24 1.47-.45.52-1.84 2.7.26.16 1.91 1.36.72 1.67-.93 1.73 2.1-1.23 1.46.45 1.47 1.84.53-.26 2.7-1.91.16-.72 1.36.93 1.67-2.1 1.73-1.46-1.23-1.47.45zm-1.5-1.46.54.05.42-1.48 2.83-.86 1.17.99.42-.34-.75-1.34 1.39-2.61 1.53-.13.05-.54-1.48-.42-.86-2.83.99-1.17-.34-.42-1.34.75-2.61-1.39-.13-1.53-.54-.05-.42 1.48-2.83.86-1.17-.99-.42.34.75 1.34-1.39 2.61-1.53.13-.05.54 1.48.42.86 2.83-.99 1.17.34.42 1.34-.75 2.61 1.39z" fill="#f1f2f2"/><path d="m172.95 57.51c0 .38-.35.68-.77.68h-29.2c-.43 0-.77-.31-.77-.68v-39.13c0-.38.35-.69.77-.69h29.2c.43 0 .77.31.77.69z" fill="#619fa1"/><path d="m172.95 56.54c0 .38-.35.68-.77.68h-29.2c-.43 0-.77-.3-.77-.68v-39.13c0-.38.35-.68.77-.68h29.2c.43 0 .77.31.77.68z" fill="#262262"/><path d="m171.41 54.58c0 .34-.31.62-.7.62h-26.28c-.39 0-.7-.28-.7-.62v-35.21c0-.34.31-.62.7-.62h26.28c.38 0 .7.28.7.62z" fill="#fff"/><path d="m154.62 12.55h5.97v3.4h-5.97z" fill="#8dc9c9"/><path d="m152.9 15.4h9.36v2.23h-9.36z" fill="#8dc9c9"/><path d="m156.46 44.71h11.77v1.43h-11.77z" fill="#e2f0f1"/><path d="m156.46 47.79h11.77v1.43h-11.77z" fill="#e2f0f1"/><path d="m156.28 34.92h11.77v1.43h-11.77z" fill="#e2f0f1"/><path d="m156.28 38h11.77v1.43h-11.77z" fill="#e2f0f1"/><path d="m149.74 43.53c-1.9 0-3.44 1.54-3.44 3.44s1.54 3.44 3.44 3.44 3.44-1.54 3.44-3.44-1.54-3.44-3.44-3.44zm0 5.96c-1.39 0-2.52-1.13-2.52-2.52s1.13-2.52 2.52-2.52 2.52 1.13 2.52 2.52-1.13 2.52-2.52 2.52z" fill="#516777"/><path d="m148.11 46.56s1.3.91 1.88 2.08c0 0 1.35-3.56 2.61-4.5 0 0-1.93.99-2.73 3.08 0 0-.86-.68-1.76-.66z" fill="#d43945"/><path d="m149.74 33.92c-1.9 0-3.44 1.54-3.44 3.44s1.54 3.44 3.44 3.44 3.44-1.54 3.44-3.44-1.54-3.44-3.44-3.44zm0 5.97c-1.39 0-2.52-1.13-2.52-2.52s1.13-2.52 2.52-2.52 2.52 1.13 2.52 2.52c0 1.38-1.13 2.52-2.52 2.52z" fill="#516777"/><path d="m148.11 36.96s1.3.91 1.88 2.08c0 0 1.35-3.56 2.61-4.5 0 0-1.93.99-2.73 3.08 0 0-.86-.68-1.76-.66z" fill="#d43945"/><path d="m156.28 24.24h11.77v1.43h-11.77z" fill="#e2f0f1"/><path d="m156.28 27.32h11.77v1.43h-11.77z" fill="#e2f0f1"/><path d="m149.74 23.99c-1.9 0-3.44 1.54-3.44 3.44s1.54 3.44 3.44 3.44 3.44-1.54 3.44-3.44-1.54-3.44-3.44-3.44zm0 5.96c-1.39 0-2.52-1.13-2.52-2.52s1.13-2.52 2.52-2.52 2.52 1.13 2.52 2.52-1.13 2.52-2.52 2.52z" fill="#516777"/><path d="m148.11 27.02s1.3.91 1.88 2.08c0 0 1.35-3.56 2.61-4.5 0 0-1.93.99-2.73 3.08 0 0-.86-.68-1.76-.66z" fill="#d43945"/><path d="m169.63 46.02c.69.16 1.13.85.97 1.54-.16.69-.85 1.13-1.54.97l-4.77-1.08c-.69-.16-1.13-.85-.97-1.54.16-.69.85-1.13 1.54-.97z" fill="#dd9b6f"/><path d="m173.72 50.21c.47.53 1.6 2.7 1.07 3.17l-.4.73c-.53.47-2.26 1.99-2.06 1.31 1.01-3.47-3.77-7.18-3.77-7.18-.47-.53-.42-1.34.11-1.81.53-.47 1.35-.42 1.82.11z" fill="#dd9b6f"/><path d="m172.19 49.21-3.57-3.28c-.12-.11-.26-.19-.4-.25-.15-.09-.31-.15-.49-.17l-4.05-.22c-.23-.03 3.92.91 3.92.91l5.87 4.91c-.34-.74-.97-1.61-1.28-1.9z" fill="#cc8862"/><path d="m168.16 43.17c.71.07 1.22.71 1.15 1.41-.07.71-.71 1.22-1.41 1.15l-4.86-.51c-.71-.08-1.22-.71-1.15-1.42.07-.7.71-1.22 1.41-1.15z" fill="#dd9b6f"/><path d="m172.72 46.84c.53.47 1.91 2.49 1.43 3.02l-.3.77c-.48.53-.82-.01-1.35-.48l-5.13-4.66c-.53-.47-.57-1.29-.1-1.82.47-.53 1.29-.58 1.82-.1z" fill="#dd9b6f"/><path d="m168.64 40.76c.87.13 1.6.99 1.6.99l-.32 1.12c-.16 1.03-1.01 1.58-1.88 1.45l-6.98-1.32c-.98-.25-2.03-.85-1.85-1.77.22-1.19 1.55-1.24 2.86-1.13z" fill="#dd9b6f"/><path d="m160.32 40.13s-.09.14-.1.33c-.01.19.08.34.08.34.56.04 1.39.12 1.71.01.15-.05.19-.12.19-.2.01-.07-.04-.16-.18-.23-.32-.14-1.15-.2-1.7-.25z" fill="#f4af89"/><path d="m156.01 44.46h17.59v1.16h-17.59z" fill="#939925" transform="matrix(.9764 -.2161 .2161 .9764 -5.8394 36.6849)"/><path d="m155.76 43.32h17.59v1.16h-17.59z" fill="#c2c92f" transform="matrix(.9765 -.2154 .2154 .9765 -5.5941 36.4746)"/><path d="m155.51 42.19h17.59v1.16h-17.59z" fill="#d1d75b" transform="matrix(.9765 -.2157 .2157 .9765 -5.3571 36.4433)"/><path d="m174.07 40.02c-.58.13-.94.7-.81 1.27l.29 1.32c.13.57.7.94 1.27.81l1.14-.25c.58-.13.94-.7.81-1.27l-.29-1.32c-.13-.58-.7-.94-1.27-.81z" fill="#fbf1ec"/><path d="m173.12 40.11h1.4v3.49h-1.4z" fill="#fefaf8" transform="matrix(.9765 -.2157 .2157 .9765 -4.9365 38.4759)"/><path d="m173.12 41.13h1.4v1.46h-1.4z" fill="#fff" transform="matrix(.9766 -.2152 .2152 .9766 -4.935 38.3934)"/><path d="m152.9 47.06-1.67-.21 1.71-.17z" fill="#3a3c3e"/><path d="m156.09 46.37.25 1.13-3.44-.44.04-.38z" fill="#ffc150"/><path d="m151.23 46.85 1.41-.89.22.32z" fill="#6c7175"/><path d="m155.84 45.23-2.98 1.05-.22-.32 2.95-1.86z" fill="#ffd79a"/><path d="m156.09 46.37-3.15.31-.08-.4 2.98-1.05z" fill="#ffd076"/><path d="m151.23 46.85 1.63-.57.08.4z" fill="#6c7175"/><path d="m175.59 40.72c-.31.07-.48.54-.37 1.05s.46.87.78.8.48-.54.37-1.05c-.12-.51-.46-.87-.78-.8z" fill="#fffffb"/><path d="m168.09 44.91c.58.58 3.78 4.38 2.92 5.5-1.13 1.47-2.16 1.4-3.82.54-.97-.5-2.45-1.74-4.24-3.25-3.35-2.81-4.24-1.44-4.52-.65-.51 1.45 4.07 4.61 5.69 7.82 1.35 2.68 5.8 4.83 5.8 4.83l1.14 7.73 7.57-.95s-1.86-16.93-2.18-17.66c-.29-.65-2.33-3.31-4.33-4.8z" fill="#dd9b6f"/><path d="m159.73 46.75s-.23.29-.43.72v.01c-.19.42-.27.79-.27.79.51.24 1.26.6 1.69.44.19-.07.32-.23.39-.4.08-.16.12-.36.05-.55-.16-.44-.92-.78-1.43-1.01z" fill="#f4af89"/><path d="m164.05 52.46c-.05-.03-.04-.14.01-.24l.68-1.21c.06-.11.15-.17.2-.14.05.03.04.14-.02.24l-.68 1.21c-.05.1-.14.17-.19.14z" fill="#f4af89"/><path d="m163.67 52.25c-.05-.03-.04-.14.01-.24l.68-1.21c.06-.11.15-.17.2-.14.05.03.04.14-.02.24l-.68 1.21c-.05.1-.14.16-.19.14z" fill="#f4af89"/><path d="m181.18 66.98v.02c-3.46 2.78-7.09 4.59-10.23 5.77-.68-.53-1.24-1.22-1.6-2.05-.3-.7-.43-1.41-.43-2.12 0-.47.02-.96-.06-1.43l-.6-3.74 11.86-1.96.85 4.7c.1.26.15.54.21.81z" fill="#27aae1"/><text fill="#2b3990" font-family="'Lato-Semibold'" font-size="4.6885" transform="translate(144.7686 23.1479)">Exam Paper</text><path d="m108.55 114.31c-4.02 0-7.28 3.26-7.28 7.28 0 4.01 3.26 7.27 7.28 7.27s7.28-3.26 7.28-7.27c0-4.02-3.26-7.28-7.28-7.28zm-2.39 12.06v-9.57l6.39 4.79z" fill="none" stroke="#fff" stroke-miterlimit="10" stroke-width=".25"/><path d="m103.05 142.89c.93.55 1.83 1.09 2.74 1.63 1.18.7 2.37 1.41 3.55 2.11.82.48 1.8.29 2.36-.46 1.37-1.82 2.74-3.64 4.11-5.46.1-.13.19-.26.29-.41.27.16.44.39.51.71.15.76.3 1.53.45 2.29.31 1.59.63 3.18.94 4.77.13.65-.21 1.16-.85 1.29-3.88.77-7.75 1.53-11.63 2.3-.63.13-1.15-.22-1.27-.85-.47-2.35-.93-4.7-1.39-7.05-.07-.32 0-.61.19-.87z" fill="#fff"/><path d="m103.54 142.54c3.99-.79 7.98-1.58 12.02-2.38-.05.08-.08.13-.12.18-1.39 1.84-2.77 3.69-4.16 5.53-.4.53-1.09.67-1.66.33-1.98-1.18-3.97-2.35-5.95-3.53-.05-.03-.11-.05-.16-.07.01-.02.02-.04.03-.06zm5.22-.29c.63-.1 1.21 0 1.74.36s.85.86 1 1.47c.12-.02.23-.04.33-.07-.2-1.35-1.68-2.44-3.14-2.1.02.11.04.22.07.34zm2.45 1.89c-.11-.96-1.24-1.9-2.4-1.61.01.04.01.09.02.13.01.06.02.12.04.19 1.04-.09 1.71.36 2.02 1.35.11-.01.22-.03.32-.06zm-1.38.13c-.06-.28-.33-.47-.61-.41-.27.06-.45.32-.4.6.05.29.32.47.6.42s.47-.33.41-.61zm-.89-1.13c.02.12.05.23.07.34.66-.05 1.07.25 1.27.86.06-.01.11-.02.16-.03s.11-.03.16-.04c-.11-.75-.91-1.29-1.66-1.13z" fill="#fff"/><path d="m102.64 142.58c-.41-1.8.58-4.09 2.86-4.77 2.19-.66 4.49.58 5.15 2.78-.06.02-.12.03-.17.05-.87.17-1.73.34-2.6.52-.11.02-.17.01-.25-.09-.3-.38-.7-.54-1.17-.45s-.78.39-.91.86c-.03.12-.09.15-.2.17-.5.09-1 .21-1.51.29-.46.08-.88.23-1.2.64zm3.35-4.34c-.5.1-.82.58-.73 1.08.09.49.59.83 1.08.73s.82-.59.73-1.08c-.1-.51-.59-.83-1.08-.73zm2.89 2.66c.5-.1.83-.57.73-1.07-.09-.49-.58-.83-1.08-.73-.5.09-.83.58-.73 1.08s.58.82 1.08.72zm-4.56.9c.5-.1.82-.58.72-1.08s-.58-.82-1.08-.72-.82.58-.72 1.08c.1.51.58.82 1.08.72z" fill="#fff"/><path d="m116.37 139.83c-.25-.07-.5-.14-.71-.2 0-.16.03-.33-.01-.49-.02-.1-.13-.19-.22-.25-.21-.13-.47-.08-.63.1-.19.21-.17.45.06.77-.17.05-.32.1-.5-.02-.26-.17-.6-.09-.8.15-.16.19-.17.19-.45.21.07-.42 0-.62-.26-.74-.22-.09-.46-.03-.61.16-.17.21-.14.44.08.74-.21.04-.41.08-.61.12-.22-.92.76-2.16 1.88-2.39 1.27-.26 2.58.6 2.78 1.84zm-2.71-1.5c-.28.05-.47.33-.41.61.06.27.33.45.6.4s.46-.32.41-.59c-.04-.28-.32-.47-.6-.42z" fill="#fff"/><path d="m270.7 229.82 1.05-2.01h.45l-1.05 2.01z"/><path d="m269.85 229.24.18-.34h.79l-.18.34z"/><path d="m267.1 229.82h-.52l-.12-.85-.26.13-.37.72h-.45l1.05-2.01h.45l-.48.92.3-.24.94-.68h.5l-1.21.89z"/><path d="m267.37 229.82 1.05-2.01h.45l-1.05 2.01z"/><path d="m269.19 229.82h-.45l.86-1.66h-.58l.18-.35h1.62l-.18.35h-.58z"/><path d="m274.45 227.8-1.05 2.02h-.26c-.04 0-.07-.01-.09-.02s-.03-.03-.05-.06l-.37-1.2c-.01.04-.03.07-.05.1s-.03.07-.05.09l-.56 1.08h-.43l1.05-2.02h.26.05c.01 0 .02.01.03.01.01.01.02.01.02.02.01.01.01.02.02.04l.38 1.21c.02-.04.03-.08.05-.11.02-.04.03-.07.05-.1l.56-1.07h.44z"/><path clip-path="url(#g)" d="m271.7 227.81-.08.16z" fill="#6c499c"/><path clip-path="url(#g)" d="m271.73 227.81-.8 1.48.69-1.32.08-.16z" fill="#6d489c"/><path clip-path="url(#g)" d="m271.76 227.81-1.09 2.01h-.02l.28-.53.8-1.48z" fill="#6d489c"/><path clip-path="url(#g)" d="m271.79 227.81-1.09 2.01h-.03l1.09-2.01z" fill="#6e489c"/><path clip-path="url(#g)" d="m271.81 227.81-1.08 2.01h-.03l1.09-2.01z" fill="#6f479b"/><path clip-path="url(#g)" d="m271.84 227.81-1.09 2.01h-.02l1.08-2.01z" fill="#71479b"/><path clip-path="url(#g)" d="m271.87 227.81-1.09 2.01h-.03l1.09-2.01z" fill="#71469b"/><path clip-path="url(#g)" d="m271.9 227.81-1.09 2.01h-.03l1.09-2.01z" fill="#72459a"/><path clip-path="url(#g)" d="m271.93 227.81-1.09 2.01h-.03l1.09-2.01z" fill="#73459a"/><path clip-path="url(#g)" d="m271.95 227.81-1.09 2.01h-.02l1.09-2.01z" fill="#74459a"/><path clip-path="url(#g)" d="m271.98 227.81-1.09 2.01h-.03l1.09-2.01z" fill="#75459a"/><path clip-path="url(#g)" d="m272.01 227.81-1.09 2.01h-.03l1.09-2.01z" fill="#75459a"/><path clip-path="url(#g)" d="m272.04 227.81-1.09 2.01h-.03l1.09-2.01z" fill="#749"/><path clip-path="url(#g)" d="m272.07 227.81-1.09 2.01h-.03l1.09-2.01z" fill="#784399"/><path clip-path="url(#g)" d="m272.09 227.81-1.09 2.01h-.02l1.09-2.01z" fill="#794399"/><path clip-path="url(#g)" d="m272.12 227.81-1.09 2.01h-.03l1.09-2.01z" fill="#7a4399"/><path clip-path="url(#g)" d="m272.15 227.81-1.09 2.01h-.03l1.09-2.01z" fill="#7b4298"/><path clip-path="url(#g)" d="m271.6 228.88-.51.94h-.03l1.09-2.01z" fill="#7c4298"/><path clip-path="url(#g)" d="m271.09 229.82.51-.94-.49.94z" fill="#7c4198"/><path clip-path="url(#h)" d="m269.71 229.07h.39v.01h-.39z" fill="#5154a3" transform="matrix(.4764 -.8792 .8792 .4764 -60.0852 357.2418)"/><path clip-path="url(#h)" d="m270.03 228.9-.19.34h-.02l.18-.34z" fill="#5153a3"/><path clip-path="url(#h)" d="m270.06 228.9-.19.34h-.03l.19-.34z" fill="#5353a2"/><path clip-path="url(#h)" d="m270.09 228.9-.19.34h-.03l.19-.34z" fill="#5452a2"/><path clip-path="url(#h)" d="m270.11 228.9-.18.34h-.03l.19-.34z" fill="#5552a2"/><path clip-path="url(#h)" d="m270.14 228.9-.18.34h-.03l.18-.34z" fill="#5552a2"/><path clip-path="url(#h)" d="m270.17 228.9-.19.34h-.02l.18-.34z" fill="#5552a2"/><path clip-path="url(#h)" d="m270.2 228.9-.19.34h-.03l.19-.34z" fill="#5652a2"/><path clip-path="url(#h)" d="m270.22 228.9-.18.34h-.03l.19-.34z" fill="#5652a2"/><path clip-path="url(#h)" d="m270.25 228.9-.18.34h-.03l.18-.34z" fill="#5651a1"/><path clip-path="url(#h)" d="m270.28 228.9-.19.34h-.02l.18-.34z" fill="#5651a1"/><path clip-path="url(#h)" d="m270.31 228.9-.19.34h-.03l.19-.34z" fill="#5751a1"/><path clip-path="url(#h)" d="m270.34 228.9-.19.34h-.03l.19-.34z" fill="#5851a1"/><path clip-path="url(#h)" d="m270.36 228.9-.18.34h-.03l.19-.34z" fill="#5950a1"/><path clip-path="url(#h)" d="m270.39 228.9-.18.34h-.03l.18-.34z" fill="#5950a1"/><path clip-path="url(#h)" d="m270.42 228.9-.19.34h-.02l.18-.34z" fill="#5b50a0"/><path clip-path="url(#h)" d="m270.45 228.9-.19.34h-.03l.19-.34z" fill="#5b50a0"/><path clip-path="url(#h)" d="m270.48 228.9-.19.34h-.03l.19-.34z" fill="#5b50a0"/><path clip-path="url(#h)" d="m270.5 228.9-.18.34h-.03l.19-.34z" fill="#5c4fa0"/><path clip-path="url(#h)" d="m270.53 228.9-.18.34h-.03l.18-.34z" fill="#5d4fa0"/><path clip-path="url(#h)" d="m270.56 228.9-.19.34h-.02l.18-.34z" fill="#5d4fa0"/><path clip-path="url(#h)" d="m270.59 228.9-.19.34h-.03l.19-.34z" fill="#5e4fa0"/><path clip-path="url(#h)" d="m270.61 228.9-.18.34h-.03l.19-.34z" fill="#5f4e9f"/><path clip-path="url(#h)" d="m270.64 228.9-.18.34h-.03l.18-.34z" fill="#5f4e9f"/><path clip-path="url(#h)" d="m270.67 228.9-.19.34h-.02l.18-.34z" fill="#604d9f"/><path clip-path="url(#h)" d="m270.7 228.9-.19.34h-.03l.19-.34z" fill="#614d9f"/><path clip-path="url(#h)" d="m270.73 228.9-.19.34h-.03l.19-.34z" fill="#624d9f"/><path clip-path="url(#h)" d="m270.75 228.9-.18.34h-.03l.19-.34z" fill="#624d9f"/><path clip-path="url(#h)" d="m270.65 229.14-.05.1h-.03l.18-.34h.03z" fill="#634c9e"/><path clip-path="url(#h)" d="m270.6 229.24.05-.1z" fill="#634c9e"/><path clip-path="url(#i)" d="m266.4 227.81-.65 1.21.63-1.21z" fill="#11b4c4"/><path clip-path="url(#i)" d="m266.43 227.81-1.09 2.01h-.01l.42-.8.65-1.21z" fill="#11b4c4"/><path clip-path="url(#i)" d="m266.46 227.81-1.09 2.01h-.03l1.09-2.01z" fill="#14b3c4"/><path clip-path="url(#i)" d="m266.49 227.81-1.09 2.01h-.03l1.09-2.01z" fill="#10b2c5"/><path clip-path="url(#i)" d="m266.51 227.81-1.08 2.01h-.03l1.09-2.01z" fill="#10b2c6"/><path clip-path="url(#i)" d="m266.54 227.81-1.09 2.01h-.02l1.08-2.01z" fill="#12b1c6"/><path clip-path="url(#i)" d="m266.57 227.81-1.09 2.01h-.03l1.09-2.01z" fill="#0cb0c7"/><path clip-path="url(#i)" d="m266.6 227.81-1.09 2.01h-.03l1.09-2.01z" fill="#10afc7"/><path clip-path="url(#i)" d="m266.62 227.81-1.08 2.01h-.03l1.09-2.01z" fill="#13aec7"/><path clip-path="url(#i)" d="m266.65 227.81-1.09 2.01h-.02l1.08-2.01z" fill="#17adc7"/><path clip-path="url(#i)" d="m266.68 227.81-1.09 2.01h-.03l1.09-2.01z" fill="#19acc7"/><path clip-path="url(#i)" d="m266.71 227.81-1.09 2.01h-.03l1.09-2.01z" fill="#13abc9"/><path clip-path="url(#i)" d="m266.73 227.81-1.08 2.01h-.03l1.09-2.01z" fill="#10aac9"/><path clip-path="url(#i)" d="m266.76 227.81-1.09 2.01h-.02l1.08-2.01z" fill="#11a9ca"/><path clip-path="url(#i)" d="m266.79 227.81-1.09 2.01h-.03l1.09-2.01z" fill="#0aa8ca"/><path clip-path="url(#i)" d="m266.82 227.81-1.09 2.01h-.03l1.09-2.01z" fill="#0ea7ca"/><path clip-path="url(#i)" d="m266.84 227.81-1.08 2.01h-.03l1.09-2.01z" fill="#11a6cb"/><path clip-path="url(#i)" d="m266.87 227.81-1.09 2.01h-.02l1.08-2.01z" fill="#15a5cb"/><path clip-path="url(#i)" d="m266.9 227.81-1.09 2.01h-.03l1.09-2.01z" fill="#14a4cc"/><path clip-path="url(#i)" d="m266.93 227.81-1.09 2.01h-.03l1.09-2.01z" fill="#11a3cd"/><path clip-path="url(#i)" d="m266.95 227.81-1.08 2.01h-.03l1.09-2.01z" fill="#14a2cd"/><path clip-path="url(#i)" d="m266.98 227.81-1.09 2.01h-.02l1.08-2.01z" fill="#16a1cd"/><path clip-path="url(#i)" d="m267.01 227.81-1.09 2.01h-.03l1.09-2.01z" fill="#19a0cd"/><path clip-path="url(#i)" d="m267.04 227.81-1.09 2.01h-.03l1.09-2.01z" fill="#169fcd"/><path clip-path="url(#i)" d="m267.06 227.81-1.08 2.01h-.03l1.09-2.01z" fill="#189ece"/><path clip-path="url(#i)" d="m267.09 227.81-1.09 2.01h-.02l1.08-2.01z" fill="#199dce"/><path clip-path="url(#i)" d="m267.12 227.81-1.09 2.01h-.03l1.09-2.01z" fill="#199ccf"/><path clip-path="url(#i)" d="m267.15 227.81-1.09 2.01h-.03l1.09-2.01z" fill="#1c9bcf"/><path clip-path="url(#i)" d="m267.17 227.81-1.08 2.01h-.03l1.09-2.01z" fill="#1e9acf"/><path clip-path="url(#i)" d="m267.2 227.81-1.09 2.01h-.02l1.08-2.01z" fill="#1999d1"/><path clip-path="url(#i)" d="m267.23 227.81-1.09 2.01h-.03l1.09-2.01z" fill="#1798d0"/><path clip-path="url(#i)" d="m267.26 227.81-1.09 2.01h-.03l1.09-2.01z" fill="#1997d1"/><path clip-path="url(#i)" d="m267.28 227.81-1.08 2.01h-.03l1.09-2.01z" fill="#1b96d1"/><path clip-path="url(#i)" d="m267.31 227.81-1.09 2.01h-.02l1.08-2.01z" fill="#1c95d1"/><path clip-path="url(#i)" d="m267.34 227.81-1.09 2.01h-.03l1.09-2.01z" fill="#1e94d2"/><path clip-path="url(#i)" d="m267.37 227.81-1.09 2.01h-.03l1.09-2.01z" fill="#2193d1"/><path clip-path="url(#i)" d="m267.39 227.81-1.08 2.01h-.03l1.09-2.01z" fill="#2392d0"/><path clip-path="url(#i)" d="m267.42 227.81-1.09 2.01h-.02l1.08-2.01z" fill="#2591cf"/><path clip-path="url(#i)" d="m267.45 227.81-1.09 2.01h-.03l1.09-2.01z" fill="#258fce"/><path clip-path="url(#i)" d="m267.48 227.81-1.09 2.01h-.03l1.09-2.01z" fill="#278ecd"/><path clip-path="url(#i)" d="m267.5 227.81-1.08 2.01h-.03l1.09-2.01z" fill="#298dcd"/><path clip-path="url(#i)" d="m267.53 227.81-1.09 2.01h-.02l1.08-2.01z" fill="#2b8ccc"/><path clip-path="url(#i)" d="m267.56 227.81-1.09 2.01h-.03l1.09-2.01z" fill="#2d8bca"/><path clip-path="url(#i)" d="m267.59 227.81-1.09 2.01h-.03l1.09-2.01z" fill="#2d8aca"/><path clip-path="url(#i)" d="m267.61 227.81-1.08 2.01h-.03l1.09-2.01z" fill="#2e88c9"/><path clip-path="url(#i)" d="m267.64 227.81-1.09 2.01h-.02l1.08-2.01z" fill="#3187c8"/><path clip-path="url(#i)" d="m267.67 227.81-1.09 2.01h-.03l1.09-2.01z" fill="#3086c7"/><path clip-path="url(#i)" d="m267.7 227.81-1.09 2.01h-.03l1.09-2.01z" fill="#3285c6"/><path clip-path="url(#i)" d="m267.72 227.81-1.08 2.01h-.03l1.09-2.01z" fill="#3384c5"/><path clip-path="url(#i)" d="m267.75 227.81-1.09 2.01h-.02l1.08-2.01z" fill="#3482c4"/><path clip-path="url(#i)" d="m267.78 227.81-1.09 2.01h-.03l1.09-2.01z" fill="#3781c3"/><path clip-path="url(#i)" d="m267.81 227.81-1.09 2.01h-.03l1.09-2.01z" fill="#3880c2"/><path clip-path="url(#i)" d="m267.83 227.81-1.08 2.01h-.03l1.09-2.01z" fill="#387fc1"/><path clip-path="url(#i)" d="m267.86 227.81-1.09 2.01h-.02l1.08-2.01z" fill="#397ec0"/><path clip-path="url(#i)" d="m267.89 227.81-1.09 2.01h-.03l1.09-2.01z" fill="#3a7dc0"/><path clip-path="url(#i)" d="m267.92 227.81-1.09 2.01h-.03l1.09-2.01z" fill="#3b7cbf"/><path clip-path="url(#i)" d="m267.94 227.81-1.08 2.01h-.03l1.09-2.01z" fill="#3b7bbe"/><path clip-path="url(#i)" d="m267.97 227.81-1.09 2.01h-.02l1.08-2.01z" fill="#3c7abd"/><path clip-path="url(#i)" d="m268 227.81-1.09 2.01h-.03l1.09-2.01z" fill="#3d79bd"/><path clip-path="url(#i)" d="m268.03 227.81-1.09 2.01h-.03l1.09-2.01z" fill="#3c79bc"/><path clip-path="url(#i)" d="m268.05 227.81-1.08 2.01h-.03l1.09-2.01z" fill="#3f77bb"/><path clip-path="url(#i)" d="m268.08 227.81-1.09 2.01h-.02l1.08-2.01z" fill="#4076ba"/><path clip-path="url(#i)" d="m267.94 228.13-.92 1.69h-.03l1.09-2.01h.02z" fill="#4076ba"/><path clip-path="url(#i)" d="m267.27 229.42-.22.4h-.03l.92-1.69z" fill="#4075b9"/><path clip-path="url(#i)" d="m267.05 229.82.22-.4-.21.4z" fill="#4174b8"/><path clip-path="url(#j)" d="m268.38 227.81-.3.56.29-.56z" fill="#426cb3"/><path clip-path="url(#j)" d="m268.41 227.81-1 1.86.67-1.3.3-.56z" fill="#416cb3"/><path clip-path="url(#j)" d="m268.44 227.81-1.09 2.01h-.02l.08-.15 1-1.86z" fill="#426bb3"/><path clip-path="url(#j)" d="m268.47 227.81-1.09 2.01h-.03l1.09-2.01z" fill="#436ab2"/><path clip-path="url(#j)" d="m268.49 227.81-1.09 2.01h-.02l1.09-2.01z" fill="#436ab2"/><path clip-path="url(#j)" d="m268.52 227.81-1.09 2.01h-.03l1.09-2.01z" fill="#4469b1"/><path clip-path="url(#j)" d="m268.55 227.81-1.09 2.01h-.03l1.09-2.01z" fill="#4468b1"/><path clip-path="url(#j)" d="m268.58 227.81-1.09 2.01h-.03l1.09-2.01z" fill="#4368b0"/><path clip-path="url(#j)" d="m268.6 227.81-1.09 2.01h-.02l1.09-2.01z" fill="#4367b0"/><path clip-path="url(#j)" d="m268.63 227.81-1.09 2.01h-.03l1.09-2.01z" fill="#4466af"/><path clip-path="url(#j)" d="m268.66 227.81-1.09 2.01h-.03l1.09-2.01z" fill="#4566af"/><path clip-path="url(#j)" d="m268.69 227.81-1.09 2.01h-.03l1.09-2.01z" fill="#4565af"/><path clip-path="url(#j)" d="m268.71 227.81-1.09 2.01h-.02l1.09-2.01z" fill="#4465ae"/><path clip-path="url(#j)" d="m268.74 227.81-1.09 2.01h-.03l1.09-2.01z" fill="#4464ae"/><path clip-path="url(#j)" d="m268.77 227.81-1.09 2.01h-.03l1.09-2.01z" fill="#4664ae"/><path clip-path="url(#j)" d="m268.8 227.81-1.09 2.01h-.03l1.09-2.01z" fill="#4663ad"/><path clip-path="url(#j)" d="m268.82 227.81-1.09 2.01h-.02l1.09-2.01z" fill="#4663ad"/><path clip-path="url(#j)" d="m268.22 228.99-.46.83h-.03l1.09-2.01h.01z" fill="#4662ac"/><path clip-path="url(#j)" d="m267.76 229.82.46-.83-.44.83z" fill="#4562ac"/><path clip-path="url(#k)" d="m269.18 227.81-.64 1.18.62-1.18z" fill="#485ea9"/><path clip-path="url(#k)" d="m269.21 227.81-1.09 2.01h-.01l.43-.83.64-1.18z" fill="#475da9"/><path clip-path="url(#k)" d="m269.24 227.81-1.09 2.01h-.03l1.09-2.01z" fill="#475da9"/><path clip-path="url(#k)" d="m269.26 227.81-1.09 2.01h-.02l1.09-2.01z" fill="#475ca9"/><path clip-path="url(#k)" d="m269.29 227.81-1.09 2.01h-.03l1.09-2.01z" fill="#475ca9"/><path clip-path="url(#k)" d="m269.32 227.81-1.09 2.01h-.03l1.09-2.01z" fill="#485ca8"/><path clip-path="url(#k)" d="m269.35 227.81-1.09 2.01h-.03l1.09-2.01z" fill="#485ca8"/><path clip-path="url(#k)" d="m269.37 227.81-1.09 2.01h-.02l1.09-2.01z" fill="#485ba8"/><path clip-path="url(#k)" d="m269.4 227.81-1.09 2.01h-.03l1.09-2.01z" fill="#485ba8"/><path clip-path="url(#k)" d="m269.43 227.81-1.09 2.01h-.03l1.09-2.01z" fill="#485ba8"/><path clip-path="url(#k)" d="m269.46 227.81-1.09 2.01h-.03l1.09-2.01z" fill="#495aa7"/><path clip-path="url(#k)" d="m269.48 227.81-1.09 2.01h-.02l1.09-2.01z" fill="#495aa7"/><path clip-path="url(#k)" d="m269.51 227.81-1.09 2.01h-.03l1.09-2.01z" fill="#495aa7"/><path clip-path="url(#k)" d="m269.54 227.81-1.09 2.01h-.03l1.09-2.01z" fill="#495aa7"/><path clip-path="url(#k)" d="m269.57 227.81-1.09 2.01h-.03l1.09-2.01z" fill="#4959a7"/><path clip-path="url(#k)" d="m269.59 227.81-1.09 2.01h-.02l1.09-2.01z" fill="#4959a7"/><path clip-path="url(#k)" d="m269.62 227.81-1.09 2.01h-.03l1.09-2.01z" fill="#4959a7"/><path clip-path="url(#k)" d="m269.65 227.81-1.09 2.01h-.03l1.09-2.01z" fill="#4a59a6"/><path clip-path="url(#k)" d="m269.68 227.81-1.09 2.01h-.03l1.09-2.01z" fill="#4a59a6"/><path clip-path="url(#k)" d="m269.7 227.81-1.09 2.01h-.02l1.09-2.01z" fill="#4a59a6"/><path clip-path="url(#k)" d="m269.73 227.81-1.09 2.01h-.03l1.09-2.01z" fill="#4a58a6"/><path clip-path="url(#k)" d="m269.76 227.81-1.09 2.01h-.03l1.09-2.01z" fill="#4a58a6"/><path clip-path="url(#k)" d="m269.79 227.81-1.09 2.01h-.03l1.09-2.01z" fill="#4a58a6"/><path clip-path="url(#k)" d="m269.81 227.81-1.09 2.01h-.02l1.09-2.01z" fill="#4a58a6"/><path clip-path="url(#k)" d="m269.84 227.81-1.09 2.01h-.03l1.09-2.01z" fill="#4a57a5"/><path clip-path="url(#k)" d="m269.87 227.81-1.09 2.01h-.03l1.09-2.01z" fill="#4a57a5"/><path clip-path="url(#k)" d="m269.9 227.81-1.09 2.01h-.03l1.09-2.01z" fill="#4a57a5"/><path clip-path="url(#k)" d="m269.92 227.81-1.09 2.01h-.02l1.09-2.01z" fill="#4a57a5"/><path clip-path="url(#k)" d="m269.95 227.81-1.09 2.01h-.03l1.09-2.01z" fill="#4b56a5"/><path clip-path="url(#k)" d="m269.98 227.81-1.09 2.01h-.03l1.09-2.01z" fill="#4b56a5"/><path clip-path="url(#k)" d="m270.01 227.81-1.09 2.01h-.03l1.09-2.01z" fill="#4b56a5"/><path clip-path="url(#k)" d="m270.03 227.81-1.09 2.01h-.02l1.09-2.01z" fill="#4b56a5"/><path clip-path="url(#k)" d="m270.06 227.81-1.09 2.01h-.03l1.09-2.01z" fill="#4b56a5"/><path clip-path="url(#k)" d="m270.09 227.81-1.09 2.01h-.03l1.09-2.01z" fill="#4a56a5"/><path clip-path="url(#k)" d="m270.12 227.81-1.09 2.01h-.03l1.09-2.01z" fill="#4a56a5"/><path clip-path="url(#k)" d="m270.14 227.81-1.09 2.01h-.02l1.09-2.01z" fill="#4a56a5"/><path clip-path="url(#k)" d="m270.17 227.81-1.09 2.01h-.03l1.09-2.01z" fill="#4a56a5"/><path clip-path="url(#k)" d="m270.2 227.81-1.09 2.01h-.03l1.09-2.01z" fill="#4a56a4"/><path clip-path="url(#k)" d="m270.23 227.81-1.09 2.01h-.03l1.09-2.01z" fill="#4b56a4"/><path clip-path="url(#k)" d="m270.25 227.81-1.08 2.01h-.03l1.09-2.01z" fill="#4b56a4"/><path clip-path="url(#k)" d="m270.28 227.81-1.09 2.01h-.02l1.08-2.01z" fill="#4b55a4"/><path clip-path="url(#k)" d="m270.31 227.81-1.09 2.01h-.03l1.09-2.01z" fill="#4b55a4"/><path clip-path="url(#k)" d="m270.34 227.81-1.09 2.01h-.03l1.09-2.01z" fill="#4d55a4"/><path clip-path="url(#k)" d="m270.37 227.81-1.09 2.01h-.03l1.09-2.01z" fill="#4e55a4"/><path clip-path="url(#k)" d="m270.39 227.81-1.09 2.01h-.02l1.09-2.01z" fill="#4f54a3"/><path clip-path="url(#k)" d="m270.42 227.81-1.09 2.01h-.03l1.09-2.01z" fill="#4f54a3"/><path clip-path="url(#k)" d="m270.45 227.81-1.09 2.01h-.03l1.09-2.01z" fill="#4f54a3"/><path clip-path="url(#k)" d="m270.48 227.81-1.09 2.01h-.03l1.09-2.01z" fill="#4f54a3"/><path clip-path="url(#k)" d="m270.51 227.81-1.09 2.01h-.03l1.09-2.01z" fill="#5054a3"/><path clip-path="url(#k)" d="m270.53 227.81-1.09 2.01h-.02l1.09-2.01z" fill="#5054a3"/><path clip-path="url(#k)" d="m270.56 227.81-1.09 2.01h-.03l1.09-2.01z" fill="#5054a3"/><path clip-path="url(#k)" d="m270.59 227.81-1.09 2.01h-.03l1.09-2.01z" fill="#5154a3"/><path clip-path="url(#k)" d="m270.62 227.81-1.09 2.01h-.03l1.09-2.01z" fill="#5153a3"/><path clip-path="url(#k)" d="m270.64 227.81-1.08 2.01h-.03l1.09-2.01z" fill="#5353a2"/><path clip-path="url(#k)" d="m270.67 227.81-1.09 2.01h-.02l1.08-2.01z" fill="#5452a2"/><path clip-path="url(#k)" d="m270.7 227.81-1.09 2.01h-.03l1.09-2.01z" fill="#5552a2"/><path clip-path="url(#k)" d="m270.73 227.81-1.09 2.01h-.03l1.09-2.01z" fill="#5552a2"/><path clip-path="url(#k)" d="m270.76 227.81-1.09 2.01h-.03l1.09-2.01z" fill="#5552a2"/><path clip-path="url(#k)" d="m270.53 228.29-.84 1.53h-.02l1.09-2.01h.01z" fill="#5652a2"/><path clip-path="url(#k)" d="m269.84 229.6-.12.22h-.03l.84-1.53z" fill="#5652a2"/><path clip-path="url(#k)" d="m269.72 229.82.12-.22-.11.22z" fill="#5651a1"/><path clip-path="url(#l)" d="m272.57 227.8-.58 1.07.56-1.07z" fill="#893b95"/><path clip-path="url(#l)" d="m272.6 227.8-1.09 2.02h-.01l.49-.95.58-1.07z" fill="#8b3a95"/><path clip-path="url(#l)" d="m272.63 227.8-1.09 2.02h-.03l1.09-2.02z" fill="#8b3a95"/><path clip-path="url(#l)" d="m272.66 227.8-1.09 2.02h-.03l1.09-2.02z" fill="#8d3994"/><path clip-path="url(#l)" d="m272.71 227.8-1.1 2.02h-.04l1.09-2.02z" fill="#8d3994"/><path clip-path="url(#l)" d="m272.75 227.8-1.09 2.02h-.05l1.1-2.02z" fill="#8d3a95"/><path clip-path="url(#l)" d="m272.8 227.8-1.09 2.02h-.05l1.09-2.02z" fill="#8d3b95"/><path clip-path="url(#l)" d="m272.85 227.8-1.1 2.02h-.04l1.09-2.02z" fill="#8b3c95"/><path clip-path="url(#l)" d="m272.89 227.8-1.09 2.02h-.05l1.1-2.02z" fill="#8b3c96"/><path clip-path="url(#l)" d="m272.94 227.8-1.09 2.02h-.05l1.09-2.02z" fill="#8b3d96"/><path clip-path="url(#l)" d="m272.99 227.8-1.1 2.02h-.04l1.09-2.02z" fill="#8a3e96"/><path clip-path="url(#l)" d="m273.03 227.8-1.09 2.02h-.05l1.1-2.02z" fill="#8a3f97"/><path clip-path="url(#l)" d="m273.08 227.8-1.09 2.02h-.05l1.09-2.02z" fill="#894097"/><path clip-path="url(#l)" d="m273.13 227.8-1.09 2.02h-.05l1.09-2.02z" fill="#894097"/><path clip-path="url(#l)" d="m273.17 227.8-1.09 2.02h-.04l1.09-2.02z" fill="#894198"/><path clip-path="url(#l)" d="m273.22 227.8-1.09 2.02h-.05l1.09-2.02z" fill="#884298"/><path clip-path="url(#l)" d="m273.27 227.8-1.09 2.02h-.05l1.09-2.02z" fill="#874398"/><path clip-path="url(#l)" d="m273.32 227.8-1.1 2.02h-.04l1.09-2.02z" fill="#874399"/><path clip-path="url(#l)" d="m273.36 227.8-1.09 2.02h-.05l1.1-2.02z" fill="#874499"/><path clip-path="url(#l)" d="m273.41 227.8-1.09 2.02h-.05l1.09-2.02z" fill="#864599"/><path clip-path="url(#l)" d="m273.46 227.8-1.1 2.02h-.04l1.09-2.02z" fill="#864599"/><path clip-path="url(#l)" d="m273.5 227.8-1.09 2.02h-.05l1.1-2.02z" fill="#85469a"/><path clip-path="url(#l)" d="m273.55 227.8-1.09 2.02h-.05l1.09-2.02z" fill="#85479a"/><path clip-path="url(#l)" d="m273.6 227.8-1.1 2.02h-.04l1.09-2.02z" fill="#85479b"/><path clip-path="url(#l)" d="m273.64 227.8-1.09 2.02h-.05l1.1-2.02z" fill="#85489b"/><path clip-path="url(#l)" d="m273.69 227.8-1.09 2.02h-.05l1.09-2.02z" fill="#84489b"/><path clip-path="url(#l)" d="m273.74 227.8-1.09 2.02h-.05l1.09-2.02z" fill="#84499b"/><path clip-path="url(#l)" d="m273.78 227.8-1.09 2.02h-.04l1.09-2.02z" fill="#85499b"/><path clip-path="url(#l)" d="m273.83 227.8-1.09 2.02h-.05l1.09-2.02z" fill="#854a9c"/><path clip-path="url(#l)" d="m273.88 227.8-1.09 2.02h-.05l1.09-2.02z" fill="#854b9c"/><path clip-path="url(#l)" d="m273.93 227.8-1.1 2.02h-.04l1.09-2.02z" fill="#844c9d"/><path clip-path="url(#l)" d="m273.97 227.8-1.09 2.02h-.05l1.1-2.02z" fill="#834c9d"/><path clip-path="url(#l)" d="m274.02 227.8-1.09 2.02h-.05l1.09-2.02z" fill="#834d9d"/><path clip-path="url(#l)" d="m274.07 227.8-1.1 2.02h-.04l1.09-2.02z" fill="#834e9e"/><path clip-path="url(#l)" d="m274.11 227.8-1.09 2.02h-.05l1.1-2.02z" fill="#834e9e"/><path clip-path="url(#l)" d="m274.16 227.8-1.09 2.02h-.05l1.09-2.02z" fill="#824f9f"/><path clip-path="url(#l)" d="m274.21 227.8-1.1 2.02h-.04l1.09-2.02z" fill="#824f9f"/><path clip-path="url(#l)" d="m274.25 227.8-1.09 2.02h-.05l1.1-2.02z" fill="#82509f"/><path clip-path="url(#l)" d="m274.3 227.8-1.09 2.02h-.05l1.09-2.02z" fill="#82509f"/><path clip-path="url(#l)" d="m274.35 227.8-1.09 2.02h-.05l1.09-2.02z" fill="#8052a0"/><path clip-path="url(#l)" d="m274.39 227.8-1.09 2.02h-.04l1.09-2.02z" fill="#8052a0"/><path clip-path="url(#l)" d="m273.52 229.5-.17.32h-.05l1.09-2.02h.02z" fill="#8053a1"/><path clip-path="url(#l)" d="m273.35 229.82.17-.32-.16.32z" fill="#8054a1"/><path d="m263.93 232.54h5.53l1.8-2.38h-5.54z"/><path d="m271.27 232.55h.18l1.77-2.38h-.18z"/><path d="m270.96 232.55h.18l1.77-2.38h-.18z"/><path d="m270.64 232.55h.18l1.77-2.38h-.18z"/><path d="m270.3 232.55h.18l1.78-2.38h-.18z"/><path d="m269.97 232.55h.18l1.77-2.38h-.18z"/><path d="m269.62 232.55h.18l1.77-2.38h-.18z"/><path d="m263.91 232.54h5.54l1.79-2.38h-5.53z" fill="#7d5ca6"/><path d="m271.25 232.55h.18l1.77-2.38h-.18z" fill="#e53044"/><path d="m270.94 232.55h.18l1.77-2.38h-.18z" fill="#f38020"/><path d="m270.62 232.55h.18l1.77-2.38h-.18z" fill="#f8ec23"/><path d="m270.29 232.55h.18l1.77-2.38h-.18z" fill="#b7cc33"/><path d="m269.95 232.55h.18l1.77-2.38h-.18z" fill="#12b6ba"/><path d="m269.6 232.55h.18l1.78-2.38h-.18z" fill="#2b78bc"/><path d="m266.13 232.13.16-.45h-.66l-.5.45h-.3l1.83-1.63h.31l-.54 1.63zm.24-.68.16-.44c.01-.03.03-.08.05-.14.03-.06.05-.11.06-.14-.09.09-.19.19-.31.3l-.46.42z"/><path d="m268.62 231c-.12.17-.28.3-.46.39s-.38.14-.6.14h-.18l-.44.61h-.28l1.18-1.63h.5c.22 0 .35.04.39.12s.01.21-.11.37zm-1.08.3h.15c.14 0 .27-.02.37-.07s.19-.12.26-.22c.07-.09.09-.16.06-.21s-.1-.07-.23-.07h-.2z"/><path d="m270.1 231c-.12.17-.28.3-.46.39s-.38.14-.6.14h-.18l-.44.61h-.28l1.18-1.63h.5c.22 0 .35.04.39.12s.01.21-.11.37zm-1.08.3h.15c.14 0 .27-.02.37-.07s.19-.12.26-.22c.07-.09.09-.16.06-.21s-.1-.07-.23-.07h-.2z"/><path d="m266.1 232.13.16-.45h-.66l-.5.45h-.3l1.83-1.63h.31l-.54 1.63zm.25-.68.16-.44c.01-.03.03-.08.05-.14.03-.06.05-.11.06-.14-.09.09-.19.19-.31.3l-.46.42z" fill="#fff"/><path d="m268.6 230.99c-.12.17-.28.3-.46.39s-.38.14-.6.14h-.18l-.44.61h-.28l1.18-1.63h.5c.22 0 .35.04.39.12.04.09 0 .21-.11.37zm-1.08.31h.15c.14 0 .27-.02.37-.07s.19-.12.26-.22c.07-.09.09-.16.06-.21s-.1-.07-.23-.07h-.2z" fill="#fff"/><path d="m270.08 230.99c-.12.17-.28.3-.46.39s-.38.14-.6.14h-.18l-.44.61h-.28l1.18-1.63h.5c.22 0 .35.04.39.12.04.09.01.21-.11.37zm-1.08.31h.15c.14 0 .27-.02.37-.07s.19-.12.26-.22c.07-.09.09-.16.06-.21s-.1-.07-.23-.07h-.2z" fill="#fff"/><path d="m253.65 477.11c16.97-1.98 34.14-1.63 51.01 1.05l5.67.9-1.26-79.31h-55.63z" fill="#edd80f"/><path d="m259.33 405.29h44.41v62.69h-44.41z" fill="#2b2438"/><path d="m253.65 477.11-8.98.07.95-77.5h8.1z" fill="#f9ed32"/><path d="m259.33 418.2h11.55v49.78h-11.55z" fill="#00a651" transform="matrix(-1 0 0 -1 530.2009 886.1733)"/><path d="m259.33 428.38h11.55v4.01h-11.55z" fill="#006838" transform="matrix(-1 0 0 -1 530.2009 860.7841)"/><path d="m284.45 412.1h11.55v55.35h-11.55z" fill="#00a651" transform="matrix(-.9622 .2722 -.2722 -.9622 689.1986 783.9594)"/><path d="m281.76 428.23h11.55v4.01h-11.55z" fill="#006838" transform="matrix(-.9622 .2722 -.2722 -.9622 681.3121 765.9743)"/><path d="m270.88 425.71h9.37v42.27h-9.37z" fill="#ff5571" transform="matrix(-1 0 0 -1 551.1241 893.6882)"/><path d="m270.88 448.78h9.37v4.02h-9.37z" fill="#f53b5a" transform="matrix(-1 0 0 -1 551.1241 901.567)"/><path d="m270.88 436.63h9.37v4.01h-9.37z" fill="#f53b5a" transform="matrix(-1 0 0 -1 551.1241 877.2845)"/><path d="m292.82 392.31h-27.99c-4.07 0-7.37 3.3-7.37 7.37h42.73c0-4.07-3.3-7.37-7.37-7.37z" fill="#2b2438"/><path d="m276.12 356.94h5.42v35.37h-5.42z" fill="#493d60"/><path d="m302.54 356.92h-47.43c7.75-14.95 10.45-28.39 11.3-37.7.75-8.21.03-13.23.03-13.23h24.78s-3.25 22.83 11.32 50.93z" fill="#f9ed32"/><path d="m302.54 356.92h-6.69c-7.62-30.37-16.91-47.18-29.44-37.7.75-8.21.03-13.23.03-13.23h24.78s-3.25 22.83 11.32 50.93z" fill="#edd80f"/></svg>