<svg enable-background="new 0 0 512 512" viewBox="0 0 512 512" xmlns="http://www.w3.org/2000/svg" xmlns:xlink="http://www.w3.org/1999/xlink"><clipPath id="a"><path d="m191.1 437.83.6.02-.32-3.31-.6-.05z"/></clipPath><clipPath id="b"><path d="m189.44 436.79 1.08.05-.05-.58-1.08-.06z"/></clipPath><clipPath id="c"><path d="m185.67 434.1-.77-.06-.81 1.16-.25.41-.13-1.65-.72-.06.27 3.67.73.03-.1-1.31.29-.22 1 1.57.79.02-1.32-2.06z"/></clipPath><clipPath id="d"><path d="m186.38 437.68.67.02-.29-3.51-.68-.06z"/></clipPath><clipPath id="e"><path d="m189.53 434.4-2.29-.18.05.61.84.06.25 2.85.65.03-.26-2.83.81.05z"/></clipPath><clipPath id="f"><path d="m193.68 434.69.18 1.7c.01.05.01.11.02.17s.02.12.03.18l-1.47-2.03c-.02-.03-.04-.05-.05-.06-.02-.02-.03-.03-.05-.04s-.03-.02-.05-.02-.04-.01-.07-.01l-.33-.03.33 3.31.56.02-.18-1.77c0-.05-.01-.1-.02-.15s-.02-.11-.03-.17l1.46 2.01c.04.05.07.08.1.1s.07.03.12.03l.32.01-.34-3.21z"/></clipPath><clipPath id="g"><path d="m138.43 231.56-77.66 50.38 64.4 135.39h101.63l-34-90.82-9.36-.33z"/></clipPath><g fill="#f1f2f2"><path d="m479.23 138.49h-123.38c-4.76 0-8.63-3.87-8.63-8.63v-25.86c0-4.76 3.87-8.63 8.63-8.63h123.38c4.76 0 8.63 3.87 8.63 8.63v25.86c.01 4.76-3.87 8.63-8.63 8.63zm-123.38-40.79c-3.48 0-6.3 2.83-6.3 6.3v25.86c0 3.47 2.83 6.3 6.3 6.3h123.38c3.47 0 6.3-2.83 6.3-6.3v-25.86c0-3.48-2.83-6.3-6.3-6.3z"/><path d="m375.38 70.23h-21.42c-3.72 0-6.74-3.03-6.74-6.74v-29.65c0-3.72 3.03-6.74 6.74-6.74h21.42c3.72 0 6.74 3.03 6.74 6.74v29.64c0 3.72-3.02 6.75-6.74 6.75zm-21.42-40.8c-2.43 0-4.41 1.98-4.41 4.41v29.64c0 2.43 1.98 4.41 4.41 4.41h21.42c2.43 0 4.41-1.98 4.41-4.41v-29.64c0-2.43-1.98-4.41-4.41-4.41z"/><path d="m481.54 296.57h-128c-3.49 0-6.33-2.84-6.33-6.33v-120.28c0-3.49 2.84-6.33 6.33-6.33h128c3.49 0 6.33 2.84 6.33 6.33v120.28c0 3.49-2.84 6.33-6.33 6.33zm-128-130.61c-2.2 0-4 1.79-4 4v120.28c0 2.2 1.79 4 4 4h128c2.2 0 4-1.79 4-4v-120.28c0-2.2-1.79-4-4-4z"/><path d="m484.4 36.1h-83.67c-1.91 0-3.47-1.56-3.47-3.47v-2.06c0-1.91 1.56-3.47 3.47-3.47h83.67c1.91 0 3.47 1.56 3.47 3.47v2.06c0 1.91-1.56 3.47-3.47 3.47zm-83.67-6.67c-.63 0-1.14.51-1.14 1.14v2.06c0 .63.51 1.14 1.14 1.14h83.67c.63 0 1.14-.51 1.14-1.14v-2.06c0-.63-.51-1.14-1.14-1.14z"/><path d="m484.4 53.16h-83.67c-1.91 0-3.47-1.56-3.47-3.47v-2.06c0-1.91 1.56-3.47 3.47-3.47h83.67c1.91 0 3.47 1.56 3.47 3.47v2.06c0 1.92-1.56 3.47-3.47 3.47zm-83.67-6.66c-.63 0-1.14.51-1.14 1.14v2.06c0 .63.51 1.14 1.14 1.14h83.67c.63 0 1.14-.51 1.14-1.14v-2.06c0-.63-.51-1.14-1.14-1.14z"/><path d="m484.4 70.23h-83.67c-1.91 0-3.47-1.56-3.47-3.47v-2.06c0-1.91 1.56-3.47 3.47-3.47h83.67c1.91 0 3.47 1.56 3.47 3.47v2.06c0 1.91-1.56 3.47-3.47 3.47zm-83.67-6.67c-.63 0-1.14.51-1.14 1.14v2.06c0 .63.51 1.14 1.14 1.14h83.67c.63 0 1.14-.51 1.14-1.14v-2.06c0-.63-.51-1.14-1.14-1.14z"/><path d="m123.93 258.23h-40.76c-.51 0-.96-.29-1.24-.8-.18-.33-.28-.75-.28-1.19v-121.21c0-.44.1-.86.28-1.2.27-.51.73-.8 1.24-.8h40.76c.51 0 .96.29 1.24.8.18.33.28.75.28 1.19v47h-1.91v-47c0-.03 0-.06 0-.09h-39.99v.09 121.21.09h39.98c0-.03 0-.06 0-.09v-35.21h1.91v35.21c0 .45-.1.86-.29 1.2-.26.51-.71.8-1.22.8z"/><path d="m123.54 209.24h1.91v7.13h-1.91z"/><path d="m94.27 140.29h16.64c.2 0 .36-.16.36-.36v-1.37c0-.2-.16-.36-.36-.36h-16.64c-.2 0-.36.16-.36.36v1.37c0 .2.16.36.36.36z"/><path d="m114.46 139.25c0 .58.47 1.04 1.04 1.04.58 0 1.04-.47 1.04-1.04 0-.58-.47-1.04-1.04-1.04-.57-.01-1.04.46-1.04 1.04z"/><path d="m79.05 254.37c-.53 0-.95-.43-.95-.95v-117.5c0-.53.43-.95.95-.95.53 0 .95.43.95.95v117.5c.01.52-.42.95-.95.95z"/><path d="m160.65 210.19h-53.05c-.29 0-.57-.04-.8-.11-.82-.25-.89-.89-.89-1.07v-26.75c0-.19.06-.82.89-1.07.23-.07.51-.11.8-.11h53.05c.3 0 .58.04.81.11.82.25.88.88.88 1.07v26.75c0 .19-.06.82-.88 1.07-.24.07-.52.11-.81.11zm-52.84-1.9h52.62v-25.3h-52.62z"/><path d="m160.65 221.98h-53.05c-.23 0-.42-.01-.57-.01l-.9-.05-.22-.93v-5.48l1.12-.08c.16-.01.35-.01.57-.01h53.05c.22 0 .42.01.56.01l.91.04.22.94v5.48l-1.12.08c-.15.01-.35.01-.57.01zm-52.84-1.9h52.63v-2.75h-52.63z"/></g><path d="m214.35 220.6-5.11 10.01c-2.34 4.6-5.49 8.93-9.37 12.89l-8.86 9.06c-2.67 2.73-7.59 3.54-11.52 1.91l-6.19-2.57c-4.74-1.97-6.13-6.64-2.95-9.95l2.96-2.26c9.34-7.11 15.64-16.19 18.06-26.05 2.32-4.69 9.59-6.73 15.38-4.32l2.68 1.11c4.78 1.98 6.88 6.33 4.92 10.17z" fill="#be1e2d"/><path d="m180 241.87c.09.04.11.08.06.13-.08.07-.57.53-1.51 1.36 1.03.48 1.88.86 2.53 1.13.41.17 1.03.41 1.87.72s1.48.54 1.89.7c.08.03.07.08-.01.16-.05.05-.13.12-.24.22s-.2.17-.25.22-.12.12-.21.23c-.09.1-.16.18-.21.23-.07.07-.15.08-.24.05-.41-.16-1.01-.42-1.8-.78s-1.38-.63-1.79-.8c-.63-.26-1.5-.62-2.61-1.06-.67.69-1.18 1.19-1.53 1.5-.03.03-.07.04-.1.02-.06-.03-.14-.08-.23-.16-.12-.1-.19-.15-.21-.17-.12-.06-.26-.15-.44-.28-.03-.03-.03-.07.01-.1.02-.02.03-.03.06-.04 1.09-.88 1.77-1.46 2.09-1.76.28-.26.7-.69 1.27-1.31.39-.42.54-.6.47-.53.07-.07.14-.09.21-.07-.04-.01.12.06.49.23.05.02.12.05.22.08.09.04.16.06.21.08z" fill="#fff"/><path d="m187.32 239.45c.26.1.36.25.29.46-.05.14-.71 1.02-2.07 2.64.35.09.74.06 1.18-.08.42-.14.75-.33.99-.58.41-.43.59-.9.56-1.39-.01-.06-.01-.12-.02-.18.02-.02.04-.03.05-.04.01 0 .18-.01.51-.01.33-.01.5-.01.52 0s.04.05.06.11c.19.61 0 1.23-.6 1.86s-1.33 1.05-2.2 1.23c-.86.18-1.71.11-2.53-.22-.73-.29-1.19-.73-1.37-1.3-.19-.6-.02-1.17.5-1.7.49-.5 1.13-.82 1.93-.97.79-.15 1.52-.09 2.2.17zm-1.22.84c-.29-.11-.64-.13-1.03-.04s-.69.24-.91.46c-.24.25-.32.52-.25.81.07.3.27.51.6.64.07.03.16 0 .25-.1.39-.4.8-.9 1.22-1.49.12-.17.16-.26.12-.28z" fill="#fff"/><path d="m190.77 237.42c.53.19.82.51.86.96.03.4-.14.82-.52 1.25-.15.17-.24.26-.27.28-.07.04-.18.03-.33-.03-.08-.03-.2-.06-.38-.11-.17-.04-.3-.08-.37-.11-.05-.02-.05-.05-.02-.11.02-.04.07-.09.14-.15.09-.08.13-.12.13-.12.46-.52.48-.85.07-1.01-.2-.07-.48-.03-.84.14-.59.27-.95.42-1.06.45-.46.13-.89.12-1.29-.04-.53-.21-.8-.52-.81-.94-.01-.38.17-.78.55-1.2.03-.04.08-.06.14-.06s.23.02.52.06c.28.04.45.07.5.09.04.01.04.05.01.11-.12.19-.27.38-.38.56-.12.21-.06.4.16.48.16.06.42.01.78-.15.53-.23.88-.38 1.07-.43.45-.1.9-.08 1.34.08z" fill="#fff"/><path d="m193.87 234.74c.08.03.18.07.31.13.16.07.26.12.31.14.06.03.1.04.11.05.02.02.02.06.01.11-.04.28-.27.66-.67 1.15-.54.65-1.2.84-1.96.57-.3-.11-.76-.28-1.35-.51-.6-.23-1.04-.41-1.34-.52-.14-.05-.28-.03-.38.08-.09.09-.18.2-.26.3-.07.05-.24.02-.51-.08-.1-.04-.2-.09-.31-.14-.08-.04-.09-.12-.04-.19s.12-.14.17-.2c.1-.13.08-.22-.05-.27-.14-.05-.36-.13-.65-.24-.29-.1-.51-.19-.65-.24-.25-.1-.35-.19-.28-.26.02-.02.3-.26.82-.7.06-.06.13-.07.19-.05.15.06.37.16.66.29.29.14.51.23.67.29.1.04.18.02.25-.05.33-.39.5-.59.82-.98.04-.05.08-.06.12-.05.04.02.11.05.19.09s.15.07.2.09.13.05.25.09c.11.04.19.07.25.09.07.02.07.08.01.15-.09.11-.24.27-.44.49-.2.21-.35.38-.45.49-.02.02.07.08.26.16.24.11.58.24 1.04.41.32.12.48.17.79.29.31.11.54.16.7.16.24 0 .45-.1.62-.31.07-.09.15-.22.24-.4s.16-.32.23-.4c.01-.04.05-.05.12-.03z" fill="#fff"/><path d="m196.82 229.81c.53.18.83.48.91.92.07.4-.05.82-.38 1.26-.13.17-.2.26-.23.28-.07.04-.17.03-.32-.02-.08-.03-.2-.06-.37-.09-.17-.04-.29-.07-.37-.09-.05-.02-.06-.05-.03-.11.02-.04.06-.09.12-.16.08-.08.11-.12.11-.12.4-.53.39-.86-.03-1-.2-.07-.46-.01-.8.17-.54.29-.87.45-.97.48-.43.14-.85.14-1.25 0-.53-.19-.82-.49-.87-.91-.05-.37.1-.78.42-1.21.03-.04.07-.06.13-.06s.23.01.5.05c.28.03.44.06.49.08.04.01.04.05.01.1-.1.19-.23.39-.31.57-.1.21-.02.4.2.48.16.06.41 0 .73-.17.49-.25.81-.41.99-.46.45-.14.89-.13 1.32.01z" fill="#fff"/><path d="m198.5 225.24c.26.08.38.23.34.44-.02.14-.48 1.05-1.47 2.71.34.07.7.02 1.08-.15.37-.16.64-.37.82-.63.3-.45.4-.91.28-1.4-.02-.06-.03-.12-.05-.18.01-.02.03-.04.04-.04s.17-.02.47-.04.47-.03.48-.03c.02.01.05.04.08.11.28.59.21 1.21-.23 1.86-.45.66-1.06 1.11-1.83 1.34s-1.57.21-2.38-.07c-.73-.25-1.23-.65-1.49-1.2-.28-.58-.21-1.15.18-1.71.36-.52.9-.87 1.62-1.06.7-.19 1.38-.17 2.06.05zm-.99.89c-.29-.1-.61-.09-.96.02s-.6.27-.76.5c-.18.26-.21.53-.09.82s.34.49.66.6c.07.03.15-.01.22-.11.29-.41.59-.93.87-1.54.08-.18.1-.27.06-.29z" fill="#fff"/><path d="m198.3 221.56c.38.12.72.26 1.01.4.07.03.1.07.07.12-.04.06-.1.15-.19.26s-.15.2-.19.26c-.22.35-.24.62-.05.8.11.11.41.24.89.39.23.07.35.11.58.18.2.06.5.15.92.26.41.11.72.2.92.26.1.03.12.08.08.14-.06.09-.14.22-.26.4s-.2.31-.26.4c-.04.07-.11.08-.2.06-.29-.09-.72-.22-1.3-.41-.57-.19-1-.33-1.29-.42-.87-.28-1.6-.44-2.21-.49-.03 0-.05-.01-.07-.01-.04-.01-.06-.04-.05-.08.05-.11.13-.26.22-.46.13-.32.18-.48.17-.45.03-.04.15-.04.36.01s.33.06.36.03c0-.01 0-.01 0-.02-.02-.14-.04-.29-.05-.43-.02-.15 0-.31.04-.45.03-.12.09-.27.2-.44.12-.24.23-.34.3-.31z" fill="#fff"/><path d="m197.9 219.57c.42.14.52.4.29.78-.23.39-.57.51-.99.37-.19-.06-.31-.18-.36-.34-.05-.15-.03-.3.07-.46.09-.16.24-.27.42-.34.2-.07.39-.07.57-.01zm1.39.48c.27.09.66.23 1.19.42.53.2.93.33 1.2.42.26.08.64.19 1.16.33s.91.25 1.17.33c.07.02.1.06.07.11-.19.33-.29.5-.49.84-.04.06-.13.07-.27.03-.25-.07-.61-.19-1.1-.34-.48-.16-.85-.27-1.09-.35-.27-.08-.7-.19-1.26-.33s-.98-.25-1.25-.34c-.06-.02-.07-.06-.03-.12.03-.05.09-.13.17-.22.08-.1.14-.18.17-.23s.07-.14.12-.25.08-.19.12-.25c.01-.05.06-.07.12-.05z" fill="#fff"/><path d="m203.76 216.25c.26.07.39.21.38.42-.01.14-.34 1.05-1.11 2.73.33.05.67-.01 1.02-.18.33-.17.57-.38.71-.65.24-.45.28-.92.11-1.39-.02-.06-.04-.12-.07-.18.01-.02.02-.04.03-.04.01-.01.16-.02.45-.06.29-.03.44-.05.46-.04s.05.04.09.1c.34.57.34 1.19-.01 1.85-.35.67-.89 1.13-1.6 1.38s-1.48.26-2.29.01c-.72-.22-1.24-.6-1.56-1.14-.33-.56-.33-1.13-.02-1.69.29-.53.76-.89 1.43-1.11.65-.2 1.31-.21 1.98-.01zm-.85.92c-.29-.09-.6-.07-.92.05s-.55.29-.67.52c-.14.26-.14.53 0 .81.15.28.38.47.7.57.07.02.14-.02.2-.12.23-.42.46-.94.66-1.55.07-.18.08-.27.03-.28z" fill="#fff"/><path d="m206.24 213.99c.52.14.87.42 1.02.85.14.39.11.8-.11 1.25-.08.17-.14.27-.16.29-.05.04-.15.04-.3 0-.08-.02-.2-.04-.36-.07s-.28-.05-.36-.07c-.05-.01-.06-.05-.05-.1.01-.04.04-.09.08-.16.05-.08.08-.13.08-.12.27-.54.19-.87-.22-.98-.19-.05-.43.02-.71.21-.45.31-.72.49-.81.53-.37.17-.75.19-1.15.07-.52-.15-.85-.43-.97-.84-.11-.36-.06-.77.15-1.2.02-.04.06-.06.11-.07.05 0 .21 0 .47.02s.41.03.46.05c.04.01.05.04.03.1-.06.19-.14.39-.18.57-.05.21.06.39.28.45.16.05.37-.02.65-.21.4-.27.67-.44.82-.5.4-.17.8-.19 1.23-.07z" fill="#fff"/><path d="m124 455.13h228.96v12.06h-228.96z" fill="#414042" transform="matrix(-1 0 0 -1 476.9623 922.3073)"/><path d="m482.81 467.18h-129.85v-12.06h132.31v9.6c0 1.36-1.1 2.46-2.46 2.46z" fill="#2b2438"/><path d="m14.87 217.71 114.57 240.86-10.89 5.18-113.57-238.78c-.55-1.15-.06-2.53 1.09-3.07z" fill="#414042"/><path d="m147.18 217.71 112.94 237.42h-132.31l-112.94-237.42z" fill="#2b2438"/><path d="m125.17 417.33-88.37-185.77h101.63l88.37 185.77z" fill="#ccd8e5"/><path d="m158.06 436.46c.43 1.37 1.67 2.49 2.77 2.49s1.63-1.11 1.2-2.49-1.67-2.49-2.77-2.49-1.63 1.12-1.2 2.49z" fill="#bcb5c9"/><path d="m146.53 436.46c.43 1.37 1.67 2.49 2.77 2.49s1.63-1.11 1.2-2.49-1.67-2.49-2.77-2.49c-1.09 0-1.63 1.12-1.2 2.49z" fill="#bcb5c9"/><path d="m135 436.46c.43 1.37 1.67 2.49 2.77 2.49s1.63-1.11 1.2-2.49-1.67-2.49-2.77-2.49-1.63 1.12-1.2 2.49z" fill="#bcb5c9"/><path d="m229.48 436.46c.43 1.37 1.67 2.49 2.77 2.49 1.09 0 1.63-1.11 1.2-2.49s-1.67-2.49-2.77-2.49-1.64 1.12-1.2 2.49z" fill="#bcb5c9"/><path d="m217.95 436.46c.43 1.37 1.67 2.49 2.77 2.49s1.63-1.11 1.2-2.49-1.67-2.49-2.77-2.49-1.64 1.12-1.2 2.49z" fill="#bcb5c9"/><path d="m206.42 436.46c.43 1.37 1.67 2.49 2.77 2.49s1.63-1.11 1.2-2.49-1.67-2.49-2.77-2.49-1.64 1.12-1.2 2.49z" fill="#bcb5c9"/><path d="m138.43 231.56-77.66 50.38 64.4 135.39h101.63z" fill="#e8f4f9"/><path d="m113.15 461.15c0 5.99 4.86 10.85 10.85 10.85s10.85-4.86 10.85-10.85-4.86-10.85-10.85-10.85-10.85 4.86-10.85 10.85z" fill="#414042"/><path d="m196.28 438.88c.51 4.51-2.08 8.54-6.15 8.94-4.54.44-8.94-3.71-9.34-9.19-.38-5.33 3.26-9.05 7.67-8.51 3.99.48 7.33 4.35 7.82 8.76z" fill="#fff"/><path d="m191.16 437.84-.32-3.34.6.05.32 3.32z"/><path d="m189.5 436.79-.05-.58 1.08.06.05.58z"/><path d="m186.03 437.67-.79-.03-1-1.57-.29.22.1 1.31-.73-.02-.28-3.67.72.05.13 1.66.25-.41.81-1.16.77.06-1.02 1.5z"/><path d="m186.44 437.68-.29-3.54.67.05.3 3.51z"/><path d="m189.09 437.77-.65-.02-.25-2.85-.84-.06-.05-.61 2.29.17.05.59-.81-.06z"/><path d="m194.27 434.73.34 3.21-.31-.01c-.05 0-.09-.01-.12-.03s-.07-.05-.1-.1l-1.46-2.01c.01.06.02.12.03.17s.01.11.02.15l.18 1.77-.56-.02-.33-3.3.33.03c.03 0 .05.01.07.01s.04.01.05.02c.02.01.03.02.05.04s.03.04.05.06l1.47 2.03c-.01-.06-.02-.12-.03-.18s-.02-.11-.02-.17l-.18-1.7z"/><path clip-path="url(#a)" d="m190.79 434.49.02.26-.03-.26z" fill="#6c499c"/><path clip-path="url(#a)" d="m190.82 434.49.19 2.44-.2-2.18-.02-.26z" fill="#6d489c"/><path clip-path="url(#a)" d="m190.86 434.5.26 3.34-.02-.01-.09-.9-.19-2.44z" fill="#6d489c"/><path clip-path="url(#a)" d="m190.9 434.5.26 3.34h-.04l-.26-3.34z" fill="#6e489c"/><path clip-path="url(#a)" d="m190.93 434.5.27 3.34h-.04l-.26-3.34z" fill="#6f479b"/><path clip-path="url(#a)" d="m190.97 434.51.26 3.33h-.03l-.27-3.34z" fill="#71479b"/><path clip-path="url(#a)" d="m191.01 434.51.26 3.33h-.04l-.26-3.33z" fill="#71469b"/><path clip-path="url(#a)" d="m191.04 434.51.27 3.33h-.04l-.26-3.33z" fill="#72459a"/><path clip-path="url(#a)" d="m191.08 434.51.27 3.33h-.04l-.27-3.33z" fill="#73459a"/><path clip-path="url(#a)" d="m191.12 434.52.26 3.32h-.03l-.27-3.33z" fill="#74459a"/><path clip-path="url(#a)" d="m191.16 434.52.26 3.33-.04-.01-.26-3.32z" fill="#75459a"/><path clip-path="url(#a)" d="m191.19 434.52.27 3.33h-.04l-.26-3.33z" fill="#75459a"/><path clip-path="url(#a)" d="m191.23 434.52.26 3.33h-.03l-.27-3.33z" fill="#749"/><path clip-path="url(#a)" d="m191.27 434.53.26 3.32h-.04l-.26-3.33z" fill="#784399"/><path clip-path="url(#a)" d="m191.3 434.53.27 3.32h-.04l-.26-3.32z" fill="#794399"/><path clip-path="url(#a)" d="m191.34 434.53.26 3.32h-.03l-.27-3.32z" fill="#7a4399"/><path clip-path="url(#a)" d="m191.38 434.54.26 3.31h-.04l-.26-3.32z" fill="#7b4298"/><path clip-path="url(#a)" d="m191.55 436.29.13 1.56h-.04l-.26-3.31z" fill="#7c4298"/><path clip-path="url(#a)" d="m191.68 437.85-.13-1.56.15 1.56z" fill="#7c4198"/><path clip-path="url(#b)" d="m189.41 436.2.04.59h-.01l-.05-.59z" fill="#5154a3"/><path clip-path="url(#b)" d="m189.45 436.21.04.58h-.04l-.04-.59z" fill="#5153a3"/><path clip-path="url(#b)" d="m189.49 436.21.04.58h-.04l-.04-.58z" fill="#5353a2"/><path clip-path="url(#b)" d="m189.52 436.21.05.58h-.04l-.04-.58z" fill="#5452a2"/><path clip-path="url(#b)" d="m189.56 436.21.05.58h-.04l-.05-.58z" fill="#5552a2"/><path clip-path="url(#b)" d="m189.6 436.21.04.59-.03-.01-.05-.58z" fill="#5552a2"/><path clip-path="url(#b)" d="m189.64 436.22.04.58h-.04l-.04-.59z" fill="#5552a2"/><path clip-path="url(#b)" d="m189.68 436.22.04.58h-.04l-.04-.58z" fill="#5652a2"/><path clip-path="url(#b)" d="m189.72 436.22.04.58h-.04l-.04-.58z" fill="#5652a2"/><path clip-path="url(#b)" d="m189.75 436.22.05.58h-.04l-.04-.58z" fill="#5651a1"/><path clip-path="url(#b)" d="m189.79 436.22.05.59-.04-.01-.05-.58z" fill="#5651a1"/><path clip-path="url(#b)" d="m189.83 436.23.04.58h-.03l-.05-.59z" fill="#5751a1"/><path clip-path="url(#b)" d="m189.87 436.23.04.58h-.04l-.04-.58z" fill="#5851a1"/><path clip-path="url(#b)" d="m189.91 436.23.04.58h-.04l-.04-.58z" fill="#5950a1"/><path clip-path="url(#b)" d="m189.95 436.23.04.58h-.04l-.04-.58z" fill="#5950a1"/><path clip-path="url(#b)" d="m189.98 436.23.05.58h-.04l-.04-.58z" fill="#5b50a0"/><path clip-path="url(#b)" d="m190.02 436.24.05.58-.04-.01-.05-.58z" fill="#5b50a0"/><path clip-path="url(#b)" d="m190.06 436.24.04.58h-.03l-.05-.58z" fill="#5b50a0"/><path clip-path="url(#b)" d="m190.1 436.24.04.58h-.04l-.04-.58z" fill="#5c4fa0"/><path clip-path="url(#b)" d="m190.14 436.24.04.58h-.04l-.04-.58z" fill="#5d4fa0"/><path clip-path="url(#b)" d="m190.17 436.24.05.58h-.04l-.04-.58z" fill="#5d4fa0"/><path clip-path="url(#b)" d="m190.21 436.25.05.57h-.04l-.05-.58z" fill="#5e4fa0"/><path clip-path="url(#b)" d="m190.25 436.25.04.58-.03-.01-.05-.57z" fill="#5f4e9f"/><path clip-path="url(#b)" d="m190.29 436.25.04.58h-.04l-.04-.58z" fill="#5f4e9f"/><path clip-path="url(#b)" d="m190.33 436.25.04.58h-.04l-.04-.58z" fill="#604d9f"/><path clip-path="url(#b)" d="m190.36 436.25.05.58h-.04l-.04-.58z" fill="#614d9f"/><path clip-path="url(#b)" d="m190.4 436.26.05.57h-.04l-.05-.58z" fill="#624d9f"/><path clip-path="url(#b)" d="m190.44 436.26.04.57h-.03l-.05-.57z" fill="#624d9f"/><path clip-path="url(#b)" d="m190.51 436.66.01.18-.04-.01-.04-.57h.03z" fill="#634c9e"/><path clip-path="url(#b)" d="m190.52 436.84-.01-.18z" fill="#634c9e"/><path clip-path="url(#c)" d="m183.03 433.9.12 2.2-.16-2.2z" fill="#11b4c4"/><path clip-path="url(#c)" d="m183.07 433.91.21 3.66h-.02l-.11-1.47-.12-2.2z" fill="#11b4c4"/><path clip-path="url(#c)" d="m183.12 433.91.21 3.66h-.05l-.21-3.66z" fill="#14b3c4"/><path clip-path="url(#c)" d="m183.16 433.91.21 3.67-.04-.01-.21-3.66z" fill="#10b2c5"/><path clip-path="url(#c)" d="m183.21 433.92.2 3.66h-.04l-.21-3.67z" fill="#10b2c6"/><path clip-path="url(#c)" d="m183.25 433.92.21 3.66h-.05l-.2-3.66z" fill="#12b1c6"/><path clip-path="url(#c)" d="m183.29 433.92.21 3.66h-.04l-.21-3.66z" fill="#0cb0c7"/><path clip-path="url(#c)" d="m183.34 433.93.21 3.65h-.05l-.21-3.66z" fill="#10afc7"/><path clip-path="url(#c)" d="m183.38 433.93.21 3.65h-.04l-.21-3.65z" fill="#13aec7"/><path clip-path="url(#c)" d="m183.43 433.93.21 3.65h-.05l-.21-3.65z" fill="#17adc7"/><path clip-path="url(#c)" d="m183.47 433.94.21 3.65-.04-.01-.21-3.65z" fill="#19acc7"/><path clip-path="url(#c)" d="m183.51 433.94.21 3.65h-.04l-.21-3.65z" fill="#13abc9"/><path clip-path="url(#c)" d="m183.56 433.94.21 3.65h-.05l-.21-3.65z" fill="#10aac9"/><path clip-path="url(#c)" d="m183.6 433.95.21 3.64h-.04l-.21-3.65z" fill="#11a9ca"/><path clip-path="url(#c)" d="m183.64 433.95.22 3.64h-.05l-.21-3.64z" fill="#0aa8ca"/><path clip-path="url(#c)" d="m183.69 433.95.21 3.64h-.04l-.22-3.64z" fill="#0ea7ca"/><path clip-path="url(#c)" d="m183.73 433.96.21 3.64-.04-.01-.21-3.64z" fill="#11a6cb"/><path clip-path="url(#c)" d="m183.78 433.96.21 3.64h-.05l-.21-3.64z" fill="#15a5cb"/><path clip-path="url(#c)" d="m183.82 433.96.21 3.64h-.04l-.21-3.64z" fill="#14a4cc"/><path clip-path="url(#c)" d="m183.86 433.97.21 3.63h-.04l-.21-3.64z" fill="#11a3cd"/><path clip-path="url(#c)" d="m183.91 433.97.21 3.63h-.05l-.21-3.63z" fill="#14a2cd"/><path clip-path="url(#c)" d="m183.95 433.97.21 3.63h-.04l-.21-3.63z" fill="#16a1cd"/><path clip-path="url(#c)" d="m183.99 433.98.22 3.62h-.05l-.21-3.63z" fill="#19a0cd"/><path clip-path="url(#c)" d="m184.03 433.98.22 3.63-.04-.01-.22-3.62z" fill="#169fcd"/><path clip-path="url(#c)" d="m184.08 433.98.21 3.63h-.04l-.22-3.63z" fill="#189ece"/><path clip-path="url(#c)" d="m184.12 433.99.22 3.62h-.05l-.21-3.63z" fill="#199dce"/><path clip-path="url(#c)" d="m184.16 433.99.22 3.62h-.04l-.22-3.62z" fill="#199ccf"/><path clip-path="url(#c)" d="m184.21 433.99.21 3.62h-.04l-.22-3.62z" fill="#1c9bcf"/><path clip-path="url(#c)" d="m184.25 434 .22 3.61h-.05l-.21-3.62z" fill="#1e9acf"/><path clip-path="url(#c)" d="m184.29 434 .22 3.61h-.04l-.22-3.61z" fill="#1999d1"/><path clip-path="url(#c)" d="m184.34 434 .21 3.62-.04-.01-.22-3.61z" fill="#1798d0"/><path clip-path="url(#c)" d="m184.38 434.01.22 3.61h-.05l-.21-3.62z" fill="#1997d1"/><path clip-path="url(#c)" d="m184.42 434.01.22 3.61h-.04l-.22-3.61z" fill="#1b96d1"/><path clip-path="url(#c)" d="m184.46 434.01.22 3.61h-.04l-.22-3.61z" fill="#1c95d1"/><path clip-path="url(#c)" d="m184.51 434.02.22 3.6h-.05l-.22-3.61z" fill="#1e94d2"/><path clip-path="url(#c)" d="m184.55 434.02.22 3.6h-.04l-.22-3.6z" fill="#2193d1"/><path clip-path="url(#c)" d="m184.59 434.02.22 3.6h-.04l-.22-3.6z" fill="#2392d0"/><path clip-path="url(#c)" d="m184.64 434.03.21 3.6-.04-.01-.22-3.6z" fill="#2591cf"/><path clip-path="url(#c)" d="m184.68 434.03.22 3.6h-.05l-.21-3.6z" fill="#258fce"/><path clip-path="url(#c)" d="m184.72 434.03.22 3.6h-.04l-.22-3.6z" fill="#278ecd"/><path clip-path="url(#c)" d="m184.76 434.03.22 3.6h-.04l-.22-3.6z" fill="#298dcd"/><path clip-path="url(#c)" d="m184.81 434.04.22 3.59h-.05l-.22-3.6z" fill="#2b8ccc"/><path clip-path="url(#c)" d="m184.85 434.04.22 3.59h-.04l-.22-3.59z" fill="#2d8bca"/><path clip-path="url(#c)" d="m184.89 434.04.22 3.59h-.04l-.22-3.59z" fill="#2d8aca"/><path clip-path="url(#c)" d="m184.93 434.05.22 3.59-.04-.01-.22-3.59z" fill="#2e88c9"/><path clip-path="url(#c)" d="m184.97 434.05.23 3.59h-.05l-.22-3.59z" fill="#3187c8"/><path clip-path="url(#c)" d="m185.02 434.05.22 3.59h-.04l-.23-3.59z" fill="#3086c7"/><path clip-path="url(#c)" d="m185.06 434.06.22 3.58h-.04l-.22-3.59z" fill="#3285c6"/><path clip-path="url(#c)" d="m185.1 434.06.22 3.58h-.04l-.22-3.58z" fill="#3384c5"/><path clip-path="url(#c)" d="m185.14 434.06.23 3.58h-.05l-.22-3.58z" fill="#3482c4"/><path clip-path="url(#c)" d="m185.19 434.07.22 3.57h-.04l-.23-3.58z" fill="#3781c3"/><path clip-path="url(#c)" d="m185.23 434.07.22 3.58-.04-.01-.22-3.57z" fill="#3880c2"/><path clip-path="url(#c)" d="m185.27 434.07.22 3.58h-.04l-.22-3.58z" fill="#387fc1"/><path clip-path="url(#c)" d="m185.31 434.08.23 3.57h-.05l-.22-3.58z" fill="#397ec0"/><path clip-path="url(#c)" d="m185.35 434.08.23 3.57h-.04l-.23-3.57z" fill="#3a7dc0"/><path clip-path="url(#c)" d="m185.39 434.08.23 3.57h-.04l-.23-3.57z" fill="#3b7cbf"/><path clip-path="url(#c)" d="m185.44 434.09.22 3.56h-.04l-.23-3.57z" fill="#3b7bbe"/><path clip-path="url(#c)" d="m185.48 434.09.22 3.56h-.04l-.22-3.56z" fill="#3c7abd"/><path clip-path="url(#c)" d="m185.52 434.09.23 3.57-.05-.01-.22-3.56z" fill="#3d79bd"/><path clip-path="url(#c)" d="m185.56 434.1.23 3.56h-.04l-.23-3.57z" fill="#3c79bc"/><path clip-path="url(#c)" d="m185.6 434.1.23 3.56h-.04l-.23-3.56z" fill="#3f77bb"/><path clip-path="url(#c)" d="m185.64 434.1.23 3.56h-.04l-.23-3.56z" fill="#4076ba"/><path clip-path="url(#c)" d="m185.72 434.65.19 3.01h-.04l-.23-3.56h.04z" fill="#4076ba"/><path clip-path="url(#c)" d="m185.91 436.94.05.72h-.05l-.19-3.01z" fill="#4075b9"/><path clip-path="url(#c)" d="m185.96 437.66-.05-.72.06.72z" fill="#4174b8"/><path clip-path="url(#d)" d="m186.1 434.14.06.97-.08-.98z" fill="#426cb3"/><path clip-path="url(#d)" d="m186.14 434.14.21 3.26-.19-2.29-.06-.97z" fill="#416cb3"/><path clip-path="url(#d)" d="m186.18 434.14.23 3.54h-.03l-.03-.28-.21-3.26z" fill="#426bb3"/><path clip-path="url(#d)" d="m186.22 434.15.23 3.53h-.04l-.23-3.54z" fill="#436ab2"/><path clip-path="url(#d)" d="m186.26 434.15.24 3.53h-.05l-.23-3.53z" fill="#436ab2"/><path clip-path="url(#d)" d="m186.3 434.15.24 3.53h-.04l-.24-3.53z" fill="#4469b1"/><path clip-path="url(#d)" d="m186.35 434.15.23 3.53h-.04l-.24-3.53z" fill="#4468b1"/><path clip-path="url(#d)" d="m186.39 434.16.23 3.52h-.04l-.23-3.53z" fill="#4368b0"/><path clip-path="url(#d)" d="m186.43 434.16.23 3.53-.04-.01-.23-3.52z" fill="#4367b0"/><path clip-path="url(#d)" d="m186.47 434.16.23 3.53h-.04l-.23-3.53z" fill="#4466af"/><path clip-path="url(#d)" d="m186.51 434.17.23 3.52h-.04l-.23-3.53z" fill="#4566af"/><path clip-path="url(#d)" d="m186.55 434.17.23 3.52h-.04l-.23-3.52z" fill="#4565af"/><path clip-path="url(#d)" d="m186.59 434.17.23 3.52h-.04l-.23-3.52z" fill="#4465ae"/><path clip-path="url(#d)" d="m186.63 434.18.23 3.51h-.04l-.23-3.52z" fill="#4464ae"/><path clip-path="url(#d)" d="m186.67 434.18.24 3.51h-.05l-.23-3.51z" fill="#4664ae"/><path clip-path="url(#d)" d="m186.71 434.18.24 3.52-.04-.01-.24-3.51z" fill="#4663ad"/><path clip-path="url(#d)" d="m186.75 434.19.24 3.51h-.04l-.24-3.52z" fill="#4663ad"/><path clip-path="url(#d)" d="m186.93 436.23.1 1.47h-.04l-.24-3.51h.01z" fill="#4662ac"/><path clip-path="url(#d)" d="m187.03 437.7-.1-1.47.12 1.47z" fill="#4562ac"/><path clip-path="url(#e)" d="m187.28 434.23.13 2.03-.17-2.04z" fill="#485ea9"/><path clip-path="url(#e)" d="m187.32 434.23.23 3.49h-.01l-.13-1.46-.13-2.03z" fill="#475da9"/><path clip-path="url(#e)" d="m187.36 434.23.23 3.49h-.04l-.23-3.49z" fill="#475da9"/><path clip-path="url(#e)" d="m187.4 434.23.23 3.49h-.04l-.23-3.49z" fill="#475ca9"/><path clip-path="url(#e)" d="m187.43 434.24.24 3.48h-.04l-.23-3.49z" fill="#475ca9"/><path clip-path="url(#e)" d="m187.47 434.24.24 3.48h-.04l-.24-3.48z" fill="#485ca8"/><path clip-path="url(#e)" d="m187.51 434.24.24 3.48h-.04l-.24-3.48z" fill="#485ca8"/><path clip-path="url(#e)" d="m187.55 434.25.24 3.47h-.04l-.24-3.48z" fill="#485ba8"/><path clip-path="url(#e)" d="m187.59 434.25.24 3.48-.04-.01-.24-3.47z" fill="#485ba8"/><path clip-path="url(#e)" d="m187.63 434.25.24 3.48h-.04l-.24-3.48z" fill="#485ba8"/><path clip-path="url(#e)" d="m187.67 434.26.24 3.47h-.04l-.24-3.48z" fill="#495aa7"/><path clip-path="url(#e)" d="m187.71 434.26.24 3.47h-.04l-.24-3.47z" fill="#495aa7"/><path clip-path="url(#e)" d="m187.75 434.26.24 3.47h-.04l-.24-3.47z" fill="#495aa7"/><path clip-path="url(#e)" d="m187.79 434.26.24 3.47h-.04l-.24-3.47z" fill="#495aa7"/><path clip-path="url(#e)" d="m187.83 434.27.24 3.46h-.04l-.24-3.47z" fill="#4959a7"/><path clip-path="url(#e)" d="m187.87 434.27.24 3.46h-.04l-.24-3.46z" fill="#4959a7"/><path clip-path="url(#e)" d="m187.91 434.27.24 3.47-.04-.01-.24-3.46z" fill="#4959a7"/><path clip-path="url(#e)" d="m187.95 434.28.24 3.46h-.04l-.24-3.47z" fill="#4a59a6"/><path clip-path="url(#e)" d="m187.99 434.28.24 3.46h-.04l-.24-3.46z" fill="#4a59a6"/><path clip-path="url(#e)" d="m188.03 434.28.24 3.46h-.04l-.24-3.46z" fill="#4a59a6"/><path clip-path="url(#e)" d="m188.07 434.29.24 3.45h-.04l-.24-3.46z" fill="#4a58a6"/><path clip-path="url(#e)" d="m188.11 434.29.24 3.45h-.04l-.24-3.45z" fill="#4a58a6"/><path clip-path="url(#e)" d="m188.15 434.29.24 3.45h-.04l-.24-3.45z" fill="#4a58a6"/><path clip-path="url(#e)" d="m188.18 434.29.25 3.46-.04-.01-.24-3.45z" fill="#4a58a6"/><path clip-path="url(#e)" d="m188.22 434.3.25 3.45h-.04l-.25-3.46z" fill="#4a57a5"/><path clip-path="url(#e)" d="m188.26 434.3.25 3.45h-.04l-.25-3.45z" fill="#4a57a5"/><path clip-path="url(#e)" d="m188.3 434.3.25 3.45h-.04l-.25-3.45z" fill="#4a57a5"/><path clip-path="url(#e)" d="m188.34 434.31.25 3.44h-.04l-.25-3.45z" fill="#4a57a5"/><path clip-path="url(#e)" d="m188.38 434.31.25 3.44h-.04l-.25-3.44z" fill="#4b56a5"/><path clip-path="url(#e)" d="m188.42 434.31.24 3.44h-.03l-.25-3.44z" fill="#4b56a5"/><path clip-path="url(#e)" d="m188.46 434.31.24 3.44h-.04l-.24-3.44z" fill="#4b56a5"/><path clip-path="url(#e)" d="m188.5 434.32.24 3.44-.04-.01-.24-3.44z" fill="#4b56a5"/><path clip-path="url(#e)" d="m188.53 434.32.25 3.44h-.04l-.24-3.44z" fill="#4b56a5"/><path clip-path="url(#e)" d="m188.57 434.32.25 3.44h-.04l-.25-3.44z" fill="#4a56a5"/><path clip-path="url(#e)" d="m188.61 434.33.25 3.43h-.04l-.25-3.44z" fill="#4a56a5"/><path clip-path="url(#e)" d="m188.65 434.33.25 3.43h-.04l-.25-3.43z" fill="#4a56a5"/><path clip-path="url(#e)" d="m188.69 434.33.25 3.43h-.04l-.25-3.43z" fill="#4a56a5"/><path clip-path="url(#e)" d="m188.73 434.34.25 3.42h-.04l-.25-3.43z" fill="#4a56a4"/><path clip-path="url(#e)" d="m188.77 434.34.25 3.42h-.04l-.25-3.42z" fill="#4b56a4"/><path clip-path="url(#e)" d="m188.81 434.34.25 3.43-.04-.01-.25-3.42z" fill="#4b56a4"/><path clip-path="url(#e)" d="m188.85 434.34.25 3.43h-.04l-.25-3.43z" fill="#4b55a4"/><path clip-path="url(#e)" d="m188.88 434.35.25 3.42h-.03l-.25-3.43z" fill="#4b55a4"/><path clip-path="url(#e)" d="m188.92 434.35.25 3.42h-.04l-.25-3.42z" fill="#4d55a4"/><path clip-path="url(#e)" d="m188.96 434.35.25 3.42h-.04l-.25-3.42z" fill="#4e55a4"/><path clip-path="url(#e)" d="m189 434.36.25 3.41h-.04l-.25-3.42z" fill="#4f54a3"/><path clip-path="url(#e)" d="m189.04 434.36.25 3.41h-.04l-.25-3.41z" fill="#4f54a3"/><path clip-path="url(#e)" d="m189.08 434.36.25 3.42-.04-.01-.25-3.41z" fill="#4f54a3"/><path clip-path="url(#e)" d="m189.12 434.36.25 3.42h-.04l-.25-3.42z" fill="#4f54a3"/><path clip-path="url(#e)" d="m189.16 434.37.25 3.41h-.04l-.25-3.42z" fill="#5054a3"/><path clip-path="url(#e)" d="m189.2 434.37.25 3.41h-.04l-.25-3.41z" fill="#5054a3"/><path clip-path="url(#e)" d="m189.23 434.37.26 3.41h-.04l-.25-3.41z" fill="#5054a3"/><path clip-path="url(#e)" d="m189.27 434.38.25 3.4h-.03l-.26-3.41z" fill="#5154a3"/><path clip-path="url(#e)" d="m189.31 434.38.25 3.4h-.04l-.25-3.4z" fill="#5153a3"/><path clip-path="url(#e)" d="m189.35 434.38.25 3.4h-.04l-.25-3.4z" fill="#5353a2"/><path clip-path="url(#e)" d="m189.39 434.39.25 3.4-.04-.01-.25-3.4z" fill="#5452a2"/><path clip-path="url(#e)" d="m189.43 434.39.25 3.4h-.04l-.25-3.4z" fill="#5552a2"/><path clip-path="url(#e)" d="m189.46 434.39.26 3.4h-.04l-.25-3.4z" fill="#5552a2"/><path clip-path="url(#e)" d="m189.5 434.39.26 3.4h-.04l-.26-3.4z" fill="#5552a2"/><path clip-path="url(#e)" d="m189.6 435.19.2 2.6h-.04l-.26-3.4.03.01z" fill="#5652a2"/><path clip-path="url(#e)" d="m189.81 437.41.02.38h-.03l-.2-2.6z" fill="#5652a2"/><path clip-path="url(#e)" d="m189.83 437.79-.02-.38.03.38z" fill="#5651a1"/><path clip-path="url(#f)" d="m191.92 434.55.14 1.76-.17-1.76z" fill="#893b95"/><path clip-path="url(#f)" d="m191.95 434.56.27 3.3h-.01l-.15-1.55-.14-1.76z" fill="#8b3a95"/><path clip-path="url(#f)" d="m191.99 434.56.27 3.3h-.04l-.27-3.3z" fill="#8b3a95"/><path clip-path="url(#f)" d="m192.03 434.56.27 3.3h-.04l-.27-3.3z" fill="#8d3994"/><path clip-path="url(#f)" d="m192.09 434.57.27 3.29h-.06l-.27-3.3z" fill="#8d3994"/><path clip-path="url(#f)" d="m192.15 434.57.27 3.29h-.06l-.27-3.29z" fill="#8d3a95"/><path clip-path="url(#f)" d="m192.21 434.58.27 3.29-.06-.01-.27-3.29z" fill="#8d3b95"/><path clip-path="url(#f)" d="m192.27 434.58.27 3.29h-.06l-.27-3.29z" fill="#8b3c95"/><path clip-path="url(#f)" d="m192.33 434.58.27 3.29h-.06l-.27-3.29z" fill="#8b3c96"/><path clip-path="url(#f)" d="m192.39 434.59.27 3.28h-.06l-.27-3.29z" fill="#8b3d96"/><path clip-path="url(#f)" d="m192.45 434.59.27 3.29-.06-.01-.27-3.28z" fill="#8a3e96"/><path clip-path="url(#f)" d="m192.51 434.6.27 3.28h-.06l-.27-3.29z" fill="#8a3f97"/><path clip-path="url(#f)" d="m192.57 434.6.27 3.28h-.06l-.27-3.28z" fill="#894097"/><path clip-path="url(#f)" d="m192.63 434.61.27 3.27h-.06l-.27-3.28z" fill="#894097"/><path clip-path="url(#f)" d="m192.69 434.61.27 3.27h-.06l-.27-3.27z" fill="#894198"/><path clip-path="url(#f)" d="m192.75 434.62.27 3.27-.06-.01-.27-3.27z" fill="#884298"/><path clip-path="url(#f)" d="m192.81 434.62.27 3.27h-.06l-.27-3.27z" fill="#874398"/><path clip-path="url(#f)" d="m192.86 434.63.28 3.26h-.06l-.27-3.27z" fill="#874399"/><path clip-path="url(#f)" d="m192.92 434.63.28 3.26h-.06l-.28-3.26z" fill="#874499"/><path clip-path="url(#f)" d="m192.98 434.63.28 3.26h-.06l-.28-3.26z" fill="#864599"/><path clip-path="url(#f)" d="m193.04 434.64.28 3.26-.06-.01-.28-3.26z" fill="#864599"/><path clip-path="url(#f)" d="m193.1 434.64.28 3.26h-.06l-.28-3.26z" fill="#85469a"/><path clip-path="url(#f)" d="m193.16 434.65.28 3.25h-.06l-.28-3.26z" fill="#85479a"/><path clip-path="url(#f)" d="m193.22 434.65.28 3.25h-.06l-.28-3.25z" fill="#85479b"/><path clip-path="url(#f)" d="m193.28 434.66.27 3.24h-.05l-.28-3.25z" fill="#85489b"/><path clip-path="url(#f)" d="m193.34 434.66.27 3.25-.06-.01-.27-3.24z" fill="#84489b"/><path clip-path="url(#f)" d="m193.39 434.67.28 3.24h-.06l-.27-3.25z" fill="#84499b"/><path clip-path="url(#f)" d="m193.45 434.67.28 3.24h-.06l-.28-3.24z" fill="#85499b"/><path clip-path="url(#f)" d="m193.51 434.67.28 3.24h-.06l-.28-3.24z" fill="#854a9c"/><path clip-path="url(#f)" d="m193.57 434.68.28 3.23h-.06l-.28-3.24z" fill="#854b9c"/><path clip-path="url(#f)" d="m193.63 434.68.28 3.24-.06-.01-.28-3.23z" fill="#844c9d"/><path clip-path="url(#f)" d="m193.69 434.69.28 3.23h-.06l-.28-3.24z" fill="#834c9d"/><path clip-path="url(#f)" d="m193.74 434.69.28 3.23h-.05l-.28-3.23z" fill="#834d9d"/><path clip-path="url(#f)" d="m193.8 434.7.28 3.22h-.06l-.28-3.23z" fill="#834e9e"/><path clip-path="url(#f)" d="m193.86 434.7.28 3.22h-.06l-.28-3.22z" fill="#834e9e"/><path clip-path="url(#f)" d="m193.92 434.71.28 3.21h-.06l-.28-3.22z" fill="#824f9f"/><path clip-path="url(#f)" d="m193.97 434.71.29 3.22-.06-.01-.28-3.21z" fill="#824f9f"/><path clip-path="url(#f)" d="m194.03 434.71.28 3.22h-.05l-.29-3.22z" fill="#82509f"/><path clip-path="url(#f)" d="m194.09 434.72.28 3.21h-.06l-.28-3.22z" fill="#82509f"/><path clip-path="url(#f)" d="m194.15 434.72.28 3.21h-.06l-.28-3.21z" fill="#8052a0"/><path clip-path="url(#f)" d="m194.2 434.73.29 3.2h-.06l-.28-3.21z" fill="#8052a0"/><path clip-path="url(#f)" d="m194.5 437.43.04.51-.05-.01-.29-3.2h.02z" fill="#8053a1"/><path clip-path="url(#f)" d="m194.54 437.94-.04-.51.05.51z" fill="#8054a1"/><path d="m183.67 442.65 8.17-.21.34-4.01-7.96-.21z"/><path d="m194.19 442.39h.22l.26-3.88-.22-.01z"/><path d="m193.8 442.4h.22l.27-3.9-.22-.01z"/><path d="m193.39 442.41h.23l.27-3.92-.22-.01z"/><path d="m192.96 442.42h.23l.28-3.94-.22-.01z"/><path d="m192.52 442.44.23-.01.3-3.96-.23-.01z"/><path d="m192.06 442.45.24-.01.3-3.99h-.23z"/><path d="m183.64 442.65 8.18-.2.34-4.02-7.97-.21z" fill="#7d5ca6"/><path d="m194.16 442.39h.23l.26-3.88-.22-.01z" fill="#e53044"/><path d="m193.77 442.4h.23l.27-3.9-.23-.01z" fill="#f38020"/><path d="m193.36 442.41h.23l.28-3.92-.22-.01z" fill="#f8ec23"/><path d="m192.93 442.43.23-.01.29-3.94-.23-.01z" fill="#b7cc33"/><path d="m192.49 442.44.24-.01.29-3.97h-.23z" fill="#12b6ba"/><path d="m192.04 442.45.23-.01.31-3.99h-.23z" fill="#2b78bc"/><path d="m186.72 441.83-.19-.82-1.01.01-.34.84-.47.01 1.29-2.99.46.01.71 2.94zm-.26-1.24-.17-.8c-.01-.05-.03-.14-.05-.25-.02-.12-.04-.2-.04-.25-.05.16-.11.34-.19.54l-.31.77z"/><path d="m189.33 439.8c-.02.3-.12.52-.3.68s-.43.24-.74.24h-.26l-.09 1.09-.42.01.25-2.9.72.01c.31.01.53.08.67.23.13.14.19.36.17.64zm-1.28.52h.22c.21 0 .37-.04.47-.12s.16-.21.18-.39c.01-.16-.02-.28-.1-.37-.08-.08-.21-.12-.4-.13h-.28z"/><path d="m191.37 439.81c-.02.29-.11.51-.28.66-.17.16-.4.23-.7.23h-.25l-.08 1.06-.4.01.21-2.82.68.01c.29.01.51.08.64.22.14.15.2.36.18.63zm-1.21.52h.21c.2 0 .35-.04.44-.12.1-.08.15-.21.16-.38.01-.16-.02-.28-.1-.36s-.2-.12-.38-.12h-.27z"/><path d="m186.69 441.82-.19-.82-1.01.01-.34.84-.47.01 1.29-2.99.47.01.71 2.94zm-.27-1.23-.17-.8c-.01-.05-.03-.14-.05-.25-.02-.12-.04-.2-.04-.25-.05.16-.11.34-.19.54l-.31.77z" fill="#fff"/><path d="m189.3 439.79c-.02.3-.12.52-.3.68s-.43.24-.74.24h-.26l-.09 1.09-.42.01.25-2.9.72.01c.31.01.53.08.67.23.13.15.19.36.17.64zm-1.28.53h.22c.21 0 .37-.04.47-.12s.16-.21.18-.39c.01-.16-.02-.29-.1-.37s-.21-.12-.4-.13h-.28z" fill="#fff"/><path d="m191.34 439.81c-.02.29-.11.51-.28.66-.17.16-.41.23-.7.23h-.25l-.08 1.06-.4.01.21-2.82.68.01c.29.01.51.08.64.22.14.15.2.36.18.63zm-1.21.51h.21c.2 0 .35-.04.44-.12.1-.08.15-.21.16-.38.01-.16-.02-.28-.1-.36s-.2-.12-.38-.12h-.27z" fill="#fff"/><g clip-path="url(#g)"><path d="m209.46 393.15h-97.53c-2.01 0-4.22-1.6-4.92-3.57l-17.67-49.61h104.83l17.67 49.61c.69 1.97-.37 3.57-2.38 3.57z" fill="#fff"/><path d="m186.82 329.63h-97.53c-2.01 0-3.08 1.6-2.38 3.57l2.41 6.77h104.83l-2.41-6.77c-.7-1.97-2.9-3.57-4.92-3.57z" fill="#493d60"/><g fill="#d3dee6"><path d="m94.44 334.8c.29.82-.21 1.49-1.11 1.49-.91 0-1.88-.67-2.18-1.49-.29-.82.2-1.49 1.11-1.49.92 0 1.89.67 2.18 1.49z"/><path d="m99.61 334.8c.29.82-.2 1.49-1.11 1.49s-1.88-.67-2.18-1.49c-.29-.82.2-1.49 1.11-1.49s1.89.67 2.18 1.49z"/><path d="m104.78 334.8c.29.82-.21 1.49-1.11 1.49-.91 0-1.88-.67-2.18-1.49-.29-.82.2-1.49 1.11-1.49s1.88.67 2.18 1.49z"/><path d="m188.03 333.63-1.12-.77-.88 1.17-1.7-1.17-.58.77 1.71 1.17-.87 1.17 1.12.77.87-1.17 1.71 1.17.57-.77-1.7-1.17z"/><path d="m178.05 335.23h-66.04c-.26 0-.54-.19-.63-.43-.08-.24.06-.43.32-.43h66.04c.26 0 .54.19.62.43.09.24-.05.43-.31.43z"/><path d="m198.88 385.45c.17.49-.12.88-.66.88h-83.06c-.54 0-1.11-.39-1.28-.88s.12-.88.66-.88h83.06c.53 0 1.11.39 1.28.88z"/><path d="m195.53 378.78h-83.06c-.54 0-1.11-.39-1.28-.88s.12-.88.66-.88h83.06c.54 0 1.11.39 1.28.88.17.48-.12.88-.66.88z"/><path d="m192.84 371.22h-83.06c-.54 0-1.11-.39-1.28-.88s.12-.88.66-.88h83.06c.54 0 1.11.39 1.28.88s-.12.88-.66.88z"/><path d="m190.15 363.67h-30.17c-.54 0-1.11-.39-1.28-.88s.12-.88.66-.88h30.17c.54 0 1.11.39 1.28.88s-.12.88-.66.88z"/><path d="m187.46 356.11h-30.17c-.54 0-1.11-.39-1.28-.88s.12-.88.66-.88h30.17c.54 0 1.11.39 1.28.88s-.12.88-.66.88z"/><path d="m184.77 348.56h-30.17c-.54 0-1.11-.39-1.28-.88s.12-.88.66-.88h30.17c.54 0 1.11.39 1.28.88.17.48-.13.88-.66.88z"/><path d="m150.38 363.67h-43.33c-.52 0-1.08-.41-1.26-.91l-5.36-15.04c-.18-.5.09-.91.61-.91h43.33c.52 0 1.08.41 1.26.91l5.36 15.04c.17.5-.1.91-.61.91z"/></g><path d="m132 355.23-7.97 5.14-3.66-10.27z" fill="#fff"/></g><path d="m315.18 156.28c27.39-13.07 60.4-29.79 43.04-46.58-15.91-15.38-43.68 22.7-49.19 5.78-3.26-9.84-2.74-20.09-.61-26.1-2.09-7-18.21-18.74-34.16-10.66-9.86 42.14 13.53 90.63 40.92 77.56z" fill="#1c75bc"/><path d="m274.26 78.73c2.63 3.01 5.97 5.64 9.93 7.57 3.48 1.77 7.41 3.01 11.88 3.46 3.78.48 7.9.36 12.35-.37-1.06-3.6-5.86-8.47-12.44-11.24-3.11-1.34-6.66-2.16-10.36-2.17-3.64-.02-7.53.8-11.36 2.75z" fill="#2b2438"/><path d="m296.17 89.75c-1.83-4.83-1.9-9.7-.09-11.61.45-.48.98-.82 1.61-.89 4.98-.78 7.76-3.86 7.76-3.86l-.65-1.65s-11.38 3.44-10.5-3.22c1.03-7.73 9.75-3.24 9.75-3.24l.89-1.84c-11.97-6.6-18.46.37-18.97 6.63-.15 1.85-.18 3.83-.23 5.91-.15 3.43-.42 7.03-1.43 10.32 3.46 1.76 7.39 3 11.86 3.45z" fill="#231f20"/><path d="m296.07 89.75c-1.83-4.83-1.9-9.7-.09-11.61.45-.48.98-.82 1.61-.89 4.98-.78 7.76-3.86 7.76-3.86l-.65-1.65s-11.38 3.44-10.5-3.22c1.03-7.73 9.75-3.24 9.75-3.24l.89-1.84c-11.97-6.6-18.46.37-18.97 6.63-.15 1.85-.18 3.83-.23 5.91-.15 3.43-.42 7.03-1.43 10.32 3.47 1.76 7.39 3 11.86 3.45z" fill="#ffbe8f"/><path d="m318.17 81.83s.19 19.61 14.22 12.53l3.13 9.12 7.24 21.24 32.92-8.36s-18.14-13.78-28.99-37.97c10.18-6.25 8.14-20.59-3.67-22.34-4.06-8.71-25.25-10.51-27.95 7.47.97 9.01-.65 15.76-1.85 18.95z"/><path d="m318.27 81.79s.19 19.61 14.22 12.53l3.13 9.12 7.24 21.24 32.92-8.36s-18.14-13.78-28.99-37.97c10.18-6.25 8.14-20.59-3.67-22.34-4.06-8.71-25.25-10.51-27.95 7.47.97 9.01-.65 15.76-1.85 18.95z" fill="#ffbe8f"/><path d="m332.49 94.32 3.13 9.12c1.23-10.12 4.17-15.73 4.64-16.67-.59.76-3.19 4.03-7.77 7.55z" fill="#e6ab81"/><path d="m339.02 64.56c-.76.66-1.97.22-2.29-.74-2.78-8.51-3.99-9.33-9.94-4.64-6.58 5.18-17.96 7.58-20.31-2.4-2.34-9.99.96-17.9 14.19-15.98s24.82-16.31 35.34.23c5.43 8.54-.83 15.31-.83 15.31s12.46 6.81 6.63 18.79c-3.9 8.02-13.33 7.2-18.47 4.27-1.55-.89-1.4-3.14.24-3.86 3.16-1.38 7.05-4.23 4.11-9.34-2.57-4.5-6.59-3.43-8.67-1.64z" fill="#2b2438"/><path d="m342.02 72.96c.2-.03.39-.16.48-.36l2.38-5.57c.13-.31-.01-.66-.32-.8-.31-.12-.66.01-.8.32l-2.38 5.57c-.13.31.01.66.32.8.11.04.22.06.32.04z" fill="#e6ab81"/><path d="m345.62 71.39c.18-.02.36-.13.45-.31.16-.29.06-.66-.24-.82l-5.05-2.8c-.29-.16-.67-.05-.82.24-.16.29-.06.66.23.82l5.05 2.8c.13.06.26.09.38.07z" fill="#e6ab81"/><path d="m309.64 71.95c.42 3.28 1.86 6.47 3.79 6.22s2.51-3.7 2.09-6.98c-.01-.1-.04-.2-.05-.3.16-.27.54-.71 1.14-.79h.01c.83-.11 1.82.5 2.88 1.73.01.51.04 1.02.11 1.56.57 4.4 3.15 7.57 5.87 7.22s4.41-4.07 3.84-8.47-3.15-7.57-5.87-7.22c-2.03.26-3.47 2.39-3.85 5.27-1.07-.97-2.12-1.41-3.13-1.28-.01 0-.02 0-.02 0-.52.07-.92.29-1.26.55-.63-2.57-1.87-4.68-3.46-4.48-1.93.24-2.51 3.69-2.09 6.97zm11.16 1.27c-.47-3.6.81-6.86 2.8-7.12 1.98-.26 4.05 2.57 4.51 6.17s-.81 6.86-2.8 7.12c-1.98.26-4.04-2.56-4.51-6.17zm-9.96-1.42c-.43-3.3.33-5.53 1.04-5.63.71-.09 2.01 1.88 2.44 5.18s-.33 5.53-1.04 5.62c-.7.09-2.02-1.93-2.44-5.17z" fill="#2b2438"/><path d="m322.56 73.03c.29 2.28 1.11 4.05 1.83 3.96s1.06-2.02.77-4.3-1.11-4.05-1.83-3.96c-.72.1-1.07 2.02-.77 4.3z" fill="#2b2438"/><path d="m326.17 229.11c50.18 16.88 90.09 3.01 96.12-2.33-2.63-12.22-5.43-23.41-8.36-33.64-10.86-37.84-23.67-62.52-36.1-76.22-9.25-10.18-18.32-14.25-26.26-13.06-10.31 1.57-16.5 16.71-20.15 38.9-3.9 23.48-4.96 54.91-5.25 86.35z" fill="#27aae1"/><path d="m326.15 229.09c2.13.73 4.26 1.36 6.35 1.99 7.32 2.13 14.34 3.63 21.07 4.55 18.56 2.71 34.64 1.55 46.66-.87 3.68-.73 6.98-1.55 9.83-2.47 6.3-1.94 10.56-4.07 12.21-5.52-3.29-1.99-6.93-3.78-10.85-5.33-3.1-1.26-6.35-2.33-9.69-3.25-15.21-4.17-32.7-5.09-47.87-2.08-7.99 1.55-15.31 4.21-21.37 8.04-2.32 1.46-4.45 3.1-6.34 4.94z" fill="#2b2438"/><path d="m326.17 229.11c3.65-44.54 17.05-75.63 30.67-98.79-10.14 3.69-18.71 8.27-25.41 12.43-3.91 23.49-4.97 54.92-5.26 86.36z" fill="#2b2438"/><path d="m363.18 455.2h-48.98l.94-4.58s11.75-3.09 29.1-14.74c2.47-1.69 4.88-3.52 7.03-5.55-1.94-23.3-1.36-16.23-2.6-31.22 8.79-.93 16.92-.3 23.25 1.69-.6 6.61-1.33 17.79-1.62 28.26-.25 7.16-.3 14.02.02 18.85.21 3.69-3.32 7.29-7.14 7.29z" fill="#ffbe8f"/><path d="m363.18 455.2h-48.98l.94-4.58s11.75-3.09 29.1-14.74c9.78 1.27 19.81-2.2 26.06-6.82-.25 7.16-.3 14.02.02 18.85.21 3.69-3.32 7.29-7.14 7.29z" fill="#00a79d"/><path d="m358.56 292.27c5.38 34.49 26.65 77.76 42.73 105.23.29.39.48.78.73 1.16 2.18 3.68 4.26 7.07 6.15 10.08 13.66.19 37.31-13.23 38.71-31.59-2.08-3-4.02-6.01-5.86-9.01-.24-.39-.49-.78-.68-1.11-38.95-63.32-32.46-119.81-28.92-145.59-16.28-6.59-38.56-9.11-57.56-5.33-1.55 20.06 1.51 55.72 4.7 76.16z" fill="#33b5aa"/><path d="m415.47 377.75c.11 0 .22-.03.31-.09.29-.18.38-.55.2-.83-30.03-49.28-41.12-103.77-32.97-161.97.04-.33-.18-.64-.52-.69-.38-.04-.64.19-.69.52-8.19 58.49 2.96 113.25 33.14 162.77.13.19.33.29.53.29z" fill="#43d6c8"/><path d="m332.5 224.15v3.73c0 10.71.19 24.08.48 38.86.82 44.04 2.52 100.43 3.73 135.65 0 .44.05.87.05 1.31.1 3.54.24 6.83.34 9.83 0 0 24.42 11.14 46.7 0 .24-2.76.48-5.52.77-8.19 0-.44.05-.87.1-1.31 11.53-125.14 14.39-156.63 15.55-169.33.63-7.02.78-8.38 1.5-16.52-12.21-3.34-25.92-4.6-38.66-3.44-11.52 1.08-22.28 4.13-30.56 9.41z" fill="#43d6c8"/><path d="m332.5 224.15v3.73c19.28-3.54 47.24-4.02 67.73 6.83.63-7.02.78-8.38 1.5-16.52-23.21-6.34-51.74-5.18-69.23 5.96z" fill="#33b5aa"/><path d="m332.5 224.15v3.73c0 10.71.19 24.08.48 38.86 5.18-3.49 10.8-6.06 15.36-7.85 6.54-2.52 11.05-8.58 11.92-15.5.87-6.98 1.94-16.67 2.81-28.63-11.53 1.06-22.29 4.11-30.57 9.39z" fill="#33b5aa"/><path d="m336.71 402.39c0 .44.05.87.05 1.31 6.4 4.12 16.33 6.59 26.31 6.59 7.7 0 15.46-1.5 21.51-4.94 0-.44.05-.87.1-1.31-.15 0-.24.05-.34.1-13.66 7.95-36.19 5.67-47.29-1.65-.1-.1-.24-.1-.34-.1z" fill="#00dea6"/><path d="m408.17 408.74c3.97.05 8.77-1.07 13.61-3.1 1.16-.44 2.37-1.02 3.54-1.6 5.09-2.62 10.08-6.2 13.95-10.56.78-.77 1.45-1.6 2.08-2.47 3.05-4.12 5.14-8.82 5.52-13.86-3.83-.05-8.04 1.02-12.26 2.96-.15.1-.34.14-.48.24-5.77 2.66-11.43 6.93-16.08 11.97-.78.82-1.55 1.7-2.23 2.57-3.58 4.31-6.29 9.05-7.65 13.85z" fill="#2b2438"/><path d="m401.29 397.5c.29.39.48.78.73 1.16.14-.1.24-.19.29-.34 7.61-24.27 29.12-30.72 38.32-30.09h.05c.15 0 .24-.05.34-.1-.24-.39-.49-.78-.68-1.11-9.69-.48-31.15 6.26-39.05 30.48z" fill="#43d6c8"/><path d="m263.08 230.08c54.5-37.98 114.74-102.93 93.95-121.86-10.34-9.4-23.15 2.3-46.06 29.47s-44.9 42.69-73.03 52.13c-4.14 17.41 9.06 39.59 25.14 40.26z" fill="#1c75bc"/><path d="m237.85 203.25c.8 4.14 2.32 8.16 4.4 11.78 4.71 8.39 12.37 14.71 20.83 15.05.76-6.52-.03-13.51-2.48-19.87-1.76-4.57-4.35-8.85-7.83-12.28-3.84-3.82-8.8-6.72-14.84-8.1-1.04 4.29-.99 8.9-.08 13.42z" fill="#2b2438"/><path d="m207.71 224.58s7.17-4.95 15.11-7.08c-5.94 3.81-3.04 17.12 10.69 13.22l.34-3.2s-8.66-.94-4.37-6.68c5.03 2.73 8.53-1.59 12.98-5.74 4.38-4.03 9.48-7.94 18.11-4.83-1.76-4.57-4.33-8.91-7.82-12.35-5.11 1.46-9.94 3.35-14.7 5.39-18.08 7.54-32.43 17.39-32.43 17.39z" fill="#231f20"/><path d="m207.49 224.51s7.17-4.95 15.11-7.08c-5.94 3.81-3.04 17.12 10.69 13.22l.34-3.2s-8.66-.94-4.37-6.68c5.03 2.73 8.53-1.59 12.98-5.74 4.38-4.03 9.71-7.94 18.35-4.83-1.76-4.57-4.35-8.85-7.83-12.28-5.11 1.46-10.15 3.29-14.92 5.33-18.08 7.54-32.43 17.39-32.43 17.39z" fill="#ffbe8f"/><path d="m403.91 450.7 1.02 4.51 44.33-19.82c3.44-1.5 5.18-6.2 3.49-9.45-2.23-4.26-4.94-10.46-7.65-17.05-1.79-4.31-3.88-9.93-5.81-15.41-1.74-4.99-3.39-9.83-4.65-13.37-.15.1-.34.14-.48.24-5.77 2.66-11.43 6.93-16.08 11.97-.78.82-1.55 1.7-2.23 2.57 2.76 4.99 3.15 5.67 5.96 10.76 1.41 2.52 3.44 6.2 6.64 12.06-1.16 2.71-2.57 5.33-4.12 7.9-11.02 17.53-20.42 25.09-20.42 25.09z" fill="#ffbe8f"/><path d="m449.23 435.4-44.32 19.8-1-4.52s9.38-7.55 20.37-25.1c9.36-2.8 17.03-10 20.82-16.7 2.67 6.58 5.39 12.81 7.63 17.05 1.7 3.24-.05 7.93-3.5 9.47z" fill="#00a79d"/><path d="m377.83 116.91c1.57 22.95 11.33 56.29 36.1 76.22-10.86-37.83-23.67-62.52-36.1-76.22z" fill="#1c75bc"/><path d="m231.47 332.29-7.54 7.64c-3.46 3.51-7.38 6.53-11.64 8.99l-9.76 5.63c-2.94 1.7-6.68.96-8.76-1.72l-3.28-4.22c-2.51-3.24-1.61-7.94 1.92-10.02l2.96-1.17c9.32-3.7 17.31-10.13 22.93-18.44 3.48-3.6 9.34-3.27 12.4.68l1.41 1.82c2.53 3.26 2.25 7.88-.64 10.81z" fill="#f7941d"/><path d="m211.82 342.95c.58.64.96 1.12 1.13 1.45.08.16.04.29-.12.4-.43.28-1.08.68-1.99 1.19-.9.51-1.58.89-2.02 1.16-.42.25-1.04.64-1.87 1.14-.83.51-1.47.88-1.9 1.12-.15.09-.28.07-.39-.05-.45-.52-1.11-1.33-1.95-2.43-.83-1.1-1.45-1.92-1.88-2.46-.45-.57-1.14-1.41-2.06-2.53s-1.57-1.98-1.97-2.56c-.08-.11-.04-.2.11-.28.11-.05.28-.13.51-.23s.4-.18.52-.24c.11-.06.27-.15.48-.29.21-.13.38-.23.48-.29.14-.08.25-.07.31.03.38.53.92 1.33 1.67 2.41.74 1.07 1.33 1.87 1.74 2.39.2.25.51.64.92 1.15s.72.9.93 1.15c.89 1.07 1.4 1.57 1.51 1.5 2.23-1.29 3.81-2.36 4.82-3.14.05-.04.17-.14.35-.3.15-.14.27-.24.36-.3.13-.08.23-.07.31.01z" fill="#fff"/><path d="m212.83 330.32c.02.23.04.6.14 1 .04.17.13.46.2.82 0 .06-.02.12-.07.15.01 0-.31.1-.96.31s-1.14.42-1.48.66c-.98.68-1.18 1.39-.56 2.14.35.42 1 .54 1.96.37 1.61-.3 2.51-.49 2.69-.5 1.08-.05 1.99.32 2.72 1.09.93.98 1.22 2.11.82 3.39-.36 1.15-1.17 2.19-2.46 3.11-.6.42-.98.6-1.13.52-.19-.16-.47-.37-.86-.64-.17-.11-.43-.26-.78-.47-.05-.03-.1-.06-.13-.1-.06-.06-.05-.12.04-.18.13-.09.35-.22.65-.39s.52-.3.65-.4c1.72-1.2 2.12-2.26 1.29-3.15-.4-.44-1.09-.57-2.05-.42-1.76.28-2.68.4-2.73.39-1.1 0-1.99-.42-2.65-1.22-.71-.87-.92-1.8-.67-2.76.25-.93.89-1.73 1.9-2.42.43-.29.96-.57 1.6-.84.69-.29 1.27-.45 1.71-.48.05-.01.1 0 .16.02z" fill="#fff"/><path d="m230.85 329.77c.05.05.03.13-.08.24-.09.09-.22.21-.4.36s-.31.27-.4.36-.21.22-.37.4-.29.32-.38.4c-.13.13-.63-.01-1.5-.43-.86-.42-1.4-.54-1.62-.35-.18.15-.64.57-1.39 1.24-.46.41-.69.61-1.15 1.02-.81.7-1.27 1.1-1.38 1.21-.17.16-.03.65.41 1.46s.62 1.26.51 1.35c-.69.57-1.03.86-1.74 1.42-.11.08-.19.09-.25.04-.04-.04-.1-.17-.18-.37-.97-2.33-1.44-3.5-2.32-5.85-.17-.48-.65-1.88-1.37-4.2-.11-.39-.3-.97-.55-1.73-.09-.21-.09-.35-.03-.41.09-.08.24-.18.43-.3.2-.12.34-.23.43-.3s.21-.19.36-.36.27-.29.35-.36c.04-.04.17-.01.39.09.33.15 2 1.01 5.21 2.38 4.52 1.91 6.99 2.67 7.02 2.69zm-6.78-.24c-.12-.12-.88-.46-2.24-1.07-1.32-.58-2.19-.97-2.63-1.13 1.07 3.13 1.72 4.74 1.82 4.85.14.15.41.07.81-.22.02-.01.27-.22.72-.61.3-.26.45-.39.75-.65.68-.62.93-1.01.77-1.17z" fill="#fff"/><path d="m124.31 407.43-7.48 7.72c-3.43 3.54-7.35 6.57-11.65 8.99l-9.83 5.54c-2.96 1.67-6.83.77-9.06-2.11l-3.52-4.54c-2.69-3.47-1.93-8.36 1.62-10.41l3-1.12c9.45-3.54 17.43-9.98 22.91-18.47 3.45-3.64 9.48-3.09 12.77 1.15l1.52 1.96c2.71 3.5 2.59 8.32-.28 11.29z" fill="#f15a29"/><path d="m109.74 417.28c.07.05.02.13-.13.23-.12.08-.31.19-.56.33s-.44.25-.56.33-.3.2-.53.37-.41.29-.53.37c-.18.12-.84-.07-1.95-.57s-1.81-.68-2.12-.51c-.26.14-.9.51-1.95 1.1-.64.36-.96.54-1.61.89-1.13.61-1.78.95-1.93 1.05-.23.14-.09.65.44 1.51s.73 1.33.57 1.41c-.95.49-1.43.74-2.4 1.21-.14.07-.25.07-.33.01-.05-.05-.13-.18-.22-.4-1.13-2.46-1.66-3.7-2.66-6.18-.19-.51-.72-1.98-1.5-4.42-.12-.41-.32-1.02-.59-1.82-.1-.23-.1-.37 0-.41.13-.06.33-.14.6-.23.27-.1.47-.18.6-.24.12-.06.29-.16.51-.31s.38-.25.5-.31c.06-.03.23.02.51.15.42.19 2.6 1.32 6.76 3.06 5.86 2.44 9.05 3.35 9.08 3.38zm-8.98-.9c-.15-.13-1.13-.56-2.89-1.34-1.71-.75-2.83-1.26-3.42-1.48 1.17 3.29 1.91 4.99 2.04 5.11.18.16.54.13 1.09-.12.03-.01.37-.18 1.01-.52.42-.23.63-.34 1.04-.57.97-.53 1.34-.89 1.13-1.08z" fill="#fff"/><path d="m112.21 413.98c.36.27.54.61.54 1.01s-.2.74-.6 1.02-.89.41-1.45.38c-.53-.02-.98-.18-1.34-.46-.36-.29-.54-.62-.52-1.01.01-.38.22-.71.63-.98.41-.28.88-.41 1.41-.39.52.01.97.15 1.33.43z" fill="#fff"/><path d="m111.7 400.45c.05.22.15.55.28.98.09.18.2.45.33.8.01.06-.01.12-.06.16.01 0-.35.13-1.07.4s-1.26.53-1.62.8c-1.05.77-1.19 1.51-.38 2.2.45.39 1.23.45 2.31.18 1.82-.46 2.82-.74 3.04-.78 1.25-.16 2.33.1 3.26.78 1.19.87 1.68 1.96 1.39 3.28-.26 1.19-1.05 2.33-2.42 3.39-.64.49-1.05.71-1.23.65-.24-.13-.6-.32-1.08-.55-.21-.09-.54-.21-.96-.38-.07-.02-.12-.05-.17-.09-.08-.06-.07-.12.02-.19.14-.11.38-.26.7-.46s.55-.36.7-.47c1.83-1.39 2.14-2.5 1.07-3.29-.52-.39-1.33-.45-2.42-.19-1.99.47-3.03.67-3.09.67-1.27.1-2.35-.23-3.21-.98-.93-.81-1.29-1.73-1.11-2.71.17-.95.82-1.81 1.89-2.59.45-.33 1.04-.66 1.74-.98.76-.35 1.4-.57 1.91-.64.05-.01.11-.01.18.01z" fill="#fff"/><path d="m124.06 404.26c.36.24.57.55.61.95s-.11.76-.45 1.08-.78.49-1.3.52c-.49.03-.92-.08-1.29-.33s-.56-.57-.59-.95.13-.73.48-1.04c.35-.32.77-.49 1.26-.53.5-.04.92.06 1.28.3z" fill="#fff"/><path d="m174.23 329.14-2.27 2.34c-1.04 1.08-2.23 1.99-3.53 2.73l-2.98 1.68c-.9.51-2.07.23-2.75-.64l-1.07-1.38c-.82-1.05-.59-2.54.49-3.16l.91-.34c2.87-1.07 5.29-3.03 6.95-5.61 1.05-1.1 2.88-.94 3.88.35l.46.59c.82 1.08.78 2.54-.09 3.44z" fill="#f15a29"/><path d="m165.86 331.79c.2.2.3.41.28.62s-.17.4-.44.56c-.07.04-.17.1-.31.17s-.25.13-.32.17c-.04.02-.04.05 0 .09.05.05.12.12.23.2.1.09.18.16.23.2.02.02.01.03-.01.04-.03.01-.07.03-.12.06-.06.02-.1.04-.12.06-.02.01-.05.03-.09.06s-.07.04-.09.06c-.03.02-.06.01-.09-.02-.1-.1-.24-.25-.43-.45-.18-.2-.32-.35-.42-.45-.27-.28-.57-.58-.89-.9-.01-.01-.01-.01-.02-.02-.02-.02-.01-.04.02-.05.07-.03.16-.08.29-.15s.23-.12.29-.15.14-.08.25-.14.19-.11.24-.14c.26-.14.53-.19.82-.15.28.02.51.14.7.33zm-.41.28c-.13-.13-.28-.21-.45-.24-.18-.03-.35 0-.53.1-.05.03-.15.09-.28.17-.15.09-.23.14-.23.15s.14.17.43.47c.04.04.09.09.17.17.08.07.13.13.17.17.01.01.03.01.06 0 .08-.03.26-.12.56-.29.17-.09.26-.21.27-.33.01-.13-.05-.25-.17-.37z" fill="#fff"/><path d="m167.69 330.58s.01.01.02.02c.16.22.31.39.46.53.01.01.22.18.65.51.01.01.01.01.02.02.03.02.03.04 0 .07-.03.02-.07.05-.13.1-.05.05-.1.08-.13.1-.02.01-.07 0-.14-.05-.08-.05-.12-.07-.13-.06-.01 0-.02.04-.04.11-.02.08-.05.16-.08.21-.05.09-.12.17-.21.23-.22.14-.47.2-.76.17-.28-.03-.51-.13-.68-.3-.2-.19-.29-.39-.27-.6.02-.22.15-.41.39-.56.17-.11.37-.17.58-.15.04 0 .09.01.16.01h.01c.01 0-.01-.04-.05-.1s-.06-.1-.04-.11c.03-.02.09-.05.18-.09.12-.06.18-.08.19-.06zm.14.79c-.11-.1-.24-.16-.4-.18-.17-.02-.32.01-.45.09-.13.09-.2.2-.21.33s.04.25.15.35.25.16.41.18c.17.02.33-.02.46-.11s.19-.2.2-.33c0-.12-.05-.23-.16-.33z" fill="#fff"/><path d="m170.07 329.73c.18.15.28.34.29.56.01.23-.09.42-.29.58-.13.1-.28.16-.45.17-.08 0-.16.01-.24.01 0 .01 0 .02.01.03 0 .01.06.05.15.13.16.13.23.2.39.33.03.02.03.05.01.06-.16.12-.26.19-.3.21-.03.02-.05.01-.07 0-.12-.1-.3-.25-.53-.45s-.41-.36-.52-.46c-.21-.19-.42-.36-.63-.5-.01-.01-.02-.01-.02-.02-.01-.01-.01-.02 0-.03.04-.03.1-.08.16-.14.09-.08.14-.14.15-.15.02-.01.05 0 .11.05.04.03.07.06.11.09.01.01.02.01.03.01 0-.01.01-.02.01-.04.02-.22.11-.39.25-.5.2-.15.44-.22.71-.2.26.03.48.11.67.26zm-.36.28c-.11-.09-.24-.15-.4-.16-.17-.01-.31.02-.43.12-.12.09-.17.2-.16.34.01.12.07.23.17.33.11.1.24.15.4.17.17.02.32-.02.44-.12.12-.09.17-.21.16-.35-.02-.13-.08-.24-.18-.33z" fill="#fff"/><path d="m171.44 328.43c.07.05.08.12.04.19-.03.05-.28.33-.81.84.09.06.21.07.35.05.13-.02.24-.07.33-.15.15-.13.24-.29.27-.48 0-.02 0-.06.01-.07 0-.01.01-.01.02-.01 0 0 .05.01.15.03.09.02.14.03.15.03s.01.02.01.04c.01.24-.1.46-.32.65-.22.2-.47.3-.73.31s-.5-.07-.71-.25c-.19-.16-.28-.35-.28-.57 0-.23.09-.43.29-.59.18-.15.39-.23.63-.23.23.01.43.07.6.21zm-.42.24c-.07-.06-.17-.09-.29-.08s-.22.04-.3.11c-.09.08-.14.17-.14.28s.03.21.12.28c.02.02.05.01.08-.02.14-.12.3-.28.47-.47.06-.06.07-.1.06-.1z" fill="#fff"/><path d="m171.88 327.09c.1.08.18.16.25.23.02.02.02.04 0 .05-.02.02-.05.04-.09.08-.04.03-.07.06-.09.08-.11.11-.15.2-.12.28.02.05.09.12.21.22.06.05.09.07.15.12.05.04.13.1.24.17.11.08.19.13.24.17.02.02.03.04.01.06-.03.03-.07.07-.13.12s-.1.09-.13.12c-.02.02-.04.02-.07 0-.08-.06-.19-.14-.33-.26s-.26-.21-.33-.27c-.22-.18-.42-.31-.59-.38-.01 0-.01-.01-.02-.01-.01-.01-.01-.02 0-.03.03-.03.07-.08.13-.14.08-.1.12-.15.11-.15.01-.01.05 0 .11.04s.09.05.1.04c0 0 0 0 0-.01.01-.05.03-.11.04-.16.02-.06.04-.11.07-.16.02-.04.06-.09.12-.14.05-.06.1-.08.12-.07z" fill="#fff"/><path d="m173.47 327c.14.1.2.23.18.4-.02.15-.09.3-.23.44-.05.05-.08.08-.09.09-.02.01-.05 0-.09-.03-.02-.02-.05-.04-.1-.06-.05-.03-.08-.05-.1-.06-.01-.01-.01-.02 0-.04.01-.01.02-.03.05-.05.03-.03.04-.04.04-.04.16-.17.19-.29.09-.37-.05-.04-.13-.04-.25.01-.18.07-.29.1-.33.11-.14.02-.26-.01-.36-.09-.13-.11-.19-.24-.16-.4.02-.14.1-.28.24-.41.01-.01.03-.02.04-.01.02 0 .06.02.14.05s.12.05.13.06.01.02-.01.04c-.05.06-.1.13-.14.19-.05.07-.04.15.01.19.04.03.12.03.23-.01.16-.06.27-.09.33-.1.15-.03.27 0 .38.09z" fill="#fff"/><path d="m121.68 282.29-4.72 4.87c-2.16 2.24-4.64 4.14-7.35 5.67l-6.21 3.5c-1.87 1.05-4.31.48-5.72-1.33l-2.22-2.86c-1.7-2.19-1.22-5.28 1.02-6.57l1.89-.71c5.96-2.23 11-6.3 14.46-11.66 2.18-2.29 5.98-1.95 8.06.73l.96 1.24c1.71 2.2 1.64 5.25-.17 7.12z" fill="#ed1c24"/><path d="m106.99 290.25c.37.31.61.54.72.7.06.08.04.14-.05.2-.24.15-.61.36-1.11.63-.51.27-.88.47-1.13.61-.23.13-.58.33-1.03.6-.46.26-.81.46-1.05.59-.09.05-.16.04-.23-.02-.29-.25-.71-.65-1.24-1.18-.54-.54-.94-.94-1.21-1.21-.29-.28-.74-.69-1.33-1.24s-1.02-.98-1.29-1.27c-.05-.05-.03-.1.05-.14.06-.03.16-.07.29-.12s.23-.09.29-.12.15-.08.27-.15.21-.12.27-.15c.08-.04.14-.04.19.01.25.26.61.66 1.1 1.19s.87.92 1.14 1.18c.13.12.33.31.59.56s.46.44.6.56c.57.52.89.76.95.73 1.24-.68 2.12-1.23 2.68-1.64.03-.02.1-.07.19-.16.08-.07.15-.12.2-.16.03-.04.09-.04.14 0z" fill="#fff"/><path d="m109.61 289.71c.06.04.04.1-.05.16-.06.04-.15.09-.27.16s-.21.12-.27.16-.14.1-.25.18-.19.14-.25.18c-.08.05-.15.05-.21 0-.3-.25-.74-.63-1.3-1.16s-.98-.93-1.27-1.19c-.28-.25-.71-.62-1.29-1.11s-.99-.87-1.25-1.13c-.06-.06-.05-.11.02-.15.06-.03.15-.08.28-.15.13-.06.22-.11.29-.15.06-.03.14-.09.24-.16s.18-.13.24-.16c.08-.05.14-.05.19 0 .27.26.65.65 1.18 1.17.52.52.93.9 1.21 1.15.29.26.74.63 1.36 1.11.63.48 1.1.84 1.4 1.09z" fill="#fff"/><path d="m111.99 282.78c.11.09.35.72.74 1.9.25.74.5 1.48.76 2.21.03.09.03.16-.03.2-.35.27-.53.4-.88.66-.04.03-.12.03-.24 0-.02-.01-.99-.19-2.83-.65-1.58-.39-2.4-.67-2.48-.75-.2-.17-.48-.44-.85-.81s-.64-.64-.83-.82c-.09-.08-.1-.15-.02-.19.06-.04.15-.09.26-.15.12-.06.2-.11.26-.15.05-.03.13-.09.24-.17.1-.08.18-.13.24-.17.07-.04.13-.05.17 0 .19.18.47.46.83.84.37.38.65.66.86.84.17.15 1.38.52 3.7.96-.13-.46-.28-.99-.47-1.57-.27-.84-.45-1.31-.57-1.4-.19-.16-.49-.4-.88-.72s-.68-.56-.86-.73c-.05-.04-.04-.09.02-.13.05-.04.14-.09.25-.16s.19-.12.24-.16.12-.1.22-.18.17-.14.22-.18c.06-.05.12-.05.17-.02-.02-.01.02.03.13.12.18.16.45.39.81.69.36.31.64.54.82.69z" fill="#fff"/><path d="m119.12 280.99c.04.03.09.08.15.15.07.09.13.14.14.16.09.07.21.18.37.33.04.04.03.09-.03.14-.03.02-.08.07-.16.13-.36.27-.87.71-1.55 1.33-.19.17-.48.44-.86.79s-.68.61-.88.78c-.09.08-.17.09-.25.03-.3-.21-.73-.55-1.28-1.02s-.96-.82-1.25-1.04c-.29-.23-.85-.64-1.64-1.25-.2-.16-.51-.39-.92-.71-.02-.02-.03-.02-.05-.04-.06-.05-.05-.1.02-.15.19-.15.48-.37.87-.66.38-.29.67-.52.85-.67s.43-.37.77-.67c.33-.3.58-.53.75-.68.12-.11.22-.13.3-.09.37.21.6.35.68.41.06.04.06.09 0 .14-.21.19-.55.48-1.02.84-.47.37-.82.64-1.05.83-.22.18-.33.32-.33.41s.1.23.32.4c.22.18.33.27.55.45.15.12.25.19.28.2.1.04.21.01.33-.08.03-.03.08-.07.13-.12.06-.05.11-.09.14-.11.52-.44.97-.85 1.35-1.22.15-.14.32-.32.51-.53.05-.05.1-.06.15-.02.08.06.19.16.34.3s.27.24.35.3c.05.03.03.09-.04.16-.03.03-.15.13-.37.29-.16.12-.49.41-1 .86-.43.38-.71.62-.81.73-.1.1-.11.19-.02.28-.02-.02.08.06.3.22.23.17.35.26.58.43.27.2.49.29.64.26.12-.02.32-.14.58-.38.17-.16.26-.23.43-.39.18-.17.67-.65 1.42-1.47.02-.02.03-.03.05-.06.03-.04.09-.04.16.01z" fill="#fff"/><ellipse cx="291.4" cy="469.43" fill="#d3cfda" opacity=".75" rx="210.67" ry="22.97"/></svg>