<svg enable-background="new 0 0 512 512" viewBox="0 0 512 512" xmlns="http://www.w3.org/2000/svg" xmlns:xlink="http://www.w3.org/1999/xlink"><clipPath id="a"><path d="m289.37 216.89h5.97v1.27h-5.97z" transform="matrix(.9164 -.4004 .4004 .9164 -62.6345 135.2462)"/></clipPath><clipPath id="b"><path d="m293.62 218.63h1.02v2.19h-1.02z" transform="matrix(.9164 -.4004 .4004 .9164 -63.368 136.1402)"/></clipPath><clipPath id="c"><path d="m293.89 228.49.57 1.29 2.5.67.84.17-2.5 1.09.51 1.16 5.47-2.39-.51-1.15-1.95.85-.57-.34 1.68-2.44-.58-1.31-2.2 3.25z"/></clipPath><clipPath id="d"><path d="m293.08 225.38h5.97v1.27h-5.97z" transform="matrix(.9164 -.4004 .4004 .9164 -65.7242 137.442)"/></clipPath><clipPath id="e"><path d="m290.91 221.66 1.8 4.13.97-.43-.65-1.48 4.5-1.97-.51-1.16-4.5 1.97-.65-1.48z"/></clipPath><clipPath id="f"><path d="m287.31 213.54 2.9-1.27c.09-.04.18-.08.28-.13s.2-.1.3-.16l-2.17 4.02c-.03.05-.05.1-.06.14s-.02.08-.02.11c0 .04 0 .07.02.11.01.04.03.09.05.14l.29.66 5.49-2.4-.48-1.11-2.94 1.28c-.08.04-.17.07-.26.12-.09.04-.18.09-.28.14l2.16-3.98c.05-.1.08-.19.08-.27s-.02-.17-.06-.26l-.29-.65-5.49 2.4z"/></clipPath><path d="m457.95 469.67c9.75 4.51-76.34 14.89-206.17 14.89s-235.08-8.71-235.08-19.45 105.25-19.45 235.08-19.45c129.83-.01 189.22 16.17 206.17 24.01z" fill="#d3cfda" opacity=".75"/><g fill="#f1f2f2"><path d="m205.27 307.74h-117.97c-7.2 0-13.06-5.86-13.06-13.06s5.86-13.06 13.06-13.06h117.98c7.2 0 13.06 5.86 13.06 13.06-.01 7.2-5.86 13.06-13.07 13.06zm-117.97-24.08c-6.07 0-11.01 4.94-11.01 11.01s4.94 11.01 11.01 11.01h117.98c6.07 0 11.01-4.94 11.01-11.01s-4.94-11.01-11.01-11.01z"/><path d="m87.31 299.05c-1.25 0-2.49-.53-3.35-1.56-.76-.9-1.12-2.03-1.02-3.2s.65-2.23 1.54-2.98c.89-.76 2.03-1.12 3.2-1.02s2.23.65 2.98 1.54c1.56 1.85 1.33 4.62-.52 6.18-.83.7-1.83 1.04-2.83 1.04zm-.01-6.72c-.55 0-1.08.19-1.5.55-.48.4-.77.97-.82 1.59s.14 1.23.54 1.7c.4.48.97.77 1.59.82.63.05 1.23-.14 1.71-.54.98-.83 1.11-2.31.28-3.29-.4-.48-.97-.77-1.59-.82-.07-.01-.14-.01-.21-.01z"/><path d="m204.48 299.05h-100.66c-2.42 0-4.39-1.97-4.39-4.39s1.97-4.38 4.39-4.38h100.66c2.42 0 4.38 1.97 4.38 4.38 0 2.42-1.96 4.39-4.38 4.39zm-100.66-6.72c-1.29 0-2.34 1.05-2.34 2.34s1.05 2.34 2.34 2.34h100.66c1.29 0 2.34-1.05 2.34-2.34s-1.05-2.34-2.34-2.34z"/><path d="m173.88 272.15h-117.98c-7.2 0-13.06-5.86-13.06-13.06s5.86-13.06 13.06-13.06h117.98c7.2 0 13.06 5.86 13.06 13.06s-5.86 13.06-13.06 13.06zm-117.98-24.07c-6.07 0-11.01 4.94-11.01 11.01s4.94 11.02 11.01 11.02h117.98c6.07 0 11.01-4.94 11.01-11.02 0-6.07-4.94-11.01-11.01-11.01z"/><path d="m55.92 263.47c-.13 0-.25-.01-.38-.02-1.17-.1-2.23-.65-2.98-1.54-.76-.89-1.12-2.03-1.02-3.2s.65-2.23 1.54-2.98c.89-.76 2.03-1.12 3.2-1.02s2.23.65 2.98 1.54c.76.9 1.12 2.03 1.02 3.2s-.65 2.23-1.54 2.98c-.8.67-1.79 1.04-2.82 1.04zm-.01-6.73c-.55 0-1.08.19-1.5.55-.48.4-.77.97-.82 1.59s.14 1.23.54 1.7c.4.48.97.77 1.59.82.61.05 1.23-.14 1.7-.54.48-.4.77-.97.82-1.59s-.14-1.23-.54-1.7c-.4-.48-.97-.77-1.59-.82-.07 0-.14-.01-.2-.01z"/><path d="m173.08 263.47h-100.66c-2.42 0-4.39-1.97-4.39-4.38 0-2.42 1.97-4.38 4.39-4.38h100.66c2.42 0 4.38 1.97 4.38 4.38.01 2.41-1.96 4.38-4.38 4.38zm-100.66-6.72c-1.29 0-2.34 1.05-2.34 2.33 0 1.29 1.05 2.34 2.34 2.34h100.66c1.29 0 2.34-1.05 2.34-2.34s-1.05-2.33-2.34-2.33z"/><path d="m91.13 379.55-6.56-2.25.87-5.75-4.56-4.03-5.6 1.58-3.05-6.22 4.68-3.45-.38-6.07-5.08-2.84 2.25-6.55 5.75.86 4.02-4.56-1.58-5.6 6.22-3.05 3.45 4.68 6.07-.38 2.84-5.08 6.56 2.25-.87 5.75 4.56 4.03 5.6-1.58 3.05 6.22-4.68 3.45.38 6.07 5.08 2.84-2.25 6.55-5.75-.86-4.02 4.56 1.58 5.6-6.22 3.05-3.45-4.68-6.07.38zm-4.27-3.62 3.32 1.14 2.55-4.56 8.3-.52 3.1 4.2 3.15-1.54-1.42-5.03 5.5-6.24 5.17.78 1.14-3.32-4.56-2.55-.52-8.3 4.2-3.1-1.54-3.15-5.03 1.42-6.24-5.5.78-5.17-3.32-1.14-2.55 4.56-8.3.52-3.1-4.2-3.15 1.54 1.42 5.03-5.5 6.24-5.17-.78-1.14 3.32 4.56 2.55.52 8.3-4.2 3.1 1.54 3.15 5.03-1.42 6.24 5.5zm8.95-10.66c-1.08 0-2.18-.17-3.26-.54-2.55-.87-4.6-2.68-5.78-5.1s-1.36-5.15-.48-7.7c1.8-5.26 7.55-8.08 12.8-6.27 2.55.87 4.6 2.68 5.78 5.1s1.36 5.15.48 7.7c-1.43 4.18-5.36 6.81-9.54 6.81zm.01-18.1c-3.34 0-6.46 2.1-7.6 5.43-.7 2.03-.56 4.21.38 6.13.94 1.93 2.58 3.37 4.61 4.06 4.19 1.44 8.76-.81 10.2-4.99.7-2.03.56-4.21-.38-6.13-.94-1.93-2.58-3.37-4.61-4.06-.86-.3-1.74-.44-2.6-.44z"/><path d="m51.87 393.2-5-.61-.23-3.81-3.02-1.71-3.37 1.78-3.11-3.96 2.53-2.85-.93-3.34-3.64-1.13.6-5 3.81-.23 1.7-3.02-1.78-3.37 3.96-3.11 2.85 2.53 3.34-.93 1.13-3.64 5 .61.23 3.81 3.02 1.71 3.37-1.78 3.11 3.96-2.53 2.85.93 3.34 3.64 1.13-.6 5-3.81.23-1.7 3.02 1.77 3.37-3.96 3.11-2.85-2.53-3.33.92zm-3.05-2.44 1.6.19.96-3.08 5.49-1.53 2.41 2.13 1.27-1-1.5-2.85 2.8-4.97 3.21-.19.19-1.6-3.08-.96-1.53-5.49 2.14-2.41-1-1.27-2.85 1.5-4.97-2.8-.19-3.21-1.6-.19-.95 3.08-5.49 1.53-2.41-2.14-1.27 1 1.5 2.85-2.8 4.97-3.21.19-.19 1.6 3.08.96 1.53 5.49-2.14 2.41 1 1.27 2.85-1.5 4.97 2.8zm2.49-6.97c-.28 0-.55-.02-.83-.05-3.71-.45-6.37-3.84-5.92-7.55.22-1.8 1.12-3.41 2.55-4.53s3.2-1.62 5.01-1.4c1.8.22 3.41 1.12 4.53 2.55s1.62 3.21 1.4 5c-.22 1.8-1.12 3.41-2.55 4.53-1.22.95-2.67 1.45-4.19 1.45zm-.02-11.54c-1.05 0-2.07.35-2.91 1.01-1 .78-1.63 1.9-1.78 3.16-.31 2.6 1.54 4.96 4.14 5.28 1.26.15 2.5-.2 3.49-.97 1-.78 1.63-1.91 1.78-3.16.15-1.26-.2-2.5-.98-3.49-.78-1-1.9-1.63-3.16-1.78-.2-.04-.39-.05-.58-.05z"/><path d="m57.83 348.21-4.25-.41-.25-3-2.14-1.14-2.63 1.47-2.71-3.3 1.94-2.3-.71-2.32-2.89-.82.41-4.25 3-.25 1.14-2.14-1.46-2.63 3.3-2.71 2.3 1.94 2.31-.7.82-2.9 4.25.41.25 3 2.14 1.14 2.63-1.46 2.71 3.3-1.94 2.3.7 2.31 2.89.83-.41 4.25-3 .25-1.14 2.13 1.46 2.63-3.3 2.71-2.3-1.94-2.31.7zm-2.35-2.29.85.08.66-2.32 4.45-1.36 1.84 1.56.66-.54-1.18-2.11 2.19-4.1 2.41-.2.08-.85-2.32-.66-1.36-4.45 1.56-1.84-.54-.66-2.11 1.17-4.11-2.19-.2-2.41-.85-.08-.66 2.32-4.45 1.36-1.85-1.56-.66.54 1.18 2.11-2.19 4.11-2.41.2-.08.85 2.32.66 1.35 4.45-1.56 1.84.54.66 2.11-1.18 4.11 2.19z"/></g><path d="m408.93 267.68c-1.62-3.01-4-4.75-7.01-5.11-.44-.04-.83-.04-1.27-.04-10.7 0-26.78 15.21-38.59 28.29-2.58 2.85-6.38 4.16-10.22 3.49s-6.97-3.21-8.4-6.81c-3.8-9.35-9.15-23.57-13.07-38.75-.12-.36-.2-.71-.28-1.07-6.06-.36-12.08.63-17.75 2.69-5.11 1.74-9.9 4.36-14.22 7.49-6.46 4.63-11.89 10.38-15.61 16.48.24.28.44.55.67.83 6.62 7.88 17.35 22.15 28.96 38.51 9.23 13.07 23.65 21 39.62 21.79.87.04 1.78.08 2.65.08 7.45 0 14.7-1.58 21.27-4.59 6.62-3.01 12.6-7.45 17.51-13.11 12.1-13.88 24.62-33.84 15.74-50.17z" fill="#1c75bc"/><path d="m277.11 389.07c-1.98 5.3-3.72 10.21-5.2 15.21-1.49 4.86-2.78 9.86-3.77 15.36-.99 5.6-1.73 11.79-2.18 19.02-.25 3.32-2.97 5.9-6.29 5.9h-67.38v-4.95c1.98-.3 28.19-3.86 44.04-16.6 1.98-1.59 3.76-3.27 5.35-5.1 1.98-3.77 4.31-8.42 6.29-13.62 1.93-5.1 3.57-10.75 4.41-16.65 8.58-1.74 17.35-1.15 24.73 1.43z" fill="#e6ab81"/><path d="m268.14 419.63c-.99 5.6-1.73 11.79-2.18 19.02-.25 3.32-2.97 5.9-6.29 5.9h-67.38v-4.95c1.98-.3 28.19-3.86 44.04-16.6 12.29 1.94 23.34.5 31.81-3.37z" fill="#2b2438"/><path d="m237.37 400.89c-1.98 5.3-3.72 10.21-5.2 15.21-1.49 4.86-2.77 9.86-3.77 15.36-.99 5.6-1.73 11.79-2.18 19.02-.25 3.32-2.97 5.9-6.29 5.9h-67.38v-4.96c1.98-.3 28.19-3.86 44.04-16.6 1.98-1.59 3.76-3.27 5.35-5.1 1.98-3.77 4.31-8.42 6.29-13.62 1.93-5.1 3.57-10.75 4.41-16.65 8.58-1.73 17.35-1.14 24.73 1.44z" fill="#ffbe8f"/><path d="m228.4 431.45c-.99 5.6-1.73 11.79-2.18 19.02-.25 3.32-2.97 5.9-6.29 5.9h-67.38v-4.96c1.98-.3 28.19-3.86 44.04-16.6 12.29 1.95 23.34.51 31.81-3.36z" fill="#493d60"/><path d="m393.71 381.69c4.44-15.94-25.43-72.34-75.9-89.46-8.41-2.85-17.77-2.12-25.46 2.32-33.74 19.47-61.52 70.78-61.52 70.78s15.34 30.74 55.99 35.63c17.91-23.58 27.96-57.28 27.96-57.28s18.35 41.68 33.52 48.87c15.47 7.31 39.22 11.37 45.41-10.86z" fill="#33b5aa"/><path d="m15.07 204.43c0 11.65 9.44 21.09 21.09 21.09h311.7c4.24 0 8.09-1.73 10.87-4.5 2.77-2.77 4.5-6.62 4.5-10.87v-150.48-16.86c0-4.24-1.73-8.09-4.5-10.87-2.77-2.77-6.62-4.5-10.87-4.5h-317.43c-4.24 0-8.09 1.73-10.87 4.5-2.77 2.77-4.5 6.63-4.5 10.87v16.86 144.76z" fill="#2b2438"/><path d="m22.99 202.23c0 4.24 1.73 8.09 4.5 10.87 2.77 2.77 6.62 4.5 10.87 4.5h309.51c4.24 0 8.09-1.73 10.87-4.5 2.77-2.77 4.5-6.63 4.5-10.87v-142.56-16.86c0-4.24-1.73-8.09-4.5-10.87-2.77-2.77-6.62-4.5-10.87-4.5h-309.51c-4.24 0-8.09 1.73-10.87 4.5-2.77 2.77-4.5 6.63-4.5 10.87v16.86z" fill="#493d60"/><path d="m354.13 42.81c0-3.46-2.8-6.26-6.26-6.26h-309.51c-3.46 0-6.26 2.8-6.26 6.26v16.86h322.03z" fill="#bcb5c9"/><path d="m46.2 48.11c0 1.84-1.49 3.34-3.34 3.34-1.84 0-3.34-1.49-3.34-3.34 0-1.84 1.49-3.34 3.34-3.34s3.34 1.5 3.34 3.34z" fill="#d3cfda"/><path d="m56.68 48.11c0 1.84-1.49 3.34-3.34 3.34-1.84 0-3.34-1.49-3.34-3.34 0-1.84 1.49-3.34 3.34-3.34 1.84 0 3.34 1.5 3.34 3.34z" fill="#d3cfda"/><path d="m67.15 48.11c0 1.84-1.49 3.34-3.33 3.34s-3.33-1.49-3.33-3.34c0-1.84 1.49-3.34 3.33-3.34s3.33 1.5 3.33 3.34z" fill="#d3cfda"/><path d="m346.28 45.49-1.71-1.72-2.62 2.62-2.62-2.62-1.72 1.72 2.62 2.62-2.62 2.61 1.72 1.72 2.62-2.61 2.62 2.61 1.71-1.72-2.61-2.61z" fill="#d3cfda"/><path d="m325.85 48.24c0 .45-.37.82-.82.82h-243.65c-.45 0-.82-.37-.82-.82v-.27c0-.45.37-.82.82-.82h243.65c.45 0 .82.37.82.82z" fill="#d3cfda"/><path d="m340.85 195.72h-295.48c-.27 0-.5-.22-.5-.5v-122.28c0-.28.22-.5.5-.5h295.48c.28 0 .5.22.5.5v122.28c0 .28-.22.5-.5.5zm-294.98-.99h294.49v-121.29h-294.49z"/><path d="m354.13 202.23c0 3.46-2.8 6.26-6.26 6.26h-309.51c-3.46 0-6.26-2.8-6.26-6.26v-142.56h322.03z" fill="#d3cfda"/><path d="m124.79 95.96v50.84c0 2.5-2.03 4.53-4.53 4.53h-50.88c-2.5 0-4.53-2.03-4.53-4.53v-50.84c0-2.5 2.03-4.53 4.53-4.53h50.88c2.5 0 4.53 2.03 4.53 4.53z" fill="#fff"/><path d="m123.37 162.57h-57.13c-.78 0-1.4.63-1.4 1.4v15.05c0 .78.63 1.4 1.4 1.4h57.12c.78 0 1.4-.63 1.4-1.4v-15.05c.01-.77-.62-1.4-1.39-1.4z" fill="#bcb5c9"/><path d="m124.79 116.43v30.37c0 2.5-2.03 4.53-4.53 4.53h-50.88c-2.5 0-4.53-2.03-4.53-4.53v-12.66l20.07-15.99c2.17-1.73 5.24-1.75 7.44-.06l12.3 9.5c2.28 1.76 5.49 1.66 7.65-.24z" fill="#bcb5c9"/><path d="m202.42 95.96v50.84c0 2.5-2.03 4.53-4.53 4.53h-50.88c-2.5 0-4.53-2.03-4.53-4.53v-50.84c0-2.5 2.03-4.53 4.53-4.53h50.88c2.5 0 4.53 2.03 4.53 4.53z" fill="#fff"/><path d="m201 162.57h-57.12c-.78 0-1.4.63-1.4 1.4v15.05c0 .78.63 1.4 1.4 1.4h57.12c.78 0 1.4-.63 1.4-1.4v-15.05c0-.77-.62-1.4-1.4-1.4z" fill="#bcb5c9"/><path d="m202.42 116.43v30.37c0 2.5-2.03 4.53-4.53 4.53h-50.88c-2.5 0-4.53-2.03-4.53-4.53v-12.66l20.07-15.99c2.17-1.73 5.24-1.75 7.44-.06l12.3 9.5c2.28 1.76 5.49 1.66 7.65-.24z" fill="#bcb5c9"/><path d="m280.05 95.96v50.84c0 2.5-2.03 4.53-4.53 4.53h-50.88c-2.5 0-4.53-2.03-4.53-4.53v-50.84c0-2.5 2.03-4.53 4.53-4.53h50.88c2.5 0 4.53 2.03 4.53 4.53z" fill="#fff"/><path d="m278.63 162.57h-57.12c-.78 0-1.4.63-1.4 1.4v15.05c0 .78.63 1.4 1.4 1.4h57.12c.78 0 1.4-.63 1.4-1.4v-15.05c.01-.77-.62-1.4-1.4-1.4z" fill="#bcb5c9"/><path d="m280.05 116.43v30.37c0 2.5-2.03 4.53-4.53 4.53h-50.88c-2.5 0-4.53-2.03-4.53-4.53v-12.66l20.07-15.99c2.17-1.73 5.24-1.75 7.44-.06l12.3 9.5c2.28 1.76 5.49 1.66 7.65-.24z" fill="#bcb5c9"/><path d="m321.76 180.42h-20.23c-1.1 0-1.98-.89-1.98-1.98s.89-1.98 1.98-1.98h20.23c1.1 0 1.98.89 1.98 1.98 0 1.1-.88 1.98-1.98 1.98z" fill="#bcb5c9"/><path d="m321.76 163.42h-20.23c-1.1 0-1.98-.89-1.98-1.98 0-1.1.89-1.98 1.98-1.98h20.23c1.1 0 1.98.89 1.98 1.98s-.88 1.98-1.98 1.98z" fill="#bcb5c9"/><path d="m321.76 146.41h-20.23c-1.1 0-1.98-.89-1.98-1.98 0-1.1.89-1.98 1.98-1.98h20.23c1.1 0 1.98.89 1.98 1.98s-.88 1.98-1.98 1.98z" fill="#bcb5c9"/><path d="m321.76 129.4h-20.23c-1.1 0-1.98-.89-1.98-1.98s.89-1.98 1.98-1.98h20.23c1.1 0 1.98.89 1.98 1.98 0 1.1-.88 1.98-1.98 1.98z" fill="#bcb5c9"/><path d="m321.76 112.4h-20.23c-1.1 0-1.98-.89-1.98-1.98s.89-1.98 1.98-1.98h20.23c1.1 0 1.98.89 1.98 1.98s-.88 1.98-1.98 1.98z" fill="#bcb5c9"/><path d="m321.76 95.39h-20.23c-1.1 0-1.98-.89-1.98-1.98 0-1.1.89-1.98 1.98-1.98h20.23c1.1 0 1.98.89 1.98 1.98s-.88 1.98-1.98 1.98z" fill="#bcb5c9"/><path d="m436.63 88.12c0-14.36-12.47-25.81-27.17-24.11-10.71 1.24-19.58 9.82-21.12 20.49-1.19 8.22 1.75 15.78 7.04 20.96 3.78 3.69 5.6 8.95 5.6 14.23v9.71h22.76v-10.33c0-5.06 1.88-10.01 5.51-13.52 4.54-4.41 7.38-10.59 7.38-17.43z" fill="#ffde17"/><path d="m424.04 134.66h-23.38c-1.45 0-2.63-1.18-2.63-2.63 0-1.45 1.18-2.63 2.63-2.63h23.38c1.45 0 2.63 1.18 2.63 2.63 0 1.45-1.18 2.63-2.63 2.63z" fill="#2b2438"/><path d="m424.04 145.19h-23.38c-1.45 0-2.63-1.18-2.63-2.63 0-1.45 1.18-2.63 2.63-2.63h23.38c1.45 0 2.63 1.18 2.63 2.63 0 1.44-1.18 2.63-2.63 2.63z" fill="#2b2438"/><path d="m424.04 139.93h-23.38c-1.45 0-2.63-1.18-2.63-2.63 0-1.45 1.18-2.63 2.63-2.63h23.38c1.45 0 2.63 1.18 2.63 2.63 0 1.44-1.18 2.63-2.63 2.63z" fill="#493d60"/><path d="m423.73 145.19c0 2.36-1.92 4.28-4.28 4.28h-14.2c-2.36 0-4.28-1.92-4.28-4.28z" fill="#493d60"/><path d="m363.1 384.38c2.99-17.14-34.11-73.07-88.69-85.77-9.1-2.12-18.81-.38-26.4 5.06-33.3 23.87-57.06 80.44-57.06 80.44s19.23 30.58 62.28 31.49c16.3-26.53 23.34-62.84 23.34-62.84s23.52 41.72 40.13 47.67c16.94 6.07 42.23 7.85 46.4-16.05z" fill="#43d6c8"/><path d="m215.58 405.68-.94-.33c14.16-39.7 30.57-69.48 48.78-88.5 3.6-3.76 9.07-5.1 13.89-3.41 30.34 10.64 61.91 54.04 73.77 88.15l-.94.32c-11.78-33.89-43.11-76.99-73.16-87.54-4.48-1.58-9.52-.33-12.86 3.16-18.09 18.93-34.42 48.58-48.54 88.15z" fill="#00dea6"/><path d="m382.74 221.85s-6.81 19.27 9.45 17.33l-.19 10.05-.49 23.37 35.2 3.56s-12.85-19.96-14.83-47.51c12.2-2.49 15.31-17.25 4.38-23.17-.86-9.97-20.96-19.3-30.03-2.66-2.27 9.16-6.26 15.2-8.57 17.89z" fill="#ffbe8f"/><path d="m416.28 384.87c-11.35 0-70.85-17.03-99.32-43.87 14.32-20.14 27.52-37.95 37.67-49.47 22.99-26.23 40.5-36.73 53.53-32.09 21.75 7.75 37.37 45.15 9.82 125.04-.06.18-.23.31-.42.33-.37.04-.8.06-1.28.06z" fill="#1c75bc"/><path d="m409.28 221.56c-.12 0-.24-.04-.34-.13-.2-.19-.21-.5-.02-.7l4.31-4.6c.19-.19.5-.21.7-.02s.21.5.02.7l-4.31 4.6c-.1.1-.23.15-.36.15z" fill="#e6ab81"/><path d="m413.36 221.3c-.14 0-.28-.06-.38-.17l-3.94-4.54c-.18-.2-.15-.52.05-.7s.51-.16.7.05l3.94 4.54c.18.21.15.52-.05.7-.09.08-.21.12-.32.12z" fill="#e6ab81"/><path d="m388.17 210.75c-.52 2.34-.35 4.36.38 4.53.74.17 1.76-1.59 2.28-3.93s.35-4.36-.38-4.53c-.73-.16-1.75 1.6-2.28 3.93z" fill="#2b2438"/><path d="m380.13 193.16c1.27-10.61 12.65-16.25 19.89-6.08 4.29-7 15.95-6.53 15.97 4.07 4.24-.98 12.41-1.49 15.59 7.29 2.36 6.53-3.62 11.64-3.62 11.64s9.77 11.11-.21 20.75c-8.53 8.24-20.73-.82-21.62-6.22 0 0 12.62 1.88 10.98-7.56-.7-4.05-3.37-5.23-5.79-5.12-7.19.34-13.87 18.05-5.9 22.09-6.79 18.17-33.18 14.97-33.18 14.97l-1.84-2.75c6.26-8.83 10.13-24.91 10.13-24.91l2.2.5 10.21 2.52 6.29-21.64c-.03.01-.06.02-.09.03-8.28 2.74-20.28 1.03-19.01-9.58z" fill="#2b2438"/><path d="m339.34 362.44c28.6-57.05 52.63-96.34 67.35-91.24 16.15 5.59-7.71 91.75-21.82 119.59z" fill="#27aae1"/><path d="m493.71 384.83c-7.37 45.92-47.38 79.47-93.89 79.47h-88.66c-27.1 0-50.75-15.33-62.48-37.4-6.38-11.92-9.23-25.87-7.21-40.45 4.24-30.51 27.1-47.5 59.11-47.5 18.62 0 30.9 3.09 38.98 7.17 18.58 9.35 41.52 3.96 52.45-13.75 16.04-26.03 19.21-59.66 30.78-90.6 8.28-22.03 37.75-24.4 49.44-5.23.63.99 1.19 2.06 1.7 3.21 24.89 54.95 26.08 105.74 19.78 145.08z" fill="#ffde17"/><path d="m330.1 247.68c-1.7 5.51-5.78 10.54-11.17 14.66-4 3.13-8.72 5.78-13.67 7.76-7.61 3.05-15.77 4.64-22.74 4.24 3.72-6.1 9.15-11.85 15.61-16.48.2-.16.44-.32.63-.44 4.12-2.93 8.68-5.35 13.51-7.01.04-.04.04-.04.08-.04 5.66-2.06 11.69-3.05 17.75-2.69z" fill="#2b2438"/><path d="m318.93 262.34c-4 3.13-8.72 5.78-13.67 7.76-1.11-2.3-3.64-7.96-6.5-12.68-1.31-2.22-2.69-4.2-4.04-5.55-16.84-16.96-7.29-23.53-24.17-36.72 12.4-9.07 24.17-8.91 24.17-8.91s7.21 23.57 17.55 44.17c.08.08.12.2.16.28 2.06 4.08 4.24 8 6.5 11.65z" fill="#ffbe8f"/><path d="m308.37 237.28h-19.02l-21.25-47.74h21.25l1.26 3.18 16.5 41.43z" fill="#2b2438"/><path d="m307.11 234.15h-15.24l-18.42-41.43h17.16z" fill="#e6e7e8"/><path d="m295.29 216.8-5.47 2.39-.51-1.16 5.47-2.39z"/><path d="m294.99 220.41-.93.41-.88-2.01.93-.41z"/><path d="m299.31 225.98.58 1.32-1.68 2.44.57.34 1.95-.85.51 1.16-5.47 2.39-.51-1.16 2.5-1.09-.84-.18-2.51-.67-.56-1.29 3.25.85z"/><path d="m299.01 225.29-5.47 2.39-.51-1.16 5.47-2.39z"/><path d="m296.98 220.64.51 1.16-4.5 1.97.65 1.48-.96.42-1.8-4.13.96-.42.65 1.48z"/><path d="m286.78 212.32 5.49-2.4.29.65c.04.1.06.18.06.26s-.03.17-.08.27l-2.16 3.98c.09-.05.19-.1.28-.14s.18-.08.26-.12l2.94-1.28.48 1.11-5.49 2.4-.29-.66c-.02-.05-.04-.1-.05-.14s-.02-.08-.02-.11c0-.04.01-.07.02-.11s.03-.08.06-.14l2.17-4.02c-.1.06-.2.11-.3.16s-.19.09-.28.13l-2.9 1.27z"/><path d="m291.75 209.18-5.1-11.68-5.87 1.18 5.1 11.67z"/><path d="m284.99 193.69-.16-.38-5.84 1.21.16.38z"/><path d="m285.28 194.34-.17-.38-5.84 1.21.17.38z"/><path d="m285.57 195.01-.16-.38-5.85 1.21.17.38z"/><path d="m285.88 195.72-.16-.38-5.85 1.21.17.38z"/><path d="m286.19 196.43-.16-.38-5.85 1.21.17.38z"/><path d="m286.51 197.16-.17-.38-5.84 1.21.17.37z"/><path d="m291.77 209.22-5.11-11.68-5.87 1.18 5.11 11.67z" fill="#7d5ca6"/><path d="m285.01 193.72-.16-.37-5.85 1.21.17.37z" fill="#e53044"/><path d="m285.3 194.38-.17-.38-5.84 1.21.16.37z" fill="#f38020"/><path d="m285.59 195.05-.17-.38-5.84 1.21.17.38z" fill="#f8ec23"/><path d="m285.9 195.76-.17-.38-5.84 1.21.16.37z" fill="#b7cc33"/><path d="m286.21 196.47-.17-.38-5.84 1.21.17.37z" fill="#12b6ba"/><path d="m286.53 197.19-.17-.37-5.84 1.2.16.38z" fill="#2b78bc"/><path clip-path="url(#a)" d="m289.87 219.29.44-.18-.43.19z" fill="#6c499c"/><path clip-path="url(#a)" d="m289.84 219.22 4.04-1.67-3.57 1.56-.44.18z" fill="#6d489c"/><path clip-path="url(#a)" d="m289.81 219.14 5.51-2.28.02.05-1.46.64-4.04 1.67z" fill="#6d489c"/><path clip-path="url(#a)" d="m289.78 219.07 5.51-2.28.03.07-5.51 2.28z" fill="#6e489c"/><path clip-path="url(#a)" d="m289.75 219 5.51-2.28.03.07-5.51 2.28z" fill="#6f479b"/><path clip-path="url(#a)" d="m289.72 218.93 5.51-2.28.03.07-5.51 2.28z" fill="#71479b"/><path clip-path="url(#a)" d="m289.69 218.86 5.51-2.28.03.07-5.51 2.28z" fill="#71469b"/><path clip-path="url(#a)" d="m289.65 218.79 5.52-2.28.03.07-5.51 2.28z" fill="#72459a"/><path clip-path="url(#a)" d="m289.62 218.72 5.52-2.28.03.07-5.52 2.28z" fill="#73459a"/><path clip-path="url(#a)" d="m289.59 218.65 5.52-2.28.03.07-5.52 2.28z" fill="#74459a"/><path clip-path="url(#a)" d="m289.56 218.58 5.52-2.28.03.07-5.52 2.28z" fill="#75459a"/><path clip-path="url(#a)" d="m289.53 218.5 5.52-2.28.03.08-5.52 2.28z" fill="#75459a"/><path clip-path="url(#a)" d="m289.5 218.43 5.51-2.28.04.07-5.52 2.28z" fill="#749"/><path clip-path="url(#a)" d="m289.47 218.36 5.51-2.28.03.07-5.51 2.28z" fill="#784399"/><path clip-path="url(#a)" d="m289.44 218.29 5.51-2.28.03.07-5.51 2.28z" fill="#794399"/><path clip-path="url(#a)" d="m289.41 218.22 5.51-2.28.03.07-5.51 2.28z" fill="#7a4399"/><path clip-path="url(#a)" d="m289.38 218.15 5.51-2.28.03.07-5.51 2.28z" fill="#7b4298"/><path clip-path="url(#a)" d="m292.28 216.87 2.58-1.07.03.07-5.51 2.28-.01-.01z" fill="#7c4298"/><path clip-path="url(#a)" d="m294.86 215.8-2.58 1.07 2.56-1.12z" fill="#7c4198"/><path clip-path="url(#b)" d="m294.09 220.9.94-.39.01.01-.94.41z" fill="#5154a3"/><path clip-path="url(#b)" d="m294.06 220.83.94-.39.03.07-.94.39z" fill="#5153a3"/><path clip-path="url(#b)" d="m294.02 220.76.95-.39.03.07-.94.39z" fill="#5353a2"/><path clip-path="url(#b)" d="m293.99 220.69.95-.39.03.07-.95.39z" fill="#5452a2"/><path clip-path="url(#b)" d="m293.96 220.62.95-.39.03.07-.95.39z" fill="#5552a2"/><path clip-path="url(#b)" d="m293.93 220.55.94-.39.04.07-.95.39z" fill="#5552a2"/><path clip-path="url(#b)" d="m293.9 220.47.94-.39.03.08-.94.39z" fill="#5552a2"/><path clip-path="url(#b)" d="m293.87 220.4.94-.39.03.07-.94.39z" fill="#5652a2"/><path clip-path="url(#b)" d="m293.84 220.33.94-.39.03.07-.94.39z" fill="#5652a2"/><path clip-path="url(#b)" d="m293.81 220.26.94-.39.03.07-.94.39z" fill="#5651a1"/><path clip-path="url(#b)" d="m293.78 220.19.94-.39.03.07-.94.39z" fill="#5651a1"/><path clip-path="url(#b)" d="m293.75 220.12.94-.39.03.07-.94.39z" fill="#5751a1"/><path clip-path="url(#b)" d="m293.71 220.05.95-.39.03.07-.94.39z" fill="#5851a1"/><path clip-path="url(#b)" d="m293.68 219.98.95-.39.03.07-.95.39z" fill="#5950a1"/><path clip-path="url(#b)" d="m293.65 219.91.95-.39.03.07-.95.39z" fill="#5950a1"/><path clip-path="url(#b)" d="m293.62 219.83.94-.38.04.07-.95.39z" fill="#5b50a0"/><path clip-path="url(#b)" d="m293.59 219.76.94-.39.03.08-.94.38z" fill="#5b50a0"/><path clip-path="url(#b)" d="m293.56 219.69.94-.39.03.07-.94.39z" fill="#5b50a0"/><path clip-path="url(#b)" d="m293.53 219.62.94-.39.03.07-.94.39z" fill="#5c4fa0"/><path clip-path="url(#b)" d="m293.5 219.55.94-.39.03.07-.94.39z" fill="#5d4fa0"/><path clip-path="url(#b)" d="m293.47 219.48.94-.39.03.07-.94.39z" fill="#5d4fa0"/><path clip-path="url(#b)" d="m293.43 219.41.95-.39.03.07-.94.39z" fill="#5e4fa0"/><path clip-path="url(#b)" d="m293.4 219.34.95-.39.03.07-.95.39z" fill="#5f4e9f"/><path clip-path="url(#b)" d="m293.37 219.27.95-.39.03.07-.95.39z" fill="#5f4e9f"/><path clip-path="url(#b)" d="m293.34 219.2.94-.39.04.07-.95.39z" fill="#604d9f"/><path clip-path="url(#b)" d="m293.31 219.12.94-.39.03.08-.94.39z" fill="#614d9f"/><path clip-path="url(#b)" d="m293.28 219.05.94-.39.03.07-.94.39z" fill="#624d9f"/><path clip-path="url(#b)" d="m293.25 218.98.94-.39.03.07-.94.39z" fill="#624d9f"/><path clip-path="url(#b)" d="m293.88 218.64.28-.12.03.07-.94.39-.03-.06z" fill="#634c9e"/><path clip-path="url(#b)" d="m294.16 218.52-.28.12z" fill="#634c9e"/><path clip-path="url(#c)" d="m295.78 232.81 3.32-1.37-3.29 1.43z" fill="#11b4c4"/><path clip-path="url(#c)" d="m295.75 232.74 5.51-2.28.02.02-2.18.96-3.32 1.37z" fill="#11b4c4"/><path clip-path="url(#c)" d="m295.72 232.67 5.51-2.28.03.07-5.51 2.28z" fill="#14b3c4"/><path clip-path="url(#c)" d="m295.69 232.6 5.51-2.28.03.07-5.51 2.28z" fill="#10b2c5"/><path clip-path="url(#c)" d="m295.66 232.53 5.51-2.28.03.07-5.51 2.28z" fill="#10b2c6"/><path clip-path="url(#c)" d="m295.63 232.46 5.51-2.28.03.07-5.51 2.28z" fill="#12b1c6"/><path clip-path="url(#c)" d="m295.6 232.39 5.51-2.28.03.07-5.51 2.28z" fill="#0cb0c7"/><path clip-path="url(#c)" d="m295.57 232.32 5.51-2.28.03.07-5.51 2.28z" fill="#10afc7"/><path clip-path="url(#c)" d="m295.53 232.25 5.52-2.28.03.07-5.51 2.28z" fill="#13aec7"/><path clip-path="url(#c)" d="m295.5 232.18 5.52-2.28.03.07-5.52 2.28z" fill="#17adc7"/><path clip-path="url(#c)" d="m295.47 232.11 5.52-2.28.03.07-5.52 2.28z" fill="#19acc7"/><path clip-path="url(#c)" d="m295.44 232.04 5.52-2.28.03.07-5.52 2.28z" fill="#13abc9"/><path clip-path="url(#c)" d="m295.41 231.97 5.52-2.28.03.07-5.52 2.28z" fill="#10aac9"/><path clip-path="url(#c)" d="m295.38 231.9 5.52-2.28.03.07-5.52 2.28z" fill="#11a9ca"/><path clip-path="url(#c)" d="m295.35 231.83 5.52-2.28.03.07-5.52 2.28z" fill="#0aa8ca"/><path clip-path="url(#c)" d="m295.32 231.76 5.51-2.28.04.07-5.52 2.28z" fill="#0ea7ca"/><path clip-path="url(#c)" d="m295.29 231.69 5.51-2.28.03.07-5.51 2.28z" fill="#11a6cb"/><path clip-path="url(#c)" d="m295.26 231.62 5.51-2.28.03.07-5.51 2.28z" fill="#15a5cb"/><path clip-path="url(#c)" d="m295.23 231.54 5.51-2.27.03.07-5.51 2.28z" fill="#14a4cc"/><path clip-path="url(#c)" d="m295.2 231.47 5.51-2.28.03.08-5.51 2.27z" fill="#11a3cd"/><path clip-path="url(#c)" d="m295.17 231.4 5.51-2.28.03.07-5.51 2.28z" fill="#14a2cd"/><path clip-path="url(#c)" d="m295.14 231.33 5.51-2.28.03.07-5.51 2.28z" fill="#16a1cd"/><path clip-path="url(#c)" d="m295.11 231.26 5.51-2.28.03.07-5.51 2.28z" fill="#19a0cd"/><path clip-path="url(#c)" d="m295.07 231.19 5.52-2.28.03.07-5.51 2.28z" fill="#169fcd"/><path clip-path="url(#c)" d="m295.04 231.12 5.52-2.28.03.07-5.52 2.28z" fill="#189ece"/><path clip-path="url(#c)" d="m295.01 231.05 5.52-2.28.03.07-5.52 2.28z" fill="#199dce"/><path clip-path="url(#c)" d="m294.98 230.98 5.52-2.28.03.07-5.52 2.28z" fill="#199ccf"/><path clip-path="url(#c)" d="m294.95 230.91 5.52-2.28.03.07-5.52 2.28z" fill="#1c9bcf"/><path clip-path="url(#c)" d="m294.92 230.84 5.52-2.28.03.07-5.52 2.28z" fill="#1e9acf"/><path clip-path="url(#c)" d="m294.89 230.77 5.52-2.28.03.07-5.52 2.28z" fill="#1999d1"/><path clip-path="url(#c)" d="m294.86 230.7 5.52-2.28.03.07-5.52 2.28z" fill="#1798d0"/><path clip-path="url(#c)" d="m294.83 230.63 5.51-2.28.04.07-5.52 2.28z" fill="#1997d1"/><path clip-path="url(#c)" d="m294.8 230.56 5.51-2.28.03.07-5.51 2.28z" fill="#1b96d1"/><path clip-path="url(#c)" d="m294.77 230.49 5.51-2.28.03.07-5.51 2.28z" fill="#1c95d1"/><path clip-path="url(#c)" d="m294.74 230.42 5.51-2.28.03.07-5.51 2.28z" fill="#1e94d2"/><path clip-path="url(#c)" d="m294.71 230.35 5.51-2.28.03.07-5.51 2.28z" fill="#2193d1"/><path clip-path="url(#c)" d="m294.68 230.28 5.51-2.28.03.07-5.51 2.28z" fill="#2392d0"/><path clip-path="url(#c)" d="m294.65 230.21 5.51-2.28.03.07-5.51 2.28z" fill="#2591cf"/><path clip-path="url(#c)" d="m294.61 230.14 5.52-2.28.03.07-5.51 2.28z" fill="#258fce"/><path clip-path="url(#c)" d="m294.58 230.07 5.52-2.28.03.07-5.52 2.28z" fill="#278ecd"/><path clip-path="url(#c)" d="m294.55 230 5.52-2.28.03.07-5.52 2.28z" fill="#298dcd"/><path clip-path="url(#c)" d="m294.52 229.93 5.52-2.28.03.07-5.52 2.28z" fill="#2b8ccc"/><path clip-path="url(#c)" d="m294.49 229.86 5.52-2.28.03.07-5.52 2.28z" fill="#2d8bca"/><path clip-path="url(#c)" d="m294.46 229.79 5.52-2.28.03.07-5.52 2.28z" fill="#2d8aca"/><path clip-path="url(#c)" d="m294.43 229.72 5.52-2.28.03.07-5.52 2.28z" fill="#2e88c9"/><path clip-path="url(#c)" d="m294.4 229.65 5.52-2.28.03.07-5.52 2.28z" fill="#3187c8"/><path clip-path="url(#c)" d="m294.37 229.58 5.51-2.28.04.07-5.52 2.28z" fill="#3086c7"/><path clip-path="url(#c)" d="m294.34 229.51 5.51-2.28.03.07-5.51 2.28z" fill="#3285c6"/><path clip-path="url(#c)" d="m294.31 229.44 5.51-2.28.03.07-5.51 2.28z" fill="#3384c5"/><path clip-path="url(#c)" d="m294.28 229.37 5.51-2.28.03.07-5.51 2.28z" fill="#3482c4"/><path clip-path="url(#c)" d="m294.25 229.3 5.51-2.28.03.07-5.51 2.28z" fill="#3781c3"/><path clip-path="url(#c)" d="m294.22 229.23 5.51-2.28.03.07-5.51 2.28z" fill="#3880c2"/><path clip-path="url(#c)" d="m294.19 229.16 5.51-2.28.03.07-5.51 2.28z" fill="#387fc1"/><path clip-path="url(#c)" d="m294.16 229.09 5.51-2.28.03.07-5.51 2.28z" fill="#397ec0"/><path clip-path="url(#c)" d="m294.12 229.02 5.52-2.28.03.07-5.51 2.28z" fill="#3a7dc0"/><path clip-path="url(#c)" d="m294.09 228.95 5.52-2.28.03.07-5.52 2.28z" fill="#3b7cbf"/><path clip-path="url(#c)" d="m294.06 228.88 5.52-2.28.03.07-5.52 2.28z" fill="#3b7bbe"/><path clip-path="url(#c)" d="m294.03 228.81 5.52-2.28.03.07-5.52 2.28z" fill="#3c7abd"/><path clip-path="url(#c)" d="m294 228.74 5.52-2.28.03.07-5.52 2.28z" fill="#3d79bd"/><path clip-path="url(#c)" d="m293.97 228.67 5.52-2.28.03.07-5.52 2.28z" fill="#3c79bc"/><path clip-path="url(#c)" d="m293.94 228.6 5.52-2.28.03.07-5.52 2.28z" fill="#3f77bb"/><path clip-path="url(#c)" d="m293.91 228.53 5.51-2.28.04.07-5.52 2.28z" fill="#4076ba"/><path clip-path="url(#c)" d="m294.73 228.11 4.66-1.93.03.07-5.51 2.28-.02-.05z" fill="#4076ba"/><path clip-path="url(#c)" d="m298.26 226.57 1.1-.46.03.07-4.66 1.93z" fill="#4075b9"/><path clip-path="url(#c)" d="m299.36 226.11-1.1.46 1.09-.48z" fill="#4174b8"/><path clip-path="url(#d)" d="m293.57 227.76 1.54-.64-1.52.67z" fill="#426cb3"/><path clip-path="url(#d)" d="m293.54 227.69 5.09-2.11-3.52 1.54-1.54.64z" fill="#416cb3"/><path clip-path="url(#d)" d="m293.51 227.62 5.52-2.28.02.06-.42.18-5.09 2.11z" fill="#426bb3"/><path clip-path="url(#d)" d="m293.48 227.55 5.52-2.28.03.07-5.52 2.28z" fill="#436ab2"/><path clip-path="url(#d)" d="m293.45 227.48 5.52-2.28.03.07-5.52 2.28z" fill="#436ab2"/><path clip-path="url(#d)" d="m293.42 227.41 5.51-2.28.04.07-5.52 2.28z" fill="#4469b1"/><path clip-path="url(#d)" d="m293.39 227.34 5.51-2.28.03.07-5.51 2.28z" fill="#4468b1"/><path clip-path="url(#d)" d="m293.36 227.27 5.51-2.28.03.07-5.51 2.28z" fill="#4368b0"/><path clip-path="url(#d)" d="m293.33 227.2 5.51-2.28.03.07-5.51 2.28z" fill="#4367b0"/><path clip-path="url(#d)" d="m293.3 227.13 5.51-2.28.03.07-5.51 2.28z" fill="#4466af"/><path clip-path="url(#d)" d="m293.27 227.06 5.51-2.28.03.07-5.51 2.28z" fill="#4566af"/><path clip-path="url(#d)" d="m293.24 226.99 5.51-2.28.03.07-5.51 2.28z" fill="#4565af"/><path clip-path="url(#d)" d="m293.21 226.92 5.51-2.28.03.07-5.51 2.28z" fill="#4465ae"/><path clip-path="url(#d)" d="m293.17 226.85 5.52-2.28.03.07-5.51 2.28z" fill="#4464ae"/><path clip-path="url(#d)" d="m293.14 226.77 5.52-2.28.03.08-5.52 2.28z" fill="#4664ae"/><path clip-path="url(#d)" d="m293.11 226.7 5.52-2.28.03.07-5.52 2.28z" fill="#4663ad"/><path clip-path="url(#d)" d="m293.08 226.63 5.52-2.28.03.07-5.52 2.28z" fill="#4663ad"/><path clip-path="url(#d)" d="m296.27 225.23 2.3-.95.03.07-5.52 2.28z" fill="#4662ac"/><path clip-path="url(#d)" d="m298.57 224.28-2.3.95 2.28-.99z" fill="#4562ac"/><path clip-path="url(#e)" d="m292.68 225.72 3.24-1.33-3.21 1.4z" fill="#485ea9"/><path clip-path="url(#e)" d="m292.65 225.65 5.52-2.28.01.03-2.26.99-3.24 1.33z" fill="#475da9"/><path clip-path="url(#e)" d="m292.62 225.58 5.52-2.28.03.07-5.52 2.28z" fill="#475da9"/><path clip-path="url(#e)" d="m292.59 225.51 5.52-2.28.03.07-5.52 2.28z" fill="#475ca9"/><path clip-path="url(#e)" d="m292.56 225.44 5.52-2.28.03.07-5.52 2.28z" fill="#475ca9"/><path clip-path="url(#e)" d="m292.53 225.37 5.52-2.28.03.07-5.52 2.28z" fill="#485ca8"/><path clip-path="url(#e)" d="m292.5 225.3 5.52-2.28.03.07-5.52 2.28z" fill="#485ca8"/><path clip-path="url(#e)" d="m292.47 225.23 5.51-2.28.04.07-5.52 2.28z" fill="#485ba8"/><path clip-path="url(#e)" d="m292.44 225.16 5.51-2.28.03.07-5.51 2.28z" fill="#485ba8"/><path clip-path="url(#e)" d="m292.41 225.09 5.51-2.28.03.07-5.51 2.28z" fill="#485ba8"/><path clip-path="url(#e)" d="m292.38 225.02 5.51-2.28.03.07-5.51 2.28z" fill="#495aa7"/><path clip-path="url(#e)" d="m292.35 224.95 5.51-2.28.03.07-5.51 2.28z" fill="#495aa7"/><path clip-path="url(#e)" d="m292.32 224.88 5.51-2.28.03.07-5.51 2.28z" fill="#495aa7"/><path clip-path="url(#e)" d="m292.29 224.81 5.51-2.28.03.07-5.51 2.28z" fill="#495aa7"/><path clip-path="url(#e)" d="m292.26 224.74 5.51-2.28.03.07-5.51 2.28z" fill="#4959a7"/><path clip-path="url(#e)" d="m292.22 224.67 5.52-2.28.03.07-5.51 2.28z" fill="#4959a7"/><path clip-path="url(#e)" d="m292.19 224.6 5.52-2.28.03.07-5.52 2.28z" fill="#4959a7"/><path clip-path="url(#e)" d="m292.16 224.53 5.52-2.28.03.07-5.52 2.28z" fill="#4a59a6"/><path clip-path="url(#e)" d="m292.13 224.46 5.52-2.28.03.07-5.52 2.28z" fill="#4a59a6"/><path clip-path="url(#e)" d="m292.1 224.39 5.52-2.28.03.07-5.52 2.28z" fill="#4a59a6"/><path clip-path="url(#e)" d="m292.07 224.32 5.52-2.28.03.07-5.52 2.28z" fill="#4a58a6"/><path clip-path="url(#e)" d="m292.04 224.25 5.52-2.28.03.07-5.52 2.28z" fill="#4a58a6"/><path clip-path="url(#e)" d="m292.01 224.18 5.51-2.28.04.07-5.52 2.28z" fill="#4a58a6"/><path clip-path="url(#e)" d="m291.98 224.11 5.51-2.28.03.07-5.51 2.28z" fill="#4a58a6"/><path clip-path="url(#e)" d="m291.95 224.04 5.51-2.28.03.07-5.51 2.28z" fill="#4a57a5"/><path clip-path="url(#e)" d="m291.92 223.97 5.51-2.28.03.07-5.51 2.28z" fill="#4a57a5"/><path clip-path="url(#e)" d="m291.89 223.9 5.51-2.28.03.07-5.51 2.28z" fill="#4a57a5"/><path clip-path="url(#e)" d="m291.86 223.83 5.51-2.28.03.07-5.51 2.28z" fill="#4a57a5"/><path clip-path="url(#e)" d="m291.83 223.76 5.51-2.28.03.07-5.51 2.28z" fill="#4b56a5"/><path clip-path="url(#e)" d="m291.8 223.69 5.51-2.28.03.07-5.51 2.28z" fill="#4b56a5"/><path clip-path="url(#e)" d="m291.76 223.62 5.52-2.28.03.07-5.51 2.28z" fill="#4b56a5"/><path clip-path="url(#e)" d="m291.73 223.55 5.52-2.28.03.07-5.52 2.28z" fill="#4b56a5"/><path clip-path="url(#e)" d="m291.7 223.48 5.52-2.28.03.07-5.52 2.28z" fill="#4b56a5"/><path clip-path="url(#e)" d="m291.67 223.41 5.52-2.28.03.07-5.52 2.28z" fill="#4a56a5"/><path clip-path="url(#e)" d="m291.64 223.34 5.52-2.28.03.07-5.52 2.28z" fill="#4a56a5"/><path clip-path="url(#e)" d="m291.61 223.27 5.52-2.28.03.07-5.52 2.28z" fill="#4a56a5"/><path clip-path="url(#e)" d="m291.58 223.2 5.52-2.28.03.07-5.52 2.28z" fill="#4a56a5"/><path clip-path="url(#e)" d="m291.55 223.13 5.51-2.28.04.07-5.52 2.28z" fill="#4a56a4"/><path clip-path="url(#e)" d="m291.52 223.05 5.51-2.28.03.08-5.51 2.28z" fill="#4b56a4"/><path clip-path="url(#e)" d="m291.49 222.98 5.51-2.28.03.07-5.51 2.28z" fill="#4b56a4"/><path clip-path="url(#e)" d="m291.46 222.91 5.51-2.28.03.07-5.51 2.28z" fill="#4b55a4"/><path clip-path="url(#e)" d="m291.43 222.84 5.51-2.28.03.07-5.51 2.28z" fill="#4b55a4"/><path clip-path="url(#e)" d="m291.39 222.77 5.52-2.28.03.07-5.51 2.28z" fill="#4d55a4"/><path clip-path="url(#e)" d="m291.36 222.7 5.52-2.28.03.07-5.52 2.28z" fill="#4e55a4"/><path clip-path="url(#e)" d="m291.33 222.63 5.52-2.28.03.07-5.52 2.28z" fill="#4f54a3"/><path clip-path="url(#e)" d="m291.3 222.56 5.52-2.28.03.07-5.52 2.28z" fill="#4f54a3"/><path clip-path="url(#e)" d="m291.27 222.49 5.51-2.28.04.07-5.52 2.28z" fill="#4f54a3"/><path clip-path="url(#e)" d="m291.24 222.41 5.51-2.28.03.08-5.51 2.28z" fill="#4f54a3"/><path clip-path="url(#e)" d="m291.21 222.34 5.51-2.28.03.07-5.51 2.28z" fill="#5054a3"/><path clip-path="url(#e)" d="m291.18 222.27 5.51-2.28.03.07-5.51 2.28z" fill="#5054a3"/><path clip-path="url(#e)" d="m291.15 222.2 5.51-2.28.03.07-5.51 2.28z" fill="#5054a3"/><path clip-path="url(#e)" d="m291.11 222.13 5.52-2.28.03.07-5.51 2.28z" fill="#5154a3"/><path clip-path="url(#e)" d="m291.08 222.06 5.52-2.28.03.07-5.52 2.28z" fill="#5153a3"/><path clip-path="url(#e)" d="m291.05 221.99 5.52-2.28.03.07-5.52 2.28z" fill="#5353a2"/><path clip-path="url(#e)" d="m291.02 221.92 5.52-2.28.03.07-5.52 2.28z" fill="#5452a2"/><path clip-path="url(#e)" d="m290.99 221.85 5.52-2.28.03.07-5.52 2.28z" fill="#5552a2"/><path clip-path="url(#e)" d="m290.96 221.77 5.51-2.28.04.08-5.52 2.28z" fill="#5552a2"/><path clip-path="url(#e)" d="m290.93 221.7 5.51-2.28.03.07-5.51 2.28z" fill="#5552a2"/><path clip-path="url(#e)" d="m292.19 221.1 4.22-1.75.03.07-5.51 2.28-.02-.04z" fill="#5652a2"/><path clip-path="url(#e)" d="m295.76 219.54.62-.26.03.07-4.22 1.75z" fill="#5652a2"/><path clip-path="url(#e)" d="m296.38 219.28-.62.26.62-.27z" fill="#5651a1"/><path clip-path="url(#f)" d="m288.87 217.1 2.95-1.22-2.93 1.28z" fill="#893b95"/><path clip-path="url(#f)" d="m288.84 217.03 5.53-2.29.01.02-2.56 1.12-2.95 1.22z" fill="#8b3a95"/><path clip-path="url(#f)" d="m288.81 216.96 5.53-2.29.03.07-5.53 2.29z" fill="#8b3a95"/><path clip-path="url(#f)" d="m288.78 216.89 5.53-2.29.03.07-5.53 2.29z" fill="#8d3994"/><path clip-path="url(#f)" d="m288.72 216.77 5.54-2.29.05.12-5.53 2.29z" fill="#8d3994"/><path clip-path="url(#f)" d="m288.67 216.65 5.53-2.29.06.12-5.54 2.29z" fill="#8d3a95"/><path clip-path="url(#f)" d="m288.62 216.53 5.53-2.29.05.12-5.53 2.29z" fill="#8d3b95"/><path clip-path="url(#f)" d="m288.57 216.41 5.53-2.29.05.12-5.53 2.29z" fill="#8b3c95"/><path clip-path="url(#f)" d="m288.51 216.29 5.54-2.29.05.12-5.53 2.29z" fill="#8b3c96"/><path clip-path="url(#f)" d="m288.46 216.17 5.53-2.29.06.12-5.54 2.29z" fill="#8b3d96"/><path clip-path="url(#f)" d="m288.41 216.05 5.53-2.29.05.12-5.53 2.29z" fill="#8a3e96"/><path clip-path="url(#f)" d="m288.36 215.93 5.53-2.29.05.12-5.53 2.29z" fill="#8a3f97"/><path clip-path="url(#f)" d="m288.3 215.81 5.54-2.29.05.12-5.53 2.29z" fill="#894097"/><path clip-path="url(#f)" d="m288.25 215.69 5.53-2.29.06.12-5.54 2.29z" fill="#894097"/><path clip-path="url(#f)" d="m288.2 215.57 5.53-2.29.05.12-5.53 2.29z" fill="#894198"/><path clip-path="url(#f)" d="m288.15 215.45 5.53-2.29.05.12-5.53 2.29z" fill="#884298"/><path clip-path="url(#f)" d="m288.1 215.33 5.53-2.29.05.12-5.53 2.29z" fill="#874398"/><path clip-path="url(#f)" d="m288.04 215.21 5.54-2.29.05.12-5.53 2.29z" fill="#874399"/><path clip-path="url(#f)" d="m287.99 215.09 5.53-2.29.06.12-5.54 2.29z" fill="#874499"/><path clip-path="url(#f)" d="m287.94 214.97 5.53-2.29.05.12-5.53 2.29z" fill="#864599"/><path clip-path="url(#f)" d="m287.89 214.85 5.53-2.29.05.12-5.53 2.29z" fill="#864599"/><path clip-path="url(#f)" d="m287.83 214.73 5.54-2.29.05.12-5.53 2.29z" fill="#85469a"/><path clip-path="url(#f)" d="m287.78 214.61 5.53-2.29.06.12-5.54 2.29z" fill="#85479a"/><path clip-path="url(#f)" d="m287.73 214.49 5.53-2.29.05.12-5.53 2.29z" fill="#85479b"/><path clip-path="url(#f)" d="m287.68 214.37 5.53-2.29.05.12-5.53 2.29z" fill="#85489b"/><path clip-path="url(#f)" d="m287.62 214.25 5.54-2.29.05.12-5.53 2.29z" fill="#84489b"/><path clip-path="url(#f)" d="m287.57 214.13 5.53-2.29.06.12-5.54 2.29z" fill="#84499b"/><path clip-path="url(#f)" d="m287.52 214.01 5.53-2.28.05.11-5.53 2.29z" fill="#85499b"/><path clip-path="url(#f)" d="m287.47 213.89 5.53-2.28.05.12-5.53 2.28z" fill="#854a9c"/><path clip-path="url(#f)" d="m287.41 213.77 5.54-2.28.05.12-5.53 2.28z" fill="#854b9c"/><path clip-path="url(#f)" d="m287.36 213.65 5.54-2.28.05.12-5.54 2.28z" fill="#844c9d"/><path clip-path="url(#f)" d="m287.31 213.53 5.53-2.28.06.12-5.54 2.28z" fill="#834c9d"/><path clip-path="url(#f)" d="m287.26 213.41 5.53-2.28.05.12-5.53 2.28z" fill="#834d9d"/><path clip-path="url(#f)" d="m287.21 213.29 5.53-2.28.05.12-5.53 2.28z" fill="#834e9e"/><path clip-path="url(#f)" d="m287.15 213.17 5.54-2.28.05.12-5.53 2.28z" fill="#834e9e"/><path clip-path="url(#f)" d="m287.1 213.05 5.53-2.28.06.12-5.54 2.28z" fill="#824f9f"/><path clip-path="url(#f)" d="m287.05 212.93 5.53-2.28.05.12-5.53 2.28z" fill="#824f9f"/><path clip-path="url(#f)" d="m287 212.81 5.53-2.28.05.12-5.53 2.28z" fill="#82509f"/><path clip-path="url(#f)" d="m286.94 212.7 5.54-2.29.05.12-5.53 2.28z" fill="#82509f"/><path clip-path="url(#f)" d="m286.89 212.58 5.53-2.29.06.12-5.54 2.29z" fill="#8052a0"/><path clip-path="url(#f)" d="m286.84 212.46 5.53-2.29.05.12-5.53 2.29z" fill="#8052a0"/><path clip-path="url(#f)" d="m291.45 210.41.87-.36.05.12-5.53 2.29-.01-.03z" fill="#8053a1"/><path clip-path="url(#f)" d="m292.32 210.05-.87.36.86-.38z" fill="#8054a1"/><path d="m289 205.4-.94.61.61 1.39 1.26.11.27.63-4.58-.47-.28-.65 3.39-2.26zm-1.44.89-.93.58c-.06.04-.16.1-.3.18s-.24.13-.3.17c.24-.01.51.01.82.03l1.18.1z"/><path d="m284.69 202.5c.41-.09.79-.04 1.12.16s.59.53.8.99l.17.38 1.49-.33.26.59-3.97.89-.46-1.05c-.2-.45-.25-.82-.14-1.09.09-.27.34-.45.73-.54zm1.53 1.65-.14-.32c-.13-.31-.29-.52-.47-.63-.18-.12-.39-.15-.64-.09-.23.05-.37.15-.43.31-.06.15-.03.36.09.63l.18.41z"/><path d="m283.32 199.37c.41-.09.79-.04 1.12.16s.59.53.8.99l.17.38 1.49-.33.26.59-3.97.89-.46-1.05c-.2-.45-.25-.82-.14-1.09.09-.27.34-.45.73-.54zm1.53 1.65-.14-.32c-.13-.3-.29-.52-.47-.63-.18-.12-.39-.15-.64-.09-.23.05-.37.15-.43.31-.06.15-.03.36.09.63l.18.41z"/><path d="m289.01 205.45-.94.61.61 1.39 1.26.11.27.63-4.58-.47-.28-.65 3.39-2.26zm-1.43.9-.93.58c-.06.04-.16.1-.3.18s-.24.13-.3.17c.24-.01.51.01.82.03l1.18.1z" fill="#fff"/><path d="m284.71 202.56c.41-.09.79-.04 1.12.16s.59.53.8.99l.17.38 1.49-.33.26.59-3.97.89-.46-1.05c-.2-.45-.25-.82-.14-1.09.08-.28.33-.46.73-.54zm1.53 1.64-.14-.32c-.13-.31-.29-.52-.47-.63-.18-.12-.39-.15-.64-.09-.23.05-.37.15-.43.31-.06.15-.03.36.09.63l.18.41z" fill="#fff"/><path d="m283.34 199.42c.41-.09.79-.04 1.12.16s.59.53.8.99l.17.38 1.49-.33.26.59-3.97.89-.46-1.05c-.2-.45-.25-.82-.14-1.09.08-.27.33-.45.73-.54zm1.53 1.65-.14-.32c-.13-.31-.29-.52-.47-.63-.18-.12-.39-.15-.64-.09-.23.05-.37.15-.43.31-.06.15-.03.36.09.63l.18.41z" fill="#fff"/><path d="m493.69 384.82c-2.95 18.34-11.06 34.72-22.74 47.73-17.59 19.67-43.2 31.77-71.14 31.77h-88.65c-14.51 0-27.98-4.37-39.21-11.89-9.77-6.4-17.84-15.26-23.28-25.53-6.28-41.25 49.35-43.87 124.15-17.09 89.81 32.18 79.16-57.42 63.78-123.24-12.64-54.13 18.04-71.1 35.63-50.02.62 1 1.21 2.04 1.71 3.2 24.87 54.97 26.07 105.74 19.75 145.07z" fill="#e5d11c"/><path d="m470.95 432.55c-17.59 19.67-43.2 31.77-71.14 31.77h-88.65c-14.51 0-27.98-4.37-39.21-11.89 32.06 1.5 46.53-24.45 91.8-11.89 43.5 12.14 76.81 14.38 107.2-7.99z" fill="#ddb800"/></svg>